<?xml version="1.0" encoding="UTF-8"?>
<svg width="345px" height="345px" viewBox="0 0 345 345" version="1.1" xmlns="http://www.w3.org/2000/svg" xmlns:xlink="http://www.w3.org/1999/xlink">
    <title>logo-one-point-services</title>
    <defs>
        <path d="M0,42.3508364 C0,66.2537674 17.0593533,84.800855 41.2598312,84.800855 C64.7660331,84.800855 82.4204801,66.2537674 82.4204801,42.3508364 C82.4204801,18.4479053 63.9725748,0 41.2598312,0 C18.7454522,0 0,18.4479053 0,42.3508364 Z M20.1340042,42.3508364 C20.1340042,30.1514151 26.8783997,17.9519939 41.2598312,17.9519939 C55.740445,17.9519939 62.286476,30.1514151 62.286476,42.3508364 C62.286476,54.5502576 56.1371742,66.7496789 41.2598312,66.7496789 C25.9857591,66.7496789 20.1340042,54.5502576 20.1340042,42.3508364 Z" id="path-1"></path>
        <path d="M88.1526099,83.3131207 L105.707875,83.3131207 L105.707875,54.5502576 C105.707875,49.491961 110.865354,44.632029 116.122015,44.632029 C121.775405,44.632029 125.246785,49.491961 125.246785,54.5502576 L125.246785,83.3131207 L142.80205,83.3131207 L142.80205,49.7895079 C142.80205,35.6064409 129.80917,30.9448734 120.486035,30.9448734 C114.931827,30.9448734 109.873531,33.8211597 105.906239,37.7884512 L105.707875,37.7884512 L105.707875,32.4326077 L88.1526099,32.4326077 L88.1526099,83.3131207 Z" id="path-2"></path>
        <path d="M202.687708,60.3028302 C202.78689,59.7077365 202.78689,58.6167314 202.78689,57.9224554 C202.78689,40.0696438 190.984198,30.9448734 175.511762,30.9448734 C160.138507,30.9448734 147.542357,43.0451124 147.542357,57.9224554 C147.542357,72.700616 160.138507,84.800855 175.511762,84.800855 C186.818542,84.800855 196.141677,81.1311104 201.89425,71.5104286 L189.198917,65.1627623 C184.934079,69.7251475 182.454522,70.8161526 176.801131,70.8161526 C172.337928,70.8161526 165.791897,68.1382309 165.791897,60.3028302 L202.687708,60.3028302 Z M166.287809,50.5829661 C166.585356,45.9213987 169.957553,42.3508364 176.007673,42.3508364 C181.165152,42.3508364 184.834896,45.2271227 185.628355,50.5829661 L166.287809,50.5829661 Z" id="path-3"></path>
        <path d="M3.6697446,93.4461142 L3.6697446,175.271501 L22.3160145,175.271501 L22.3160145,144.921721 L33.5236129,144.921721 C49.491961,144.921721 61.4930177,135.499404 61.4930177,118.638415 C61.4930177,101.678244 49.491961,93.4461142 33.5236129,93.4461142 L3.6697446,93.4461142 Z M22.3160145,130.044378 L22.3160145,108.323457 L27.5726757,108.323457 C34.9121649,108.323457 41.8549249,110.803014 41.8549249,119.233509 C41.8549249,127.564821 34.9121649,130.044378 27.5726757,130.044378 L22.3160145,130.044378 Z" id="path-4"></path>
        <path d="M58.7946531,149.880835 C58.7946531,165.551636 71.0932566,176.759235 89.4419796,176.759235 C106.997244,176.759235 119.791759,165.551636 119.791759,149.880835 C119.791759,134.011669 106.302968,122.903253 89.4419796,122.903253 C72.2834441,122.903253 58.7946531,134.011669 58.7946531,149.880835 Z M77.440923,149.880835 C77.440923,142.838893 82.6975842,137.879779 89.3427974,137.879779 C95.8888283,137.879779 101.145489,142.838893 101.145489,149.880835 C101.145489,156.823595 96.1863751,161.78271 89.3427974,161.78271 C82.2016727,161.78271 77.440923,156.823595 77.440923,149.880835 Z" id="path-5"></path>
        <path d="M134.351113,92.9502027 C140.103685,92.9502027 144.765253,97.6117702 144.765253,103.364343 C144.765253,109.116915 140.103685,113.778483 134.351113,113.778483 C128.59854,113.778483 123.936973,109.116915 123.936973,103.364343 C123.936973,97.6117702 128.59854,92.9502027 134.351113,92.9502027 Z M125.325525,124.390988 L142.880789,124.390988 L142.880789,175.271501 L125.325525,175.271501 L125.325525,124.390988 Z" id="path-6"></path>
        <path d="M152.778575,175.271501 L170.33384,175.271501 L170.33384,146.508637 C170.33384,141.450341 175.491319,136.590409 180.74798,136.590409 C186.40137,136.590409 189.87275,141.450341 189.87275,146.508637 L189.87275,175.271501 L207.428015,175.271501 L207.428015,141.747888 C207.428015,127.564821 194.435135,122.903253 185.112,122.903253 C179.557792,122.903253 174.499496,125.77954 170.532204,129.746831 L170.33384,129.746831 L170.33384,124.390988 L152.778575,124.390988 L152.778575,175.271501 Z" id="path-7"></path>
        <path d="M218.218441,124.390988 L210.878952,124.390988 L210.878952,137.780596 L218.218441,137.780596 L218.218441,157.319507 C218.218441,166.345095 221.590639,176.759235 235.575342,176.759235 C242.815648,176.759235 248.469039,173.585402 248.469039,173.585402 L244.105018,159.402335 C244.105018,159.402335 242.02219,160.989251 239.740998,160.989251 C236.963894,160.989251 235.773706,158.708059 235.773706,153.947309 L235.773706,137.780596 L246.485393,137.780596 L246.485393,124.390988 L235.773706,124.390988 L235.773706,105.447171 L218.218441,105.447171 L218.218441,124.390988 Z" id="path-8"></path>
    </defs>
    <g id="Page-1" stroke="none" stroke-width="1" fill="none" fill-rule="evenodd">
        <g id="Group-3">
            <rect id="Rectangle-Copy" fill="#FF0022" x="0" y="0" width="345" height="345" rx="32.7946768"></rect>
            <g id="One-Point" transform="translate(52.2812, 68.6453)" fill="#FFFFFF" fill-rule="nonzero">
                <g id="Shape">
                    <use xlink:href="#path-1"></use>
                    <use xlink:href="#path-1"></use>
                </g>
                <g id="Path">
                    <use xlink:href="#path-2"></use>
                    <use xlink:href="#path-2"></use>
                </g>
                <g id="Shape">
                    <use xlink:href="#path-3"></use>
                    <use xlink:href="#path-3"></use>
                </g>
                <g id="Shape">
                    <use xlink:href="#path-4"></use>
                    <use xlink:href="#path-4"></use>
                </g>
                <g id="Shape">
                    <use xlink:href="#path-5"></use>
                    <use xlink:href="#path-5"></use>
                </g>
                <g id="Shape">
                    <use xlink:href="#path-6"></use>
                    <use xlink:href="#path-6"></use>
                </g>
                <g id="Path">
                    <use xlink:href="#path-7"></use>
                    <use xlink:href="#path-7"></use>
                </g>
                <g id="Path">
                    <use xlink:href="#path-8"></use>
                    <use xlink:href="#path-8"></use>
                </g>
            </g>
        </g>
    </g>
</svg>