<svg xmlns="http://www.w3.org/2000/svg" xmlns:xlink="http://www.w3.org/1999/xlink" width="300" height="300" viewBox="0 0 300 300"><defs><linearGradient id="f" x1="41.078%" x2="73.275%" y1="48.447%" y2="32.336%"><stop offset="0%" stop-color="#4980CA"/><stop offset="100%" stop-color="#63BBEB"/></linearGradient><linearGradient id="g" x1="76.041%" x2="23.404%" y1="42.111%" y2="63.432%"><stop offset="0%" stop-color="#82C7EF"/><stop offset="100%" stop-color="#3777C5"/></linearGradient><linearGradient id="j" x1="-.002%" x2="99.998%" y1="50.001%" y2="50.001%"><stop offset="0%" stop-color="#2F67AB"/><stop offset="100%" stop-color="#2D61A2"/></linearGradient><linearGradient id="k" x1="78.785%" x2="20.715%" y1="54.136%" y2="48.484%"><stop offset="0%" stop-color="#63BBEB"/><stop offset="100%" stop-color="#3777C5"/></linearGradient><linearGradient id="l" x1="71.156%" x2="88.351%" y1="48.869%" y2="48.165%"><stop offset="0%" stop-color="#63BBEB"/><stop offset="100%" stop-color="#2D61A2"/></linearGradient><linearGradient id="m" x1="58.106%" x2="40.959%" y1="40.647%" y2="61.196%"><stop offset="0%" stop-color="#5AAAD7"/><stop offset="100%" stop-color="#2F67AB"/></linearGradient><linearGradient id="n" x1="40.818%" x2="63.035%" y1="55.868%" y2="46.035%"><stop offset="0%" stop-color="#63BBEB"/><stop offset="100%" stop-color="#2B5C99"/></linearGradient><linearGradient id="q" x1="95.873%" x2="73.56%" y1="65.382%" y2="56.53%"><stop offset="0%" stop-color="#63BBEB"/><stop offset="100%" stop-color="#2F67AB"/></linearGradient><linearGradient id="r" x1="39.431%" x2="42.603%" y1="68.003%" y2="61.155%"><stop offset="0%" stop-color="#63BBEB"/><stop offset="100%" stop-color="#2B5C99"/></linearGradient><linearGradient id="s" x1="-.001%" x2="100%" y1="49.999%" y2="49.999%"><stop offset="0%" stop-color="#AF0A55"/><stop offset="100%" stop-color="#DB4990"/></linearGradient><linearGradient id="t" x1=".006%" x2="99.999%" y1="49.997%" y2="49.997%"><stop offset="0%" stop-color="#A2094D"/><stop offset="100%" stop-color="#D73585"/></linearGradient><linearGradient id="u" x1="47.623%" x2="56.96%" y1="55.955%" y2="42.204%"><stop offset="0%" stop-color="#AF0A55"/><stop offset="100%" stop-color="#DB4990"/></linearGradient><linearGradient id="v" x1="21.797%" x2="57.749%" y1="60.211%" y2="37.742%"><stop offset="0%" stop-color="#A2094D"/><stop offset="100%" stop-color="#DB4990"/></linearGradient><linearGradient id="w" x1="82.003%" x2="100.583%" y1="66.612%" y2="76.434%"><stop offset="0%" stop-color="#DB4990"/><stop offset="100%" stop-color="#AF0A55"/></linearGradient><linearGradient id="x" x1="58.395%" x2="61.006%" y1="30.61%" y2="21.966%"><stop offset="0%" stop-color="#DB4990"/><stop offset="100%" stop-color="#AF0A55"/></linearGradient><linearGradient id="y" x1="30.71%" x2="17.087%" y1="55.195%" y2="57.763%"><stop offset="0%" stop-color="#A2094D"/><stop offset="100%" stop-color="#DF5E9C"/></linearGradient><linearGradient id="z" x1="27.644%" x2="32.182%" y1="60.511%" y2="58.61%"><stop offset="0%" stop-color="#DB4990"/><stop offset="100%" stop-color="#A2094D"/></linearGradient><linearGradient id="A" x1="44.135%" x2="16.376%" y1="49.28%" y2="50.119%"><stop offset="0%" stop-color="#A2094D"/><stop offset="100%" stop-color="#DF5E9C"/></linearGradient><linearGradient id="B" x1="56.149%" x2="33.023%" y1="48.224%" y2="57.083%"><stop offset="0%" stop-color="#A2094D"/><stop offset="100%" stop-color="#DB4990"/></linearGradient><linearGradient id="C" x1="75.126%" x2="59.394%" y1="7.43%" y2="28.251%"><stop offset="0%" stop-color="#C01F6E"/><stop offset="100%" stop-color="#D63384"/></linearGradient><linearGradient id="D" x1="52.776%" x2="46.906%" y1="13.496%" y2="76.631%"><stop offset="0%" stop-color="#DF5E9C"/><stop offset="100%" stop-color="#A2094D"/></linearGradient><linearGradient id="E" x1="52.7%" x2="72.751%" y1="54.568%" y2="88.798%"><stop offset="0%" stop-color="#DF5E9C"/><stop offset="100%" stop-color="#A2094D"/></linearGradient><linearGradient id="F" x1="35.266%" x2="38.923%" y1="57.432%" y2="55.822%"><stop offset="0%" stop-color="#DF5E9C"/><stop offset="100%" stop-color="#A2094D"/></linearGradient><linearGradient id="G" x1=".001%" x2="99.998%" y1="49.997%" y2="49.997%"><stop offset="0%" stop-color="#C01F6E"/><stop offset="100%" stop-color="#A2094D"/></linearGradient><linearGradient id="H" x1="57.129%" x2="69.65%" y1="35.701%" y2="25.975%"><stop offset="0%" stop-color="#5FB233"/><stop offset="100%" stop-color="#90C643"/></linearGradient><linearGradient id="I" x1="59.34%" x2="73.642%" y1="51.245%" y2="55.793%"><stop offset="0%" stop-color="#5FB233"/><stop offset="100%" stop-color="#90C643"/></linearGradient><linearGradient id="J" x1="48.798%" x2="74.297%" y1="48.027%" y2="38.922%"><stop offset="0%" stop-color="#5FB233"/><stop offset="100%" stop-color="#90C643"/></linearGradient><linearGradient id="K" x1="63.37%" x2="75.024%" y1="38.071%" y2="32.349%"><stop offset="0%" stop-color="#5FB233"/><stop offset="100%" stop-color="#90C643"/></linearGradient><linearGradient id="L" x1="81.337%" x2="63.232%" y1="44.604%" y2="47.48%"><stop offset="0%" stop-color="#5FB233"/><stop offset="100%" stop-color="#90C643"/></linearGradient><linearGradient id="M" x1="-.005%" x2="100.006%" y1="49.995%" y2="49.995%"><stop offset="0%" stop-color="#529B2B"/><stop offset="82.967%" stop-color="#5FB233"/><stop offset="82.967%" stop-color="#5FB233"/><stop offset="100%" stop-color="#5FB233"/></linearGradient><linearGradient id="N" x1="-.001%" x2="100.001%" y1="50.001%" y2="50.001%"><stop offset="0%" stop-color="#529B2B"/><stop offset="3.957%" stop-color="#529B2B"/><stop offset="83.093%" stop-color="#5AAB30"/><stop offset="83.093%" stop-color="#5AAB30"/><stop offset="100%" stop-color="#5AAB30"/></linearGradient><linearGradient id="O" x1="-.001%" x2="100%" y1="50.002%" y2="50.002%"><stop offset="0%" stop-color="#90C643"/><stop offset="100%" stop-color="#56A32E"/></linearGradient><linearGradient id="P" x1="24.047%" x2="79.34%" y1="28.348%" y2="66.497%"><stop offset="0%" stop-color="#56A32E"/><stop offset="50%" stop-color="#83B43C"/><stop offset="50%" stop-color="#83B43C"/><stop offset="100%" stop-color="#5AAB30"/></linearGradient><linearGradient id="Q" x1="92.797%" x2="28.335%" y1="49.648%" y2="57.441%"><stop offset="0%" stop-color="#56A32E"/><stop offset="29.855%" stop-color="#90C643"/><stop offset="66.484%" stop-color="#59A72F"/><stop offset="100%" stop-color="#90C643"/></linearGradient><linearGradient id="R" x1=".005%" x2="100.009%" y1="50%" y2="50%"><stop offset="0%" stop-color="#5FB233"/><stop offset="100%" stop-color="#90C643"/></linearGradient><linearGradient id="S" x1="46.208%" x2="67.679%" y1="51.618%" y2="30.993%"><stop offset="0%" stop-color="#56A32E"/><stop offset="49.451%" stop-color="#90C643"/><stop offset="100%" stop-color="#90C643"/></linearGradient><linearGradient id="T" x1="-212.383%" x2="22.011%" y1="374.844%" y2="86.32%"><stop offset="0%" stop-color="#5FB233"/><stop offset="100%" stop-color="#90C643"/></linearGradient><linearGradient id="U" x1="21.001%" x2="14.516%" y1="68.732%" y2="74.286%"><stop offset="0%" stop-color="#5FB233"/><stop offset="81.319%" stop-color="#9BCB52"/><stop offset="100%" stop-color="#9BCB52"/></linearGradient><radialGradient id="a" cx="54.86%" cy="65.96%" r="216.215%" fx="54.86%" fy="65.96%" gradientTransform="matrix(.3701 0 0 1 .346 0)"><stop offset="0%" stop-color="#C11566"/><stop offset="99.439%" stop-color="#AF0A55"/><stop offset="99.439%" stop-color="#AF0A55"/><stop offset="100%" stop-color="#AF0A55"/></radialGradient><radialGradient id="b" cx="50%" cy="50%" r="159.101%" fx="50%" fy="50%" gradientTransform="matrix(.2279 0 0 1 .386 0)"><stop offset="0%" stop-color="#63BBEB"/><stop offset="100%" stop-color="#3777C5"/></radialGradient><radialGradient id="c" cx="73.18%" cy="8.65%" r="195.305%" fx="73.18%" fy="8.65%" gradientTransform="matrix(.333 0 0 1 .488 0)"><stop offset="0%" stop-color="#90C643"/><stop offset="83.093%" stop-color="#5FB233"/><stop offset="83.093%" stop-color="#5FB233"/><stop offset="100%" stop-color="#5FB233"/></radialGradient><polygon id="d" points="0 215 719 215 719 0 0 0"/><polygon id="h" points="0 215 719 215 719 0 0 0"/><polygon id="o" points="0 215 719 215 719 0 0 0"/></defs><g fill="none" fill-rule="evenodd"><path fill="url(#a)" fill-rule="nonzero" d="M19.6949059,51.2707621 C19.6949059,44.2962785 26.2167326,43.4226496 29.6300466,43.4226496 L29.6300466,43.4226496 C38.6369987,43.4226496 42.6407693,47.575641 44.4167341,47.575641 L44.4167341,47.575641 C46.1911673,47.575641 43.3583541,43.352208 40.6794731,41.665438 L40.6794731,41.665438 C18.3524021,28.1751068 3.12032067e-13,16.5576033 3.12032067e-13,5.80607194 L3.12032067e-13,5.80607194 C3.12032067e-13,0.943304843 4.4923715,0.621723647 7.90874881,0.621723647 L7.90874881,0.621723647 C11.3266578,0.621723647 28.0325207,2.75870726 53.6051885,42.3874644 L53.6051885,42.3874644 C54.8060133,44.2480413 56.7795628,45.3245726 58.6704025,46.685933 L58.6704025,46.685933 C60.5604762,48.0465278 66.6565003,52.5027244 67.8642176,52.5096154 L67.8642176,52.5096154 C69.0665741,52.5172721 69.0244534,51.9889601 68.9785034,51.4483974 L68.9785034,51.4483974 C68.9111102,50.6681802 68.0947331,48.9400641 68.0947331,46.8375356 L68.0947331,46.8375356 C68.0947331,44.7311788 70.2375315,42.2902244 73.7205362,42.2902244 L73.7205362,42.2902244 C81.4906694,42.2902244 87.1608908,47.8206553 91.8125554,52.8128205 L91.8125554,52.8128205 C90.2747644,53.1366987 88.5171796,53.5233618 86.56201,53.9835292 L86.56201,53.9835292 C84.7171203,52.4162037 82.9059273,51.2416667 81.9409787,51.2186966 L81.9409787,51.2186966 C80.1619506,51.1735221 79.6136148,52.1887999 79.5370316,53.1053063 L79.5370316,53.1053063 C79.4734675,53.8541311 79.6442481,54.7009615 79.9942334,55.6121083 L79.9942334,55.6121083 C76.4553229,56.5378027 72.5189456,57.6411325 68.2509629,58.9481303 L68.2509629,58.9481303 C67.1251896,58.2513711 65.9404472,57.7207621 65.0765885,57.8402066 L65.0765885,57.8402066 C64.8062498,57.87849 64.6400642,58.1303953 65.2397108,58.9848825 L65.2397108,58.9848825 C65.3170598,59.0936075 65.5039229,59.3547009 65.7673692,59.7214566 L65.7673692,59.7214566 C62.7009772,60.6907942 59.4814187,61.7627315 56.135498,62.9426282 L56.135498,62.9426282 C49.6580895,56.9956731 42.19965,51.0334046 38.110872,51.0334046 L38.110872,51.0334046 C36.4765862,51.0334046 34.9510485,52.1237179 34.9510485,54.7354167 L34.9510485,54.7354167 C34.9510485,56.4635328 37.2339942,62.085844 41.7493407,68.4347756 L41.7493407,68.4347756 C38.3612992,69.8275285 34.8982061,71.3244124 31.376144,72.9323184 L31.376144,72.9323184 C23.3892803,64.4441061 19.6949059,56.7521902 19.6949059,51.2707621 M10.7201187,10.3824786 C10.7201187,15.1533654 27.3034485,27.6712963 29.2708713,27.6890771 L29.2708713,27.6890771 C29.7793839,27.6957977 29.9126387,27.493661 29.9157265,27.0893875 L29.9157265,27.0893875 C29.9356136,23.2671652 17.8232121,8.09312678 12.9586461,8.09312678 L12.9586461,8.09312678 C11.4177918,8.09312678 10.7201187,8.9315349 10.7201187,10.3824786 M158.416213,49.271599 C158.397833,46.4746083 159.087848,41.9931446 163.8429,41.9931446 L163.8429,41.9931446 C173.230471,41.9931446 184.910943,53.8870548 185.468469,53.9728098 L185.468469,53.9728098 C185.85598,54.0340634 185.919544,53.8732728 185.919544,53.4942664 L185.919544,53.4942664 C185.919544,53.0700855 184.597718,48.363515 170.870176,31.6987179 L170.870176,31.6987179 C157.141869,15.0316239 150.495977,8.49663462 150.495977,4.90105057 L150.495977,4.90105057 C150.495977,1.30623219 153.545521,0 154.96231,0 L154.96231,0 C156.3791,0 162.370971,0.326940883 176.643019,23.5274929 L176.643019,23.5274929 C186.830884,40.0896902 191.641076,50.3060185 197.049383,58.5377315 L197.049383,58.5377315 C187.285789,54.2859687 175.00567,51.5173077 158.416213,49.271599 M101.376268,50.7600605 C101.376268,47.4186788 102.484427,42.6332443 110.256092,42.6332443 L110.256092,42.6332443 C114.563897,42.6332443 118.497211,44.9486289 121.853854,48.3083868 L121.853854,48.3083868 C115.325135,48.8121973 108.496209,49.6904202 101.381628,51.0104345 L101.381628,51.0104345 C101.378565,50.9269765 101.376268,50.8419872 101.376268,50.7600605 M130.235121,47.8535791 C129.221159,46.3122863 128.354237,45.0037571 127.760717,44.079594 L127.760717,44.079594 C127.760717,44.079594 127.035474,43.2074964 128.125254,43.2074964 L128.125254,43.2074964 L138.293207,43.2074964 C138.728966,43.2074964 139.164724,43.5711895 139.528494,44.079594 L139.528494,44.079594 C139.652559,44.2549323 140.692559,45.8421652 142.019747,47.8780805 L142.019747,47.8780805 C138.221219,47.7433226 134.291734,47.7280093 130.235121,47.8535791" transform="matrix(1 0 0 -1 31.604 187.863)"/><path fill="url(#b)" fill-rule="nonzero" d="M175.282901,34.9629539 C175.282901,33.2218215 177.94187,32.0235487 178.827172,32.0235487 L178.827172,32.0235487 C180.188822,32.0235487 184.708763,34.9629539 184.708763,38.9926726 L184.708763,38.9926726 C184.708763,40.4650551 183.673358,42.0989938 182.149352,42.0989938 L182.149352,42.0989938 C180.0257,42.0989938 175.282901,37.305137 175.282901,34.9629539 M163.244785,20.9665152 C156.817922,13.9950943 149.081485,4.62636206 142.107051,4.62636206 L142.107051,4.62636206 C139.530026,4.62636206 138.731263,6.25953514 138.731263,7.89577089 L138.731263,7.89577089 C138.731263,9.09174668 139.669408,10.2004361 141.454562,10.7279824 L141.454562,10.7279824 C148.029997,12.665892 158.343459,21.2329682 158.343459,27.0666042 L158.343459,27.0666042 C158.343459,28.5918179 157.582222,30.236476 155.620926,30.236476 L155.620926,30.236476 C152.77203,30.236476 144.831882,28.9118678 134.94116,17.0891648 L134.94116,17.0891648 C133.832235,15.7660878 132.639068,14.8656605 131.757595,14.8656605 L131.757595,14.8656605 C130.834002,14.8656605 129.743457,16.60909 129.743457,20.0944176 L129.743457,20.0944176 C129.743457,20.464236 129.758008,20.814147 129.780217,21.1525729 L129.780217,21.1525729 C122.590584,18.5554219 115.267697,16.5363514 107.923367,15.0463585 L107.923367,15.0463585 C105.500274,10.2869568 101.629758,4.30478086 98.8589772,0.0859418324 L98.8589772,0.0859418324 C102.91559,-0.0396279681 106.845075,-0.0243145778 110.643603,0.110443257 L110.643603,0.110443257 C113.19995,4.03143685 116.823102,9.60321391 117.013795,9.89187132 L117.013795,9.89187132 C117.303279,10.3267716 117.738272,10.6169604 118.17403,10.6169604 L118.17403,10.6169604 C119.773088,10.6169604 117.813323,6.54972388 123.768434,6.54972388 L123.768434,6.54972388 C125.440246,6.54972388 127.093678,7.40421106 127.531734,7.40421106 L127.531734,7.40421106 C127.967492,7.40421106 128.021866,7.02214197 128.021866,6.6974981 L128.021866,6.6974981 C128.021866,6.04591334 127.204723,4.54443542 127.074532,2.44879796 L127.074532,2.44879796 C127.055386,2.16626591 127.044664,1.84621605 127.040069,1.50396178 L127.040069,1.50396178 C143.629526,3.74967046 155.909645,6.51833143 165.673239,10.7700943 L165.673239,10.7700943 C167.839778,14.0716612 171.009557,18.4398058 173.270294,20.6395743 L173.270294,20.6395743 C177.519897,24.7795494 178.607378,26.9586448 178.607378,27.9371705 L178.607378,27.9371705 C178.607378,29.2074162 177.84461,30.4432068 176.319838,30.4432068 L176.319838,30.4432068 C174.793534,30.4432068 169.673946,27.9371705 163.244785,20.9665152 M142.394238,15.7867609 C142.394238,17.7039974 148.808083,23.8752937 150.961603,23.8752937 L150.961603,23.8752937 C151.264107,23.8752937 151.683017,23.6348735 151.683017,23.2757745 L151.683017,23.2757745 C151.683017,20.8195066 145.272236,15.0096064 143.232825,15.0096064 L143.232825,15.0096064 C142.813914,15.0096064 142.394238,15.3066861 142.394238,15.7867609 M-1.2887183e-13,25.1646811 C3.52206214,23.5567752 6.98515521,22.0598913 10.3731967,20.6671384 L10.3731967,20.6671384 C10.9452734,21.4733884 11.5556416,22.2918891 12.2020039,23.1157495 L12.2020039,23.1157495 C8.546687,24.3591968 5.03611234,25.6409276 1.70091325,26.9241897 L1.70091325,26.9241897 C1.11122248,26.3330928 0.548335833,25.748887 -1.2887183e-13,25.1646811 M24.759354,15.174991 C28.1052748,13.9950943 31.3248332,12.9231569 34.3912252,11.9538193 L34.3912252,11.9538193 C35.0130809,12.8190259 36.0875435,14.3036591 37.3235966,16.0011484 L37.3235966,16.0011484 C34.1921088,16.6963763 31.0996785,17.4628115 28.063154,18.2774839 L28.063154,18.2774839 C27.0078373,17.2660344 25.8996781,16.2201299 24.759354,15.174991 M40.0193258,13.6130252 C39.5085158,13.113043 38.2349369,12.0242609 36.8748189,11.1804931 L36.8748189,11.1804931 C41.1428016,9.87349525 45.079179,8.77016548 48.6180894,7.84447103 L48.6180894,7.84447103 C49.2636859,9.5281783 50.5288407,11.426273 52.0842458,13.3151797 L52.0842458,13.3151797 C48.5499303,13.8067396 45.0339949,14.4108528 41.5571168,15.1053151 L41.5571168,15.1053151 C41.0547309,14.6221776 40.543155,14.1275551 40.0193258,13.6130252 M93.0516718,12.7393962 C90.6033064,8.27707431 87.1248967,4.19069611 82.9419214,4.1807424 L82.9419214,4.1807424 C81.6392409,4.17691405 80.8090788,4.88209568 80.7700213,6.11712061 L80.7700213,6.11712061 C80.7217739,7.62012987 81.7449257,9.80228799 83.1257211,11.9576477 L83.1257211,11.9576477 C79.2207429,11.7654646 75.3471638,11.7103364 71.5203004,11.7846064 L71.5203004,11.7846064 C71.2928483,10.6292111 70.0705801,6.27255152 70.0054844,3.24279725 L70.0054844,3.24279725 C77.1200652,1.922783 83.9489907,1.04456007 90.4777099,0.540749525 L90.4777099,0.540749525 C94.1092861,4.17461705 97.0669299,9.03049311 99.0894927,13.5088941 L99.0894927,13.5088941 C97.0738224,13.214877 95.0612154,12.9583777 93.0516718,12.7393962 M55.1858661,6.21589197 C57.1410356,5.7557246 58.8986204,5.36906149 60.4364114,5.04518329 L60.4364114,5.04518329 C63.0731716,7.87280081 65.3821556,10.531971 67.5601823,11.9101762 L67.5601823,11.9101762 C65.2351158,12.0127759 62.9291951,12.1605501 60.6470153,12.3550302 L60.6470153,12.3550302 C59.763245,10.6437588 57.449666,8.13542545 55.1858661,6.21589197" transform="matrix(1 0 0 -1 62.98 140.095)"/><path fill="url(#c)" fill-rule="nonzero" d="M12.9708994,26.1334663 C7.86892553,22.4245632 3.56035375,18.7370988 3.26426647e-13,15.1713759 L3.26426647e-13,15.1713759 C3.3351991,13.8881138 6.84577376,12.606383 10.5010907,11.3629357 L10.5010907,11.3629357 C12.4677477,13.8728004 14.7675417,16.4293709 17.3997069,18.8542462 L17.3997069,18.8542462 C27.6955546,28.3309378 39.6264539,32.9601757 47.0351143,32.9601757 L47.0351143,32.9601757 C50.1405638,32.9601757 53.8579131,32.3476401 54.4070148,32.2695418 L54.4070148,32.2695418 C54.7883992,32.215945 54.9162932,32.2886836 55.0794154,32.5597306 L55.0794154,32.5597306 C55.3061017,32.9372056 60.858385,42.8051544 60.858385,42.8051544 L60.858385,42.8051544 C60.9464557,42.9483346 60.8966766,43.07467 60.7626559,43.1175475 L60.7626559,43.1175475 C60.6294011,43.160425 59.6560285,43.508039 57.6357632,43.508039 L57.6357632,43.508039 C49.3234208,43.508039 31.2045975,39.3856743 12.9708994,26.1334663 M65.5023912,33.9945952 C65.5023912,28.7666038 68.6346448,21.6037655 81.7916415,17.2203075 L81.7916415,17.2203075 C82.117886,17.1108167 82.4441305,17.0702363 82.4441305,16.7976579 L82.4441305,16.7976579 C82.4441305,16.2394848 76.2347632,7.85234096 70.6227451,6.87151831 L70.6227451,6.87151831 C69.9794461,6.75743355 69.5337318,7.3064186 69.5337318,7.90593783 L69.5337318,7.90593783 C69.5337318,8.50545706 70.4060146,10.2481209 70.4060146,12.9172448 L70.4060146,12.9172448 C70.4060146,15.5856031 69.5881058,19.3435091 64.5221261,19.3435091 L64.5221261,19.3435091 C59.6292243,19.3435091 54.022567,17.0051544 39.8562036,3.35250122 L39.8562036,3.35250122 C43.3330816,2.65803897 46.8490171,2.05392572 50.3833326,1.56236589 L50.3833326,1.56236589 C54.7914625,6.9120988 61.5399756,12.1760767 63.2470155,12.2189542 L63.2470155,12.2189542 C64.3015664,12.2465183 64.7357932,11.7986016 64.7740848,11.3399656 L64.7740848,11.3399656 C64.9333779,9.45565293 62.2246295,8.13870136 60.5451596,6.92511518 L60.5451596,6.92511518 C58.5838634,5.50939224 57.9505202,5.06453826 58.1473391,3.8754535 L58.1473391,3.8754535 C58.2576189,3.2223374 59.2034216,3.04699908 59.3190623,1.89390079 L59.3190623,1.89390079 C59.3527589,1.56083455 59.21108,1.11674623 58.946102,0.602216319 L58.946102,0.602216319 C61.2282819,0.407736262 63.5342026,0.259962045 65.859269,0.15736233 L65.859269,0.15736233 C66.844895,0.781382985 67.8014194,1.14431034 68.7495196,1.14431034 L68.7495196,1.14431034 C69.5528776,1.14431034 69.8561471,0.792102358 69.8561471,0.28293213 L69.8561471,0.28293213 C69.8561471,0.238523299 69.8438938,0.150471304 69.8193872,0.0317925294 L69.8193872,0.0317925294 C73.6462505,-0.0424774137 77.5198296,0.0126507915 81.4248078,0.20483384 L81.4248078,0.20483384 C83.4527314,3.3655176 86.2533797,6.46571347 87.5920543,7.27349481 L87.5920543,7.27349481 C89.8443667,8.63332387 91.0765907,9.97324552 91.0513182,10.7381494 L91.0513182,10.7381494 C91.0275774,11.5030532 89.4223932,12.532113 89.2608026,13.2817035 L89.2608026,13.2817035 C89.0739396,14.1538011 89.7769735,14.6231565 91.3415686,14.228071 L91.3415686,14.228071 C93.5816277,13.6614756 95.2082552,13.5902683 95.2618635,11.9433132 L95.2618635,11.9433132 C95.3047501,10.5980318 93.8772389,5.59131888 91.3507586,0.986582415 L91.3507586,0.986582415 C93.3603022,1.2055639 95.3729091,1.46206318 97.3885794,1.75608028 L97.3885794,1.75608028 C99.329964,6.04842358 100.412851,9.99162159 100.412851,12.170717 L100.412851,12.170717 C100.412851,12.6446665 100.56908,13.2181529 101.437534,13.2181529 L101.437534,13.2181529 C102.306754,13.2181529 104.724486,12.9578253 105.793587,12.8513972 L105.793587,12.8513972 C106.959184,12.7342498 108.484722,11.790945 108.484722,9.61184951 L108.484722,9.61184951 C108.484722,8.24053541 107.579508,5.95807458 106.222453,3.29354467 L106.222453,3.29354467 C113.566784,4.78353754 120.889671,6.80260806 128.079304,9.39975905 L128.079304,9.39975905 C128.3887,14.0090895 130.656329,15.8895739 130.656329,17.4040682 L130.656329,17.4040682 C130.656329,18.4407847 130.230526,18.8542462 129.00979,18.8542462 L129.00979,18.8542462 C126.232116,18.8542462 120.794708,12.2097662 119.815974,12.2097662 L119.815974,12.2097662 C119.019509,12.2097662 118.103574,15.2517712 117.202189,16.4577006 L117.202189,16.4577006 C115.892616,18.2011301 114.094442,18.6367961 108.974854,18.6367961 L108.974854,18.6367961 C106.414677,18.6367961 104.94428,18.4170489 102.655973,18.4170489 L102.655973,18.4170489 C100.050612,18.4170489 99.4410096,18.5273053 98.9516429,19.6712156 L98.9516429,19.6712156 C98.4607444,20.8135945 90.8338219,40.9124193 73.4563241,40.9124193 L73.4563241,40.9124193 C69.5881058,40.9124193 65.5023912,39.2225867 65.5023912,33.9945952 M74.219093,31.5398588 C74.219093,33.8529464 75.7913464,35.1875083 78.0099622,35.1875083 L78.0099622,35.1875083 C88.5370912,35.1875083 93.7868707,20.214841 93.7868707,19.2654108 L93.7868707,19.2654108 C93.7868707,18.7906957 93.5058103,18.5250083 92.7476365,18.5250083 L92.7476365,18.5250083 C88.9023931,18.5250083 74.219093,24.2468566 74.219093,31.5398588 M34.7228305,14.8237619 C33.5449807,13.6852113 30.3361439,10.3400012 26.3622407,6.52467002 L26.3622407,6.52467002 C29.3987653,5.70999766 32.4911956,4.94356247 35.6226833,4.24833455 L35.6226833,4.24833455 C38.4409457,8.11573128 42.085541,13.0634877 43.0581479,14.1691145 L43.0581479,14.1691145 C44.6380596,15.9661408 45.4552025,16.8390041 45.4552025,17.4385233 L45.4552025,17.4385233 C45.4552025,18.1283915 44.4749374,18.690393 43.2756442,18.690393 L43.2756442,18.690393 C42.2410049,18.690393 37.9921681,17.981383 34.7228305,14.8237619" transform="matrix(1 0 0 -1 64.68 128.342)"/><g transform="matrix(1 0 0 -1 0 244)"><mask id="e" fill="#fff"><use xlink:href="#d"/></mask><g mask="url(#e)"><path fill="#63BBEB" fill-rule="nonzero" d="M3.43705477,2.98304843 C2.66892511,2.23192664 1.30344635,1.13395655 0,0.390491453 C0.428100182,0.257264957 0.851605372,0.128632479 1.2735789,0 C2.83587652,1.03135684 4.11481624,2.24417735 4.13779121,2.26638177 C4.75122278,2.86743234 5.34321104,3.44015313 5.92677515,4.00062322 C5.52701076,4.07872151 5.1280122,4.15758547 4.72977947,4.23951211 C4.30550845,3.82987892 3.87587661,3.4133547 3.43705477,2.98304843" transform="translate(99.211 114.894)"/></g></g><path fill="url(#f)" fill-rule="nonzero" d="M6.56547918,10.0800392 L4.37519918,6.71721866 C3.10315195,4.76323006 1.37773207,2.11248219 -6.58001686e-14,0 L-6.58001686e-14,0 C0.40972021,0.0130163818 0.818674588,0.0283297721 1.22533147,0.0428774929 L1.22533147,0.0428774929 C2.36259224,1.78783832 3.75870428,3.93247863 5.21455124,6.1712963 L5.21455124,6.1712963 L7.39947041,9.52416311 C7.6039476,9.82889957 7.89572966,10.027208 8.14462512,10.027208 L8.14462512,10.027208 C8.26639243,10.027208 8.32459567,9.96748575 8.50992706,9.29675926 L8.50992706,9.29675926 C8.85531737,8.04948362 9.43198899,5.96073718 13.7382633,5.96073718 L13.7382633,5.96073718 C14.926069,5.96073718 16.0824755,6.35352564 16.8483077,6.61385328 L16.8483077,6.61385328 C17.0857157,6.69424858 17.3652444,6.78842593 17.4747584,6.80603632 L17.4747584,6.80603632 C17.4824167,6.76775285 17.4877776,6.70956197 17.4877776,6.60772792 L17.4877776,6.60772792 C17.4877776,6.43698362 17.3667761,6.05721154 17.2381163,5.6537037 L17.2381163,5.6537037 C16.979265,4.84898504 16.6262164,3.74642094 16.5427407,2.3911859 L16.5427407,2.3911859 C16.5220632,2.05888533 16.5098099,1.70897436 16.5082782,1.34681268 L16.5082782,1.34681268 C16.8429469,1.39198718 17.1791472,1.43486467 17.5115184,1.48157051 L17.5115184,1.48157051 C17.5168792,1.78783832 17.526835,2.07573006 17.5421517,2.32763533 L17.5421517,2.32763533 C17.6195007,3.55959758 17.9503402,4.59325142 18.1923432,5.34820157 L18.1923432,5.34820157 C18.3654212,5.88876425 18.4917835,6.28002137 18.4917835,6.60772792 L18.4917835,6.60772792 C18.4917835,7.69804131 17.7979396,7.81595442 17.5000309,7.81595442 L17.5000309,7.81595442 C17.2695154,7.81595442 16.9731384,7.71488604 16.5243607,7.56328348 L16.5243607,7.56328348 C15.8220926,7.32439459 14.7598834,6.96223291 13.7382633,6.96223291 L13.7382633,6.96223291 C10.1955237,6.96223291 9.7965251,8.40551994 9.47640726,9.56474359 L9.47640726,9.56474359 C9.2964367,10.217094 9.07128204,11.0294694 8.14462512,11.0294694 L8.14462512,11.0294694 C7.55187102,11.0294694 6.96218025,10.6741987 6.56547918,10.0800392" transform="matrix(1 0 0 -1 173.01 140.005)"/><path fill="url(#g)" fill-rule="nonzero" d="M12.1862464,8.99739944 C11.1715188,7.18888805 9.97605474,5.45158392 8.61287348,4.040455 L8.61287348,4.040455 C6.66995726,2.02904118 4.6711353,1.00687238 2.67307918,1.00151269 L2.67307918,1.00151269 C2.0665401,0.999981352 1.04415415,1.18680471 1.00356505,2.45398776 L1.00356505,2.45398776 C0.956083453,3.93326127 2.03820431,6.1452805 3.46494964,8.30829688 L3.46494964,8.30829688 C3.0544636,8.28685813 2.64397755,8.26695073 2.23502318,8.24704332 L2.23502318,8.24704332 C0.908601859,6.11618506 -0.0479225198,3.96924773 0.00185657116,2.4202983 L0.00185657116,2.4202983 C0.0493381656,0.92418007 1.07325578,-0.00457705259 2.67537667,0 L2.67537667,0 C4.95602487,0.00614232063 7.19531813,1.13167651 9.33428738,3.34446141 L9.33428738,3.34446141 C10.8950533,4.96002409 12.2620638,7.01201839 13.3993245,9.12986027 L13.3993245,9.12986027 C12.9949651,9.08315443 12.5906058,9.04027694 12.1862464,8.99739944" transform="matrix(1 0 0 -1 143.246 136.415)"/><g transform="matrix(1 0 0 -1 0 244)"><mask id="i" fill="#fff"><use xlink:href="#h"/></mask><g mask="url(#i)"><g transform="translate(72.868 108.83)"><path fill="#3777C5" fill-rule="nonzero" d="M0,0.254202279 C0.327776168,0.169212963 0.651723176,0.0834579772 0.972606854,-1.27509589e-16 C1.57991176,1.55813746 2.78839493,3.43479345 4.5352581,5.52047721 C4.14621536,5.5733084 3.75640679,5.6261396 3.36736405,5.68126781 C1.99039781,3.98148148 0.68159063,2.06041667 0,0.254202279" transform="translate(38.245 2.793)"/><path fill="#63BBEB" fill-rule="nonzero" d="M-6.39755942e-14,0.375178063 C0.354580294,0.249608262 0.70992642,0.124038462 1.06144339,0 C2.17036837,1.02446581 3.28312251,2.0772614 4.39051582,3.14230769 C4.01678973,3.24184473 3.64306363,3.3406161 3.27086919,3.4409188 C2.22397662,2.43865741 1.12500746,1.4065349 -6.39755942e-14,0.375178063" transform="translate(14.338 10.064)"/><path fill="#63BBEB" fill-rule="nonzero" d="M5.53620075,6.33055556 C5.18468378,5.70270655 4.58886636,4.86659544 3.66297526,3.81839387 C2.5425628,2.54891382 1.23528729,1.30546652 0,0.285594729 C0.414315203,0.188354701 0.819440421,0.0934116809 1.21614148,0 C2.41849799,1.0474359 3.56418291,2.19134615 4.41425662,3.15532407 C5.48871915,4.3727386 6.21932304,5.40026709 6.61219495,6.23637821 C6.25378549,6.26547365 5.89537604,6.29763177 5.53620075,6.33055556" transform="translate(44.682 1.149)"/><path fill="#4980CA" fill-rule="nonzero" d="M1.28123722,1.62168803 C0.863092854,1.16994302 0.435758504,0.708244302 0,0.241185897 C0.394403567,0.15772792 0.778851316,0.0758012821 1.14491909,0 C1.44053031,0.317752849 1.73154653,0.63167735 2.01720193,0.941773504 C4.44795324,3.57337963 6.62980909,5.93623575 8.64011853,6.94845085 C8.05042776,6.97065527 7.46150282,6.99668803 6.87410955,7.02501781 C5.10044224,5.75247507 3.27086919,3.77551638 1.28123722,1.62168803" transform="translate(49.974)"/><path fill="#2F67AB" fill-rule="nonzero" d="M-6.33042191e-14,0.39585114 C0.320883679,0.263390313 0.641001525,0.130929487 0.96035354,0 C1.54315182,0.816203704 2.16424171,1.64312678 2.81979405,2.47464387 C2.48053039,2.5894943 2.14433007,2.70434473 1.80736392,2.81919516 C1.17095739,2.00452279 0.566715805,1.19444444 -6.33042191e-14,0.39585114" transform="translate(0 15.546)"/></g></g></g><path fill="url(#j)" fill-rule="nonzero" d="M19.6106643,19.1708333 C19.6106643,13.5079416 9.30026586,5.14606481 3.08170865,3.31228632 L3.08170865,3.31228632 C1.15181158,2.74339387 -6.48442092e-14,1.5045406 -6.48442092e-14,0 L-6.48442092e-14,0 L1.00170848,0 C1.00170848,1.03595085 1.8854788,1.91493946 3.36659821,2.35137108 L3.36659821,2.35137108 C9.86391833,4.26784188 20.6131387,12.9222044 20.6131387,19.1708333 L20.6131387,19.1708333 L19.6106643,19.1708333 L19.6106643,19.1708333 Z" transform="matrix(1 0 0 -1 201.209 132.2)"/><path fill="url(#k)" fill-rule="nonzero" d="M5.31640692,3.04583333 C4.26185602,1.78477564 3.18892515,1.0022614 2.51805617,1.0022614 L2.51805617,1.0022614 C2.00571445,1.0022614 1.00324014,2.42946937 1.00324014,5.72950499 L1.00324014,5.72950499 C1.00324014,6.16823362 1.02162011,6.5832265 1.0545509,6.97678063 L1.0545509,6.97678063 C0.712223917,6.8519765 0.369131105,6.7264067 0.0268041259,6.60389957 L0.0268041259,6.60389957 C0.00995581819,6.32060185 0,6.03194444 0,5.72950499 L0,5.72950499 C0,1.79243234 1.30574385,0 2.51805617,0 L2.51805617,0 C3.87281328,0 5.33402106,1.50530627 6.08453658,2.40267094 L6.08453658,2.40267094 C7.34279883,3.90644587 8.56966197,5.23717949 9.75670183,6.4147792 L9.75670183,6.4147792 L9.33089914,7.41014957 C8.03511111,6.14066952 6.69567065,4.69355413 5.31640692,3.04583333" transform="matrix(1 0 0 -1 192.219 125.73)"/><path fill="url(#l)" fill-rule="nonzero" d="M0,0.99537037 L0.425802686,0 C8.73355005,8.23860399 15.1098687,8.95527066 17.0497216,8.95527066 L17.0497216,8.95527066 C19.1634184,8.95527066 19.269869,6.73176638 19.269869,6.28614672 L19.269869,6.28614672 L20.2723433,6.28614672 C20.2723433,8.11379986 19.2752299,9.95676638 17.0497216,9.95676638 L17.0497216,9.95676638 C14.4772913,9.95676638 8.1515176,8.99049145 0,0.99537037" transform="matrix(1 0 0 -1 201.55 119.315)"/><path fill="url(#m)" fill-rule="nonzero" d="M0,1.28019943 C0,0.479309117 0.682356462,0 1.34097213,0 L1.34097213,0 C3.69896938,0 10.2912527,6.00897436 10.2912527,8.76997863 L10.2912527,8.76997863 C10.2912527,9.41850071 9.64795366,9.86948006 9.07051621,9.86948006 L9.07051621,9.86948006 C6.69720232,9.86948006 0,3.52820513 0,1.28019943 M1.00247431,1.28019943 C1.00247431,2.98304843 7.26085479,8.86798433 9.07051621,8.86798433 L9.07051621,8.86798433 C9.14709942,8.86798433 9.27116424,8.7983084 9.2918417,8.75389957 L9.2918417,8.75389957 C9.28877838,6.60772792 3.12765858,1.00302707 1.34097213,1.00302707 L1.34097213,1.00302707 C1.20005901,1.00302707 1.00247431,1.08954772 1.00247431,1.28019943" transform="matrix(1 0 0 -1 204.87 125.588)"/><path fill="url(#n)" fill-rule="nonzero" d="M0,3.44245014 C0,1.3713141 2.87723146,0 4.04206219,0 L4.04206219,0 C5.58597984,0 10.4275708,3.10019587 10.4275708,7.4721688 L10.4275708,7.4721688 C10.4275708,9.21330128 9.19687851,11.0784722 7.36653963,11.0784722 L7.36653963,11.0784722 C4.8875409,11.0784722 0,6.01127137 0,3.44245014 M1.00247431,3.44245014 C1.00247431,5.42553419 5.46344669,10.0762108 7.36653963,10.0762108 L7.36653963,10.0762108 C8.57885195,10.0762108 9.42433067,8.70336538 9.42433067,7.4721688 L9.42433067,7.4721688 C9.42433067,3.75407764 5.16706964,1.0022614 4.04206219,1.0022614 L4.04206219,1.0022614 C3.29767332,1.0022614 1.00247431,2.10023148 1.00247431,3.44245014" transform="matrix(1 0 0 -1 237.762 108.573)"/><g transform="matrix(1 0 0 -1 0 244)"><mask id="p" fill="#fff"><use xlink:href="#o"/></mask><g mask="url(#p)"><g transform="translate(62.49 103.973)"><path fill="#72C1ED" fill-rule="nonzero" d="M0,0.0375178063 C0.393637735,0.023735755 0.784977973,0.0107193732 1.17478655,-3.93154566e-16 C4.02291638,4.33904915 7.89496383,10.3464922 10.2721069,15.1081909 C9.85626001,15.0216702 9.44117898,14.9366809 9.02533211,14.8547543 C6.52489008,10.0348647 2.60612687,4.00215456 0,0.0375178063" transform="translate(98.76)"/><path fill="#63BBEB" fill-rule="nonzero" d="M0,0.482277492 C0.317054518,0.321518328 0.634874868,0.158220861 0.951163554,0 C1.50639188,0.648113261 2.08995599,1.30468753 2.69113424,1.9646462 C2.35033893,2.10848335 2.01337277,2.2523205 1.67564079,2.39615764 C1.09896916,1.75312099 0.535316686,1.11431484 0,0.482277492" transform="translate(0 24.887)"/><path fill="#326CB3" fill-rule="nonzero" d="M2.90250392,4.32603276 C1.65189999,2.60787037 0.582032448,1.12859687 0,0.318518519 C0.33543449,0.212090456 0.673166476,0.104131054 1.00553764,0 C1.65879248,0.905787037 2.74167916,2.4011396 3.97160563,4.08790954 C3.61472784,4.16600783 3.25861588,4.24563746 2.90250392,4.32603276" transform="translate(34.379 11.728)"/><path fill="#63BBEB" fill-rule="nonzero" d="M1.26362308,7.60998932 C0.839352057,5.83899573 0.0696907274,2.6170584 0,0.188354701 C0.333136993,0.125569801 0.667039819,0.0612535613 0.998645148,0 C1.03234176,2.33376068 1.81349058,5.60163818 2.2377616,7.37646011 C2.39475719,8.03034188 2.48129623,8.39709758 2.52188533,8.62832977 C2.18185585,8.63445513 1.84412386,8.64134615 1.50486021,8.64823718 C1.45201779,8.39786325 1.3570546,8.00201211 1.26362308,7.60998932" transform="translate(69.996 3.081)"/><path fill="#4980CA" fill-rule="nonzero" d="M8.69602428,12.9344551 C7.75251904,10.8839922 6.61602411,8.7607906 5.30721693,6.71798433 C4.0757588,4.79462251 2.26762905,2.30619658 -6.57511938e-14,0.106428063 C0.425802686,0.0719729345 0.856200365,0.0313924501 1.27893972,0 C4.90745254,3.72574786 7.85896972,8.61148504 9.86774749,13.1074964 C9.47793892,13.0477742 9.08659868,12.9895833 8.69602428,12.9344551" transform="translate(90.296 .421)"/></g></g></g><path fill="url(#q)" fill-rule="nonzero" d="M24.6467767,17.1545169 L22.6571447,14.9769528 C16.6890146,8.41439934 9.92441908,0.976685661 3.8781741,0.976685661 L3.8781741,0.976685661 C1.50179688,0.976685661 1.00170848,2.48122626 1.00170848,3.74381529 L1.00170848,3.74381529 L0,3.74381529 C0,1.57007954 1.2306923,0.206422129 3.32217995,0.00351970699 L3.32217995,0.00351970699 C5.48642166,-0.0416547944 6.87870454,0.341945633 9.26580341,1.50652897 L9.26580341,1.50652897 C14.0882486,4.06616216 18.9581753,9.42048908 23.3992361,14.3031636 L23.3992361,14.3031636 L25.3827414,16.475368 C31.809605,23.4452576 36.7997674,25.7905033 38.0886629,25.7905033 L38.0886629,25.7905033 L38.0886629,26.7919991 C36.3272489,26.7919991 31.120356,24.176472 24.6467767,17.1545169" transform="matrix(1 0 0 -1 201.209 135.943)"/><path fill="url(#r)" fill-rule="nonzero" d="M11.4660392,19.5230413 C12.7013265,19.5230413 13.2534915,18.5161859 13.2534915,17.5177528 L13.2534915,17.5177528 C13.2534915,17.0767272 12.8789996,15.2682158 8.0657444,10.5792557 L8.0657444,10.5792557 C5.65107557,8.22711895 2.33042729,3.60553775 0,0 L0,0 C0.571310798,0.244248575 1.13266578,0.487731481 1.68100161,0.731214387 L1.68100161,0.731214387 C3.67522858,3.70813746 6.70103148,7.84964387 8.76494917,9.86182336 L8.76494917,9.86182336 C12.3574679,13.3601674 14.2567317,16.0086182 14.2567317,17.5177528 L14.2567317,17.5177528 C14.2567317,19.0131054 13.2986756,20.524537 11.4660392,20.524537 L11.4660392,20.524537 L11.4660392,19.5230413 Z" transform="matrix(1 0 0 -1 227.831 129.675)"/><path fill="url(#s)" fill-rule="nonzero" d="M0.014348677,2.34603609 C0.140710985,0.834604462 1.23125599,-0.0420871337 2.93063758,0.00155602872 L2.93063758,0.00155602872 C4.16132987,0.0306514703 6.22218424,1.45326543 8.14059382,3.12472198 L8.14059382,3.12472198 C7.74312692,3.21813366 7.33800171,3.31307668 6.9236865,3.41108238 L6.9236865,3.41108238 C5.21817826,2.00301614 3.64975398,1.02142782 2.90536511,1.00152042 L2.90536511,1.00152042 C1.73211023,0.973190644 1.0957037,1.45326543 1.01299383,2.42949406 L1.01299383,2.42949406 C0.957088077,3.09103252 1.11255201,3.87890646 1.45947398,4.76861443 L1.45947398,4.76861443 C1.1385903,4.85283808 0.814643293,4.9378274 0.487632957,5.02281671 L0.487632957,5.02281671 C0.133052663,4.08257455 -0.0553420503,3.17372483 0.014348677,2.34603609" transform="matrix(1 0 0 -1 110.626 137.146)"/><path fill="url(#t)" fill-rule="nonzero" d="M0.499534019,1.94857091 C0.0377372216,1.29086079 -0.0962834079,0.831459083 0.0660730119,0.460875037 L0.0660730119,0.460875037 C0.170992019,0.220454809 0.393083348,0.0596642109 0.677207083,0.0213807351 L0.677207083,0.0213807351 C1.80221454,-0.134815846 3.27184647,0.587976177 4.55155202,1.43327532 L4.55155202,1.43327532 C4.1295785,1.56114213 3.70683914,1.69054028 3.27797313,1.82300111 L3.27797313,1.82300111 C2.47691268,1.36513074 1.69806136,1.03972119 1.09764894,1.01368843 L1.09764894,1.01368843 C1.14436471,1.10403743 1.20869461,1.21505951 1.31974027,1.3735531 L1.31974027,1.3735531 C1.39785515,1.48457518 1.61764899,1.79237432 1.94083016,2.23875965 L1.94083016,2.23875965 C1.60769317,2.34365638 1.27072701,2.45161578 0.934526691,2.55804384 L0.934526691,2.55804384 C0.716264523,2.25330737 0.562332257,2.03891991 0.499534019,1.94857091" transform="matrix(1 0 0 -1 95.933 130.538)"/><path fill="url(#u)" fill-rule="nonzero" d="M19.0470119,20.5972756 C17.736673,20.5857906 12.6638007,16.9588141 8.71440425,13.606713 L8.71440425,13.606713 C5.45961753,10.842646 3.12962052e-13,5.76472578 3.12962052e-13,2.78856838 L3.12962052e-13,2.78856838 C3.12962052e-13,0.989245014 0.972606854,0 2.73938167,0 L2.73938167,0 C5.00241573,0 8.22120833,2.75564459 10.522534,5.06873219 L10.522534,5.06873219 C15.1014445,9.67040598 20.2110768,16.8186966 20.1980824,19.4985399 L20.1980824,19.4985399 C20.1957601,19.7274751 20.164361,20.0605413 19.9101047,20.3124466 L19.9101047,20.3124466 C19.7155834,20.5030983 19.4421813,20.5980413 19.0745818,20.5980413 L19.0745818,20.5980413 C19.0653918,20.5980413 19.0562019,20.5980413 19.0470119,20.5972756 M1.00247431,2.78856838 C1.00247431,7.20877849 17.1622989,19.5444801 19.0562019,19.5957799 L19.0562019,19.5957799 C19.0562019,19.5957799 19.1350826,19.5865919 19.1863933,19.5827635 L19.1863933,19.5827635 C19.1902225,19.542183 19.1948175,19.4947115 19.1948175,19.4947115 L19.1948175,19.4947115 L19.1948175,19.4855235 C19.1948175,17.3248041 14.5538745,10.5409722 9.81260758,5.77621083 L9.81260758,5.77621083 C6.79369717,2.74262821 4.21514026,1.00149573 2.73938167,1.00149573 L2.73938167,1.00149573 C1.53779099,1.00149573 1.00247431,1.55277778 1.00247431,2.78856838" transform="matrix(1 0 0 -1 41.823 180.269)"/><path fill="url(#v)" fill-rule="nonzero" d="M0,4.20505698 C0,1.10103276 1.97278367,0 3.6614436,0 L3.6614436,0 C7.82986809,0 14.935259,5.50363248 22.2144937,12.2246795 L22.2144937,12.2246795 C21.8629768,12.3487179 21.5076306,12.4735221 21.1530503,12.5990919 L21.1530503,12.5990919 C14.7958775,6.77464387 7.56489016,1.0022614 3.6614436,1.0022614 L3.6614436,1.0022614 C1.99575863,1.0022614 1.00170848,2.19976852 1.00170848,4.20505698 L1.00170848,4.20505698 C1.00170848,5.94848647 3.33596493,11.4972934 7.77625984,17.7068732 L7.77625984,17.7068732 C7.456142,17.837037 7.13602415,17.9702635 6.8159063,18.1027244 L6.8159063,18.1027244 C2.30285733,11.741542 0,6.08400997 0,4.20505698" transform="matrix(1 0 0 -1 66.053 137.33)"/><path fill="url(#w)" fill-rule="nonzero" d="M-7.09499719e-14,0 L1.00170848,0 C1.00170848,10.2086717 17.7611797,21.1248219 41.4384128,35.4321225 L41.4384128,35.4321225 L40.913052,36.2843127 C16.9601192,21.8116275 -7.09499719e-14,10.7331553 -7.09499719e-14,0" transform="matrix(1 0 0 -1 31.103 182.056)"/><path fill="url(#x)" fill-rule="nonzero" d="M-6.64045937e-14,8.34809473 C-6.64045937e-14,3.04277066 3.80388838,0 10.435995,0 L10.435995,0 L10.435995,1.00149573 C6.91240116,1.00149573 1.00247431,1.95628561 1.00247431,8.34809473 L1.00247431,8.34809473 C1.00247431,13.344854 4.27717266,20.9571403 12.6431233,29.8006232 L12.6431233,29.8006232 C12.3268346,29.9438034 12.0090142,30.0915776 11.6919597,30.2370548 L11.6919597,30.2370548 C3.29078083,21.2618768 -6.64045937e-14,13.4887999 -6.64045937e-14,8.34809473" transform="matrix(1 0 0 -1 50.798 144.94)"/><path fill="#AF0A55" fill-rule="nonzero" d="M11.3082778,0 C13.5284253,1.39811254 16.1981162,4.75404202 15.7952885,6.14756054 C15.6704578,6.58016382 15.2929026,6.83742877 14.7859217,6.83742877 C14.118116,6.83742877 13.3155239,6.42167023 12.2050673,5.84588675 C9.9274824,4.66292735 6.1159357,2.68596866 -6.66108071e-14,2.68596866 L-6.66108071e-14,1.68370726 C6.36023616,1.68370726 10.308101,3.73263889 12.6660982,4.95617877 C13.6141985,5.4477386 14.4045373,5.85354345 14.7859217,5.85354345 C14.8402958,5.85354345 14.8609732,5.81296296 14.8609732,5.7517094 C14.8609732,5.02891738 13.0666285,2.29088319 10.7821511,0.852190171" transform="matrix(1 0 0 -1 61.233 146.625)"/><path fill="url(#y)" fill-rule="nonzero" d="M6.12742318,1.0022614 C2.7830341,1.0022614 1.00247431,3.35286681 1.00247431,5.04805912 L1.00247431,5.04805912 L-6.65430883e-14,5.04805912 C-6.65430883e-14,2.61169872 2.46215042,0 6.12742318,0 L6.12742318,0 C14.2199717,0 20.0678662,5.81755698 24.7907531,10.9016026 L24.7907531,10.9016026 C24.4246854,10.9774038 24.0402376,11.0593305 23.645834,11.1427885 L23.645834,11.1427885 C19.1289559,6.3144765 13.5682485,1.0022614 6.12742318,1.0022614" transform="matrix(1 0 0 -1 99.197 146.072)"/><path fill="url(#z)" fill-rule="nonzero" d="M59.3236573,47.2915776 L58.877943,46.9722934 L57.7184731,46.1660434 C56.1630679,45.1040598 54.6926702,44.1002671 53.684835,42.5375356 L53.684835,42.5375356 C28.172668,3.00601852 11.494375,1.00302707 8.40960305,1.00302707 L8.40960305,1.00302707 C3.96318147,1.00302707 1.00170848,1.79855769 1.00170848,5.68509615 L1.00170848,5.68509615 L0,5.68509615 C0,0 5.6801772,0 8.40960305,0 L8.40960305,0 C10.2560244,0 15.3955241,0.596456553 23.2376455,6.11310541 L23.2376455,6.11310541 C33.1245388,13.0684473 43.6501361,25.1415242 54.5264846,41.9946759 L54.5264846,41.9946759 C55.4255716,43.3874288 56.8140253,44.3353276 58.2836572,45.3391204 L58.2836572,45.3391204 L59.4638046,46.1583868 L59.9095189,46.4799679 C66.0951453,50.9453526 67.8190335,51.8105591 68.364306,51.8886574 L68.364306,51.8886574 C68.8100204,51.9514423 68.9134077,51.8450142 68.9524651,51.8159188 L68.9524651,51.8159188 L69.6600941,52.5241631 C69.3422737,52.8472756 69.0420675,52.8909188 68.364306,52.8909188 L68.364306,52.8909188 C67.438415,52.8909188 64.9035105,51.3205306 59.3236573,47.2915776" transform="matrix(1 0 0 -1 31.103 187.742)"/><path fill="url(#A)" fill-rule="nonzero" d="M0,8.62832977 C0,2.98457977 3.24406507,0 9.3799124,0 L9.3799124,0 C13.9205313,0 18.06981,2.51752137 21.5865113,6.12612179 L21.5865113,6.12612179 C21.1630062,6.15751425 20.7326085,6.19732906 20.3068058,6.23178419 L20.3068058,6.23178419 C17.3583519,3.37277422 13.6333443,1.0022614 9.3799124,1.0022614 L9.3799124,1.0022614 C3.74338764,1.0022614 1.00324014,3.49681268 1.00324014,8.62832977 L1.00324014,8.62832977 C1.00324014,8.67886396 1.00477181,8.73246083 1.00553764,8.78529202 L1.00553764,8.78529202 C0.674698141,8.84654558 0.340795315,8.91009615 0.00689248952,8.97288105 L0.00689248952,8.97288105 C0.00382916084,8.85649929 0,8.74011752 0,8.62832977" transform="matrix(1 0 0 -1 132.478 145.731)"/><path fill="url(#B)" fill-rule="nonzero" d="M14.383094,5.15065883 C13.1592942,3.27323718 12.2096623,1.82305912 12.0970849,1.66456553 L12.0970849,1.66456553 C11.7486313,1.17606838 11.4415326,1.00379274 11.2692204,1.00379274 L11.2692204,1.00379274 L1.10050083,1.00379274 L1.08977918,1.00379274 C1.10279832,1.02140313 1.11275414,1.04054487 1.12500746,1.05432692 L1.12500746,1.05432692 L1.1403241,1.075 L2.8282182,3.65300926 C3.13378523,4.11777066 3.46002974,4.61315883 3.79776173,5.12922009 L3.79776173,5.12922009 C3.40795315,5.13917379 3.01584708,5.15295584 2.62297518,5.16597222 L2.62297518,5.16597222 C2.40318135,4.83137464 2.19028,4.50902778 1.99116364,4.20505698 L1.99116364,4.20505698 C1.99116364,4.20505698 0.339263651,1.67758191 0.323947007,1.65537749 L0.323947007,1.65537749 C0.228217986,1.53516738 0,1.20975783 0,0.839939459 L0,0.839939459 C0,0.729683048 0.0214433007,0.61636396 0.0735198882,0.50534188 L0.0735198882,0.50534188 C0.180736392,0.274875356 0.446480154,0 1.10050083,0 L1.10050083,0 L11.2692204,0 C11.8389995,0 12.4080128,0.375178063 12.9119304,1.08112536 L12.9119304,1.08112536 C13.045951,1.26794872 14.0997361,2.87815171 15.6084254,5.19353632 L15.6084254,5.19353632 C15.2017686,5.1789886 14.7928142,5.16367521 14.383094,5.15065883" transform="matrix(1 0 0 -1 158.626 145.156)"/><path fill="url(#C)" fill-rule="nonzero" d="M0.000765832169,7.7133547 C0.000765832169,7.69038462 0,7.66971154 0,7.64750712 L0,7.64750712 C0,5.59474715 0.379086924,3.18059117 1.8640355,1.59948362 L1.8640355,1.59948362 C2.86191481,0.53826567 4.22892524,0 5.92830682,0 L5.92830682,0 L5.92830682,1.00302707 C4.51687813,1.00302707 3.39569984,1.434099 2.59540522,2.28628917 L2.59540522,2.28628917 C1.23911645,3.72957621 0.987923498,6.13530983 1.00400597,7.84811254 L1.00400597,7.84811254 C0.671634812,7.8014067 0.33543449,7.7585292 0.000765832169,7.7133547" transform="matrix(1 0 0 -1 189.517 146.372)"/><path fill="url(#D)" fill-rule="nonzero" d="M1.53826823,5.46458333 L1.08521,5.10165598 C1.17330466,5.02891738 1.1897619,4.92402066 1.18201731,4.79538818 L1.18201731,4.79538818 C1.17330466,4.66522436 1.12102871,4.52893519 1.08714615,4.40642806 L1.08714615,4.40642806 C1.05229551,4.28392094 0.934190588,3.88041311 0.760905495,3.41641738 L0.760905495,3.41641738 C0.439505209,2.55503917 -6.59250669e-14,1.37667379 -6.59250669e-14,0 L-6.59250669e-14,0 L1.26720775,0 C1.26720775,1.23196225 1.66024545,2.28628917 1.9758373,3.13235399 L1.9758373,3.13235399 C2.1849411,3.69358974 2.29336529,4.03278134 2.37081114,4.43475783 L2.37081114,4.43475783 L2.39598104,4.70733618 C2.40275755,5.10165598 2.36597077,5.49827279 1.97970959,5.80760328 L1.97970959,5.80760328 L1.53826823,5.46458333 Z" transform="matrix(1 0 0 -1 99.197 141.025)"/><path fill="url(#E)" fill-rule="nonzero" d="M20.488308,30.5019765 C16.8368202,26.0702813 13.7512824,22.4287571 11.0272174,19.2183048 L11.0272174,19.2183048 C3.45696641,10.2852386 -7.14755386e-14,6.20957977 -7.14755386e-14,3.38655627 L-7.14755386e-14,3.38655627 C-7.14755386e-14,1.95628561 0.45567014,0.836876781 1.11505164,0 L1.11505164,0 L1.74609734,0.825391738 C1.30268052,1.46855413 1.00247431,2.30925926 1.00247431,3.38655627 L1.00247431,3.38655627 C1.00247431,5.84129274 4.60801216,10.0961182 11.7938154,18.5690171 L11.7938154,18.5690171 C14.5171146,21.7840634 17.6064816,25.4271189 21.2610327,29.8657051 L21.2610327,29.8657051 C26.1554661,35.8057692 29.4699877,40.2213853 31.7138759,43.4739494 L31.7138759,43.4739494 L30.6746417,43.7358084 C28.4621526,40.5552172 25.2234483,36.2506232 20.488308,30.5019765" transform="matrix(1 0 0 -1 181.596 186.348)"/><path fill="url(#F)" fill-rule="nonzero" d="M45.1197681,58.6878027 C42.5741419,54.7476674 41.0011227,51.7010684 37.8987365,46.2004986 L37.8987365,46.2004986 C34.3498703,39.9089922 30.3284855,32.7798433 25.1078077,24.2939281 L25.1078077,24.2939281 C12.6423574,4.02895299 6.44141437,1.00379274 3.85366747,1.00379274 L3.85366747,1.00379274 C3.13378523,1.00379274 1.56459512,1.48386752 0.631045707,2.84139957 L0.631045707,2.84139957 L-7.17224284e-14,2.01600783 C1.10050083,0.618660969 2.77078079,0 3.85366747,0 L3.85366747,0 C8.75193002,0 16.3964667,8.21946225 25.9617105,23.7671474 L25.9617105,23.7671474 C31.1931101,32.2714387 35.2190898,39.40901 38.7717852,45.7081731 L38.7717852,45.7081731 C42.2103716,51.8059651 44.0139064,55.2614316 46.8007697,59.4197828 L46.8007697,59.4197828 C46.2524338,59.1762999 45.6910789,58.932817 45.1197681,58.6878027" transform="matrix(1 0 0 -1 182.712 188.364)"/><path fill="url(#G)" fill-rule="nonzero" d="M21.5558781,12.9742699 C21.350635,12.911485 21.1607087,12.8111823 19.9897513,11.7989672 L19.9897513,11.7989672 C16.5756715,8.84577991 7.50592109,1.00302707 -6.65798451e-14,1.00302707 L-6.65798451e-14,1.00302707 L-6.65798451e-14,0 C7.87811552,0 17.1546406,8.02115385 20.6460694,11.0401887 L20.6460694,11.0401887 C20.9807381,11.3296118 21.2924318,11.5983618 21.5214156,11.7874822 L21.5214156,11.7874822 C21.3131093,11.1412571 20.4247439,8.92923789 16.8306936,3.75943732 L16.8306936,3.75943732 L17.8699278,3.49757835 C22.5039783,10.2117343 22.5836248,11.9788996 22.5836248,12.0041667 L22.5836248,12.0041667 C22.5836248,12.2047721 22.5836248,12.5761218 22.3002669,12.8180734 L22.3002669,12.8180734 C22.1302522,12.9635506 21.9288383,13.001834 21.7733744,13.001834 L21.7733744,13.001834 C21.6776454,13.001834 21.5995305,12.9872863 21.5558781,12.9742699" transform="matrix(1 0 0 -1 195.44 146.372)"/><path fill="url(#H)" fill-rule="nonzero" d="M3.11081027,10.4996261 C3.11081027,8.30904558 1.98963197,4.31990741 0,0 L0,0 C0.390574406,0.0551282051 0.781914644,0.113319088 1.17172322,0.172275641 L1.17172322,0.172275641 C3.05873368,4.39111467 4.11405041,8.26310541 4.11405041,10.4996261 L4.11405041,10.4996261 C4.11405041,10.9230413 4.2304569,11.0463141 4.63558212,11.0463141 L4.63558212,11.0463141 C5.36235685,11.0463141 7.28919058,10.8503027 8.44100216,10.7323896 L8.44100216,10.7323896 L8.9418564,10.6818554 C9.77355014,10.5983974 11.1819155,9.92767094 11.1819155,7.94075855 L11.1819155,7.94075855 C11.1819155,6.59164886 10.216967,4.24180912 8.79328496,1.49764957 L8.79328496,1.49764957 C9.208366,1.58034188 9.62421287,1.6653312 10.0400597,1.75108618 L10.0400597,1.75108618 C11.3320186,4.33981481 12.1843898,6.56102208 12.1843898,7.94075855 L12.1843898,7.94075855 C12.1843898,10.293661 10.5554648,11.5279202 9.04141458,11.6787571 L9.04141458,11.6787571 L8.54285784,11.7292913 C7.2968489,11.8563925 5.41290177,12.0478098 4.63558212,12.0478098 L4.63558212,12.0478098 C3.6805894,12.0478098 3.11081027,11.4689637 3.11081027,10.4996261" transform="matrix(1 0 0 -1 161.481 126.67)"/><path fill="url(#I)" fill-rule="nonzero" d="M0,13.5171296 C0,5.75017806 15.0524313,0 19.0301636,0 L19.0301636,0 C20.369604,0 20.5702521,0.778685897 20.5702521,1.24191595 L20.5702521,1.24191595 C20.5702521,2.23192664 15.3380867,17.6647614 4.29172347,17.6647614 L4.29172347,17.6647614 C1.68483077,17.6647614 0,16.0361823 0,13.5171296 M1.00247431,13.5171296 C1.00247431,15.4573362 2.26303406,16.6625 4.29172347,16.6625 L4.29172347,16.6625 C14.2835358,16.6625 19.4927262,2.24188034 19.5677777,1.23196225 L19.5677777,1.23196225 C19.5677777,1.12400285 19.5677777,1.0022614 19.0301636,1.0022614 L19.0301636,1.0022614 C15.4966139,1.0022614 1.00247431,6.62380698 1.00247431,13.5171296" transform="matrix(1 0 0 -1 138.397 110.318)"/><path fill="url(#J)" fill-rule="nonzero" d="M0,0.254549325 C0.588159106,0.212690103 1.17631821,0.174224871 1.76677481,0.141416292 L1.76677481,0.141416292 C2.43381463,0.636938977 3.08094282,0.915246239 3.71198852,0.915246239 L3.71198852,0.915246239 C4.31776177,0.915246239 4.31776177,0.607524389 4.31776177,0.383520983 L4.31776177,0.383520983 C4.31546427,0.329217127 4.29861596,0.200245469 4.27410933,0.030545919 L4.27410933,0.030545919 C4.61337298,0.0192326157 4.95110497,0.00905064266 5.29036862,0 L5.29036862,0 C5.31028026,0.167436889 5.32023608,0.289620565 5.32023608,0.383520983 L5.32023608,0.383520983 C5.32023608,0.855285732 5.20459542,2.39615764 3.71198852,2.39615764 L3.71198852,2.39615764 C2.47976456,2.39615764 1.25443309,1.58159981 0,0.254549325" transform="matrix(1 0 0 -1 129.717 128.317)"/><path fill="url(#K)" fill-rule="nonzero" d="M8.29932321,14.2805021 C7.97690787,13.9696403 7.85973555,13.5155983 7.97078121,13.0025997 L7.97078121,13.0025997 C8.07493439,12.5125712 8.50762956,12.0585292 8.96636303,11.5769231 L8.96636303,11.5769231 C9.25661342,11.2729523 9.74215102,10.7630164 9.74904351,10.5486289 L9.74904351,10.5486289 C9.76206266,10.1405271 8.90050147,8.95986467 6.53101674,7.52882835 L6.53101674,7.52882835 C5.07287229,6.64907407 2.080766,3.34521011 -6.43505235e-14,0 L-6.43505235e-14,0 C0.408954378,0.0199074074 0.819440421,0.0398148148 1.22992646,0.0612535613 L1.22992646,0.0612535613 C3.19428598,3.04047365 5.81419783,5.92628205 7.05025095,6.67204416 L7.05025095,6.67204416 C9.39982404,8.09082977 10.7844486,9.55249288 10.7515178,10.580787 L10.7515178,10.580787 C10.732372,11.1780093 10.2269228,11.7070869 9.6916061,12.2683226 L9.6916061,12.2683226 C9.39829238,12.5768875 8.99623049,12.9987714 8.94951472,13.2123932 L8.94951472,13.2123932 C8.91428644,13.3785434 8.92960309,13.4956909 8.99546465,13.5584758 L8.99546465,13.5584758 C9.13484611,13.6939993 9.59128208,13.7774573 10.4160833,13.5691952 L10.4160833,13.5691952 L11.4223868,13.3303063 C13.3155239,12.8984687 13.9289555,12.6817842 13.9588229,11.7537927 L13.9588229,11.7537927 C13.9955829,10.580787 12.5787934,5.43012821 9.9512232,0.750356125 L9.9512232,0.750356125 C10.3555826,0.793233618 10.759942,0.836111111 11.1643014,0.882816952 L11.1643014,0.882816952 C13.621091,5.45386396 15.0072472,10.3311788 14.9605314,11.7859509 L14.9605314,11.7859509 C14.903094,13.5638355 13.3944046,13.9083868 11.6460098,14.3080662 L11.6460098,14.3080662 L10.6626813,14.5400641 C10.2246253,14.6510862 9.85779168,14.695495 9.55145881,14.695495 L9.55145881,14.695495 C8.8989698,14.695495 8.51835121,14.4910613 8.29932321,14.2805021" transform="matrix(1 0 0 -1 145.481 128.168)"/><path fill="url(#L)" fill-rule="nonzero" d="M8.57732029,8.80519943 L6.74008892,6.96682692 C5.11422722,5.32370014 2.72942585,2.91337251 -6.35907256e-14,0.298611111 L-6.35907256e-14,0.298611111 C0.371428602,0.197542735 0.7451547,0.0987713675 1.11964663,0 L1.11964663,0 C3.27623002,2.07496439 5.41213594,4.19969729 7.45307867,6.26241097 L7.45307867,6.26241097 L9.27422756,8.08547009 C12.4432411,11.1481481 16.6154947,11.8112179 17.4785876,11.8112179 L17.4785876,11.8112179 C18.4611503,11.8112179 19.15576,11.38474 19.15576,11.0577991 L19.15576,11.0577991 L20.1574685,11.0600962 C20.1574685,12.1511752 18.8103697,12.8127137 17.4785876,12.8127137 L17.4785876,12.8127137 C16.4738158,12.8127137 12.0205017,12.1335648 8.57732029,8.80519943" transform="matrix(1 0 0 -1 90.478 121.964)"/><path fill="url(#M)" fill-rule="nonzero" d="M9.86238667,13.3042735 C9.86238667,12.9474715 9.07128204,12.0501068 7.97614204,10.8074252 L7.97614204,10.8074252 L7.59016262,10.3694623 C6.58539082,9.22631766 2.83587652,4.13231838 -6.38658394e-14,0.23735755 L-6.38658394e-14,0.23735755 C0.355346126,0.156196581 0.711458085,0.0765669516 1.06833588,0 L1.06833588,0 C3.86285746,3.83217593 7.4063629,8.64211182 8.34374148,9.70792379 L8.34374148,9.70792379 L8.72895506,10.1443554 C10.1947578,11.8089209 10.8640951,12.5692308 10.8640951,13.3065705 L10.8640951,13.3065705 L9.86238667,13.3042735 L9.86238667,13.3042735 Z" transform="matrix(1 0 0 -1 99.771 124.21)"/><path fill="url(#N)" fill-rule="nonzero" d="M7.06480176,8.03034188 C4.36524336,5.5457443 2.01107528,2.92026353 -6.30011158e-14,0.344551282 L-6.30011158e-14,0.344551282 C0.336200322,0.229700855 0.673166476,0.114084758 1.01166429,0 L1.01166429,0 C2.94845385,2.45550214 5.1946396,4.94699074 7.74256323,7.29300214 L7.74256323,7.29300214 C11.5816799,10.8258013 15.5931088,13.6442308 19.4820045,15.7980591 L19.4820045,15.7980591 L19.0301636,16.6870014 C15.0593238,14.4933583 10.96978,11.6243946 7.06480176,8.03034188" transform="matrix(1 0 0 -1 74.676 117.15)"/><path fill="url(#O)" fill-rule="nonzero" d="M0,0.238888889 C0.398232728,0.15772792 0.797231288,0.0780982906 1.19699568,0 L1.19699568,0 C14.7101043,12.9911147 20.3251858,15.6066417 25.2609741,15.6066417 L25.2609741,15.6066417 C27.4129625,15.6066417 28.925481,14.8823184 29.787808,13.4474537 L29.787808,13.4474537 C30.3568213,12.4995548 30.6424767,11.2430912 30.6424767,9.68112536 L30.6424767,9.68112536 C30.6424767,7.94075855 30.2587948,6.61308761 30.0037727,5.734099 L30.0037727,5.734099 C29.8636254,5.25172721 29.7709597,4.93320869 29.7709597,4.67058405 L29.7709597,4.67058405 C29.7709597,4.18821225 29.9769686,3.7272792 30.3223589,3.43785613 L30.3223589,3.43785613 L30.9671896,4.20429131 C30.8477198,4.30535969 30.773434,4.48299501 30.773434,4.67058405 L30.773434,4.67058405 C30.773434,4.79079416 30.8722264,5.12922009 30.9656579,5.4553953 L30.9656579,5.4553953 C31.2367625,6.38874644 31.644951,7.79910969 31.644951,9.68112536 L31.644951,9.68112536 C31.644951,11.1550392 31.3975873,12.4107372 30.919708,13.4313746 L30.919708,13.4313746 C29.9471011,15.504042 28.0187357,16.6081375 25.2609741,16.6081375 L25.2609741,16.6081375 C20.0104287,16.6081375 14.1257744,13.8877137 0,0.238888889" transform="matrix(1 0 0 -1 103.941 125.105)"/><path fill="url(#P)" fill-rule="nonzero" d="M12.2586755,10.3222923 C11.3856269,8.86139486 5.93290181,1.87925454 0.952695218,1.0086883 L0.952695218,1.0086883 C0.832459567,0.988015228 0.730603889,1.01328232 0.644830686,1.08525526 L0.644830686,1.08525526 L-6.35934818e-14,0.318054401 C0.313225357,0.0546640879 0.713755581,-0.0502326357 1.12653912,0.0225059683 L1.12653912,0.0225059683 C6.95681942,1.04084642 13.3622397,9.53365269 13.3622397,10.4417367 L13.3622397,10.4417367 L12.2586755,10.3222923 Z" transform="matrix(1 0 0 -1 134.263 121.986)"/><path fill="url(#Q)" fill-rule="nonzero" d="M16.4539041,5.43855057 C15.6191471,4.65603632 14.6005903,3.70277778 14.2306934,3.52207977 L14.2306934,3.52207977 C13.9473355,3.71579416 13.4319304,4.8022792 13.1164076,5.4730057 L13.1164076,5.4730057 C12.7564664,6.23637821 12.3850378,7.02501781 11.9982926,7.54107906 L11.9982926,7.54107906 C10.5975856,9.40931268 8.74350587,9.92001425 3.37119321,9.92001425 L3.37119321,9.92001425 C2.04094273,9.92001425 1.00324014,9.86258903 -6.32431296e-14,9.80592949 L-6.32431296e-14,9.80592949 L0.0551399162,8.80519943 C1.04536091,8.8610933 2.06927852,8.91851852 3.37119321,8.91851852 L3.37119321,8.91851852 C8.40883721,8.91851852 10.0178506,8.51118234 11.1964663,6.94002849 L11.1964663,6.94002849 C11.521945,6.50589387 11.8719303,5.76319444 12.2088964,5.04576211 L12.2088964,5.04576211 C12.8805312,3.61855413 13.4120188,2.4914886 14.2123134,2.4914886 L14.2123134,2.4914886 C14.7323134,2.4914886 15.3534033,3.03281695 17.1400898,4.70733618 L17.1400898,4.70733618 C19.0202077,6.47143875 21.8614451,9.13596866 23.4061286,9.13596866 L23.4061286,9.13596866 C24.4468945,9.13596866 24.5518135,8.86262464 24.5518135,8.18883547 L24.5518135,8.18883547 C24.5518135,7.73479345 24.243949,7.14675926 23.8549062,6.40176282 L23.8549062,6.40176282 C23.1549356,5.0610755 22.1302522,3.09024217 21.9625349,0 L21.9625349,0 C22.3048619,0.122507123 22.6479547,0.248076923 22.9902817,0.372881054 L22.9902817,0.372881054 C23.2070122,2.99453348 24.0808267,4.66981838 24.7440374,5.93776709 L24.7440374,5.93776709 C25.1966442,6.80450499 25.5542878,7.48901353 25.5542878,8.18883547 L25.5542878,8.18883547 C25.5542878,8.7431802 25.4340522,9.17425214 25.1912834,9.48894231 L25.1912834,9.48894231 C24.8481905,9.92767094 24.2607973,10.1382301 23.4061286,10.1382301 L23.4061286,10.1382301 C21.464744,10.1382301 18.6863049,7.5326567 16.4539041,5.43855057" transform="matrix(1 0 0 -1 170.283 119.125)"/><path fill="url(#R)" fill-rule="nonzero" d="M-6.21775561e-14,1.91165777 C0.641767357,0.0724397875 1.67717245,0 4.16536117,0 L4.16536117,0 L7.1681891,0.127945599 L7.11304918,1.35848121 L4.16536117,1.23053561 C1.52094269,1.23053561 1.27204723,1.39234916 0.922061931,2.39615764 L0.922061931,2.39615764 L-6.21775561e-14,1.91165777 L-6.21775561e-14,1.91165777 Z" transform="matrix(1 0 0 -1 163.17 110.424)"/><path fill="url(#S)" fill-rule="nonzero" d="M13.4334621,11.2362001 C11.6666873,11.1917913 6.10444822,6.88183761 1.9092196,2.35673077 L1.9092196,2.35673077 C1.72541988,2.15842236 1.54544932,1.9616453 1.36854209,1.76410256 L1.36854209,1.76410256 C0.918998603,1.26258903 0.456435973,0.724323362 -6.41899936e-14,0.161556268 L-6.41899936e-14,0.161556268 C0.389042742,0.104896724 0.778851316,0.0535968661 1.16789406,0 L1.16789406,0 C1.4688661,0.359864672 1.78209146,0.723557692 2.11446262,1.09567308 L2.11446262,1.09567308 C2.46291625,1.48386752 2.81826238,1.86746795 3.17743767,2.24417735 L3.17743767,2.24417735 C7.44082535,6.70956197 12.2854797,10.2048433 13.4587345,10.2339387 L13.4587345,10.2339387 C14.0522545,10.2492521 14.451253,10.0846332 14.4734622,9.81511752 L14.4734622,9.81511752 C14.4772913,9.77759972 14.478823,9.74008191 14.478823,9.70332977 L14.478823,9.70332977 C14.478823,8.51807336 12.9019745,7.48059117 11.5050967,6.56255342 L11.5050967,6.56255342 L10.4505458,5.84741809 L10.4000009,5.81066595 C8.65084018,4.54960826 7.80919063,3.940901 7.80919063,2.79086538 L7.80919063,2.79086538 C7.80919063,2.64002849 7.82374144,2.4815349 7.85207723,2.30925926 L7.85207723,2.30925926 C7.92483128,1.8735933 8.20512586,1.59795228 8.45248965,1.35600071 L8.45248965,1.35600071 C8.68070763,1.13165954 8.88212149,0.931054131 8.97402135,0.595690883 L8.97402135,0.595690883 L9.99487563,0.595690883 C9.87617165,1.35523504 9.46338811,1.76869658 9.15475775,2.07190171 L9.15475775,2.07190171 C8.97172386,2.24953704 8.85914653,2.3659188 8.84153239,2.47464387 L8.84153239,2.47464387 C8.70444843,3.29084758 8.98397717,3.55270655 10.9858625,4.9982906 L10.9858625,4.9982906 L11.0371732,5.03504274 L12.05573,5.72491097 C13.7290733,6.82594373 15.6252737,8.0724537 15.4728731,9.89934117 L15.4728731,9.89934117 C15.4192649,10.5233618 14.8778215,11.2377315 13.5307228,11.2377315 L13.5307228,11.2377315 C13.4993236,11.2377315 13.4663929,11.2369658 13.4334621,11.2362001" transform="matrix(1 0 0 -1 114.481 126.857)"/><path fill="url(#T)" fill-rule="nonzero" d="M0.622675793,2.39615764 C0.656333944,2.28176821 0.684813918,2.16135828 0.699053905,2.02529505 L0.699053905,2.02529505 C0.702937537,1.99398847 0.702937537,1.96388599 0.702937537,1.93257941 L0.702937537,1.93257941 C0.702937537,1.56171682 0.493221366,0.966891753 0,0.149308316 L0,0.149308316 C0.607141262,0.0963279455 1.21169343,0.0469598734 1.8188347,0 L1.8188347,0 C2.25380157,0.858522814 2.44927775,1.5906152 2.38455054,2.18062387 L2.38455054,2.18062387 C2.37807782,2.25768622 2.3599542,2.32391169 2.3483033,2.39615764 L2.3483033,2.39615764 L0.622675793,2.39615764 L0.622675793,2.39615764 Z" transform="matrix(1 0 0 -1 123.087 127.785)"/><path fill="url(#U)" fill-rule="nonzero" d="M0.576671623,20.4349537 C0.196818867,19.5222756 0,18.4771368 0,17.3163818 L0,17.3163818 C0,12.9436432 2.16117838,4.88803419 16.6308114,0.0658475783 L16.6308114,0.0658475783 L16.8130794,0.00918803419 C16.8130794,0.00918803419 16.8352886,0.00153133903 16.8406494,0 L16.8406494,0 L17.9442135,0.118678775 C17.9442135,0.718198006 17.3935802,0.882051282 17.0987348,0.970103276 L17.0987348,0.970103276 L16.9478659,1.01604345 C3.07405033,5.63992165 1.00247431,13.2131588 1.00247431,17.3163818 L1.00247431,17.3163818 C1.00247431,18.4334936 1.19622985,19.3584224 1.52477185,20.1233262 L1.52477185,20.1233262 C2.90250392,23.3253561 6.64665739,23.7326923 8.45478714,23.7326923 L8.45478714,23.7326923 C23.7201198,23.7326923 31.4152014,7.85040954 33.41096,2.98304843 L33.41096,2.98304843 L33.4883091,2.79469373 L34.410371,3.18901353 L34.3383828,3.36282051 C32.2828892,8.3764245 24.3435071,24.734188 8.45478714,24.734188 L8.45478714,24.734188 C4.48394735,24.734188 1.71393239,23.1745192 0.576671623,20.4349537" transform="matrix(1 0 0 -1 129.681 111.663)"/></g></svg>