<svg xmlns="http://www.w3.org/2000/svg" width="300" height="300" viewBox="0 0 300 300"><g transform="translate(11 127)"><path d="M223.426289 43.9982476 223.426289 26.8009231 246.536305 26.8009231C246.536305 26.7417783 246.516502 44.0021905 246.536305 43.9982476 246.516502 44.0021905 257.86358 43.9982476 257.982397 43.9982476 257.982397 43.9982476 258.022003 1.04929487 257.982397 1L246.536305 1 246.536305 19.9263305C246.536305 19.8671858 223.426289 19.9263305 223.426289 19.9263305 223.446092 19.8474709 223.426289.986207126 223.426289 1L212 1C212 1 212.059409 43.9982476 212 43.9982476L223.426289 43.9982476ZM116 44 116 36.6894085 98.6592751 36.6894085 98.6592751 1 87.3407249 1 87.3407249 36.6894085 70 36.6894085C70 36.6894085 70.0196162 43.9842274 70 44 70.0196162 43.9842274 116 44 116 44" transform="matrix(1 0 0 -1 0 45)"/><path d="M127.321917,1.00729779 L127.780287,1.00792091 C127.861335,1.00800921 127.94462,1.00808994 128.030005,1.00816336 L131.777198,1.008153 C131.893484,1.00809282 132.010245,1.0080288 132.127345,1.00796122 L133.186732,1.00726496 C133.304645,1.00717867 133.42249,1.0070897 133.540132,1.00699832 L134.589761,1.00611892 C134.704963,1.00601574 134.819556,1.00591102 134.933403,1.00580506 L135.606455,1.0051566 C135.716779,1.00504679 135.826085,1.00493632 135.93424,1.00482545 L136.568259,1.00415799 C136.671264,1.00404674 136.772845,1.00393569 136.872868,1.00382512 L137.453216,1.00316975 C137.546463,1.00306225 137.637879,1.0029558 137.72733,1.0028507 L138.239371,1.00223852 C138.320419,1.00213994 138.399231,1.00204329 138.475671,1.00194884 L139.095934,1.00116619 C139.156923,1.00108758 139.215134,1.00101205 139.270431,1.00093987 L139.968693,1 L160,43.9938671 L147.360029,43.9938671 C147.364843,43.9938671 147.144473,43.4397314 146.808923,42.6028734 L146.63206,42.1621408 C145.550307,39.4684256 143.644703,34.7544239 143.644703,34.7544239 L122.355297,34.7544239 C122.355297,34.7544239 118.698944,44.0076661 118.659629,43.9938671 C118.659629,43.9958384 118.401269,43.9972465 117.958366,43.998212 L117.592741,43.998855 C117.526421,43.998949 117.457506,43.9990365 117.38614,43.9991179 L112.329814,43.9990417 C112.216782,43.9989801 112.10375,43.9989163 111.990861,43.9988506 L110.982653,43.998212 C110.871927,43.9981365 110.761778,43.9980599 110.65235,43.9979821 L109.383042,43.9970157 C109.281688,43.9969336 109.181631,43.9968514 109.083016,43.9967693 L108.238301,43.9960417 C108.149634,43.9959627 108.062841,43.9958846 107.978067,43.9958076 L107.273489,43.9951506 C107.202123,43.9950823 107.133207,43.9950159 107.066887,43.9949514 L106.184543,43.9940632 C106.154555,43.9940318 106.128026,43.9940038 106.105103,43.9939795 L106,43.9938671 L126.050965,1 C126.050965,1.00367529 126.534747,1.00598013 127.321917,1.00729779 Z M133,9 L125,29 L141,29 L133,9 Z"/><polygon points="267 44 278 44 278 1 267 1"/><path d="M11.4411666,43.9982476 C11.4411666,43.9982476 11.4213722,26.6747476 11.4411666,26.8009231 L34.5412383,26.8009231 C34.5412383,26.7417783 34.5016495,44.0021905 34.5412383,43.9982476 C34.5016495,44.0021905 45.8636385,43.9982476 45.982405,43.9982476 C45.982405,43.9982476 46.0219938,1.04929487 45.982405,1 L34.5412383,1 L34.5412383,19.9263305 C34.5412383,19.8671858 11.4411666,19.9263305 11.4411666,19.9263305 C11.4411666,19.8474709 11.4213722,0.986207126 11.4411666,1 L0,1 C0,1 0.0593832178,43.9982476 0,43.9982476 L11.4411666,43.9982476 Z" transform="matrix(1 0 0 -1 0 45)"/><polygon points="55 44 66 44 66 1 55 1"/><path d="M1.52009744,12.9245489 C0.526187576,15.8165494 -9.91099204e-14,18.8638647 -9.91099204e-14,22.0723929 C-9.91099204e-14,26.5765215 0.77953715,30.9390974 2.92326431,34.5722836 C5.12545676,38.3018044 8.51644336,41.1800428 12.6090134,42.7095985 C16.4872107,44.1880379 20.6772229,45 25.0816078,45 C30.1291108,45 34.9037759,43.8852724 39.2886724,41.9821748 C43.3422655,40.218664 46.4019488,36.5323955 47.317905,32.0754511 C47.5127893,31.1946787 47.6492083,30.27262 47.7076736,29.3525274 L35.8976857,29.3525274 C35.8587089,30.5085412 35.683313,31.6330989 35.2935445,32.649526 C34.3970767,35.0205339 32.4287454,36.8744812 30.0121803,37.6058369 C28.453106,38.0993053 26.7771011,38.3548866 25.0816078,38.3548866 C23.1327649,38.3548866 21.2423873,38.022631 19.5079172,37.3895758 C16.6236297,36.3672506 14.3824604,34.0060728 13.3495737,31.0944122 C12.3556638,28.283018 11.8099878,25.2376687 11.8099878,22.0723929 C11.8099878,19.4458037 12.2387333,16.919481 12.8818514,14.542575 C13.7393423,11.4225174 16.0779537,8.90799074 19.0401949,7.76180698 C20.911084,7.05404343 22.9573691,6.63921534 25.0816078,6.63921534 C26.8940317,6.63921534 28.6285018,6.91445673 30.2850183,7.44921141 C32.4872107,8.16483901 34.2801462,9.80252523 35.2155907,11.9081218 C35.819732,13.3059548 36.1315469,14.8551706 36.1315469,16.5105509 L48,16.5105509 C47.9220463,15.1087859 47.727162,13.7286469 47.4348356,12.4389445 C46.4019488,8.19432915 43.4591961,4.62798724 39.5615104,2.97850496 C35.0986602,1.09703351 30.226553,0 25.0816078,0 C21.1059683,0 17.2472594,0.62912316 13.6613886,1.76940889 C8.16565164,3.51129363 3.41047503,7.50229368 1.52009744,12.9245489" transform="matrix(1 0 0 -1 159 45)"/></g></svg>