<svg xmlns="http://www.w3.org/2000/svg" width="300" height="300" viewBox="0 0 300 300"><g fill="none" fill-rule="evenodd" transform="matrix(1 0 0 -1 15 207)"><polyline fill="#ED1C24" points="0 10.461 270 10.461 270 0 0 0 0 10.461"/><path fill="#727375" fill-rule="nonzero" d="M.000424010955 100.661721 2.27057867 100.661721C7.41510358 100.661721 11.5865234 96.5034491 11.5865234 91.3741948L11.5865234 39.0705115C11.5865234 33.9412572 7.41510358 29.7829851 2.27057867 29.7829851L.000424010955 29.7829851.000424010955 17.7072139 59.0944068 17.7072139 59.0944068 29.7829851 56.8242522 29.7829851C51.6797273 29.7829851 47.5087315 33.9412572 47.5087315 39.0705115L47.5087315 91.3741948C47.5087315 96.5034491 51.6797273 100.661721 56.8242522 100.661721L59.0944068 100.661721 59.0944068 112.73707.000424010955 112.73707.000424010955 100.661721M112.986623 39.0705115 112.962879 112.73707 65.4783158 112.73707 65.4783158 100.661721 67.7480464 100.661721C72.8934193 100.661721 77.0644151 96.5034491 77.0644151 91.3741948L77.0644151 39.0705115C77.0644151 33.9412572 72.8934193 29.7829851 67.7480464 29.7829851L65.4783158 29.7829851 65.4783158 17.7072139 124.572723 17.7072139 124.572723 29.7829851 122.302568 29.7829851C117.158043 29.7829851 112.986623 33.9412572 112.986623 39.0705115M161.578703 100.661721 163.848857 100.661721C168.99423 100.661721 173.164802 96.5034491 173.164802 91.3741948L173.164802 39.0705115C173.164802 33.9412572 168.99423 29.7829851 163.848857 29.7829851L161.578703 29.7829851 161.578703 17.7072139 208.810131 17.7072139 209.06369 112.73707 161.578703 112.73707 161.578703 100.661721M117.965784 100.661721 134.789267 100.661721C139.934215 100.661721 144.105211 96.5034491 144.105211 91.3741948L144.105211 75.5476511 155.532306 75.5476511 155.532306 112.73707 117.965784 112.73707 117.965784 100.661721"/><path fill="#727375" fill-rule="nonzero" d="M125.733665 83.5666023C125.733665 78.437348 126.39173 74.2790759 117.965784 74.2790759L117.965784 69.2914319 117.965784 64.3033653C126.39173 64.3033653 125.733665 60.1455158 125.733665 55.0162615L125.733665 50.2589986 137.056453 50.2589986 137.056453 69.2914319 137.056453 88.3234425 125.733665 88.3234425 125.733665 83.5666023M251.311293 66.0783561C259.87801 70.0624687 266.081291 78.5261187 266.081291 88.3234425 266.081291 101.951855 254.077965 113 240.408275 113L213.813036 113 213.813036 100.140088 214.014017 100.140088C221.867124 100.140088 231.068162 97.1278028 230.928663 85.9642561 230.798491 75.5484965 221.867124 71.7884243 214.014017 71.7884243L214.014017 60.6865942C222.884751 60.6865942 233.428207 57.8548096 232.903282 44.6732094 232.446198 33.1917791 222.884751 30.7019729 214.014017 30.7019729L213.813036 30.7019729 213.813036 17.7072139 244.326137 17.7072139C257.99625 17.7072139 270 28.7553588 270 42.3837714 270 53.6204483 261.837365 63.0960841 251.311293 66.0783561"/></g></svg>