<svg xmlns="http://www.w3.org/2000/svg" width="300" height="300" viewBox="0 0 300 300"><g fill="none" fill-rule="evenodd" transform="matrix(1 0 0 -1 17 249)"><path fill="#EC008C" fill-rule="nonzero" d="M13.3980026,19.1464748 L16.1193349,19.1464748 L16.1193349,0.21981737 L13.3980026,0.21981737 L13.3980026,8.44851426 L2.72297534,8.44851426 L2.72297534,0.21981737 L-1.37855824e-13,0.21981737 L-1.37855824e-13,19.1464748 L2.72297534,19.1464748 L2.72297534,10.9537777 L13.3980026,10.9537777 L13.3980026,19.1464748 Z M33.8394858,19.4061102 C36.7678344,19.4061102 39.2131451,18.4859318 41.170489,16.6319386 C43.1218086,14.7828545 44.0993853,12.4646813 44.0993853,9.67578246 C44.0993853,6.88197459 43.113046,4.57252857 41.1431059,2.74471714 C39.1660462,0.916360253 36.6780178,0 33.6812115,0 C30.8185824,0 28.4269425,0.916360253 26.5205312,2.74471714 C24.6037143,4.57252857 23.6606403,6.86942919 23.6606403,9.61796449 C23.6606403,12.4477722 24.6228824,14.7828545 26.5440806,16.6319386 C28.4630882,18.4859318 30.8914214,19.4061102 33.8394858,19.4061102 Z M33.9375173,16.8408469 C31.7682282,16.8408469 29.9757306,16.1590313 28.5764542,14.8041272 C27.1733442,13.4492231 26.4712416,11.7228658 26.4712416,9.61796449 C26.4712416,7.58124474 27.1733442,5.88270556 28.5764542,4.52561966 C29.9883268,3.17289738 31.7424881,2.4888999 33.8564633,2.4888999 C35.9852254,2.4888999 37.7476017,3.18980641 39.1660462,4.56380133 C40.588872,5.94488714 41.3052139,7.66415352 41.3052139,9.72432774 C41.3052139,11.7272294 40.588872,13.4170414 39.1660462,14.7828545 C37.7476017,16.1530313 36.0065843,16.8408469 33.9375173,16.8408469 Z M64.8398919,19.1464748 L67.5738205,19.1464748 L67.5738205,8.40378716 C67.5738205,6.94633799 67.4648358,5.8488875 67.2507,5.10925387 C67.0393024,4.36798387 66.775877,3.74780435 66.4659004,3.26235159 C66.1471611,2.76598979 65.768179,2.3269005 65.3103336,1.93472013 C63.8086444,0.650179418 61.8447286,1.59872116e-14 59.4125618,1.59872116e-14 C56.934939,1.59872116e-14 54.9496643,0.645815798 53.4523565,1.92653834 C53.0032737,2.32253688 52.6182673,2.76598979 52.3055523,3.26235159 C51.993385,3.74780435 51.7365315,4.35762028 51.5311583,5.07107219 C51.3197608,5.77852412 51.2189909,6.89942907 51.2189909,8.422878 L51.2189909,19.1464748 L53.9573008,19.1464748 L53.9573008,8.40378716 C53.9573008,6.62233919 54.169246,5.37816196 54.5756112,4.69198268 C54.9754044,3.99107618 55.604668,3.43471459 56.4343759,3.02126157 C57.2690128,2.59744496 58.2509707,2.38853664 59.3868217,2.38853664 C61.0018768,2.38853664 62.309146,2.8107169 63.3338215,3.64580472 C63.8666966,4.09743942 64.251703,4.63034654 64.485007,5.24179883 C64.7161203,5.85543293 64.8398919,6.90761086 64.8398919,8.40378716 L64.8398919,19.1464748 Z M80.2385037,8.15015173 L78.1677938,9.40087439 C76.8649059,10.1868715 75.9492151,10.962505 75.3955289,11.7272294 C74.8478669,12.4859539 74.5778695,13.363587 74.5778695,14.3650379 C74.5778695,15.8459415 75.0937671,17.0644825 76.1376108,17.98957 C77.1666677,18.9206574 78.5188451,19.3788375 80.1809992,19.3788375 C81.7703143,19.3788375 83.2227138,18.9419301 84.5453175,18.0533879 L84.5453175,14.9743084 C83.1799962,16.2953944 81.6996659,16.9515738 80.1251377,16.9515738 C79.2417589,16.9515738 78.5078919,16.7453927 77.9388711,16.3341215 C77.365469,15.9184867 77.0746605,15.3855796 77.0746605,14.7506728 C77.0746605,14.1904931 77.2866057,13.6494042 77.7033764,13.1546787 C78.1250761,12.6479533 78.7987004,12.1406825 79.7313687,11.5952299 L81.8108412,10.376689 C84.1323804,8.99778496 85.2961621,7.25288232 85.2961621,5.12452654 C85.2961621,3.60325942 84.7824551,2.37162761 83.7687328,1.42581292 C82.7418666,0.472907345 81.4214536,0 79.7850396,0 C77.9153216,0 76.197306,0.575452421 74.6572805,1.72199364 L74.6572805,5.16270821 C76.1250146,3.3070787 77.825505,2.38853664 79.7592995,2.38853664 C80.6109139,2.38853664 81.3294464,2.61871761 81.8814896,3.09817038 C82.4505104,3.56889592 82.7352947,4.16125736 82.7352947,4.87525473 C82.7352947,6.03434136 81.9006578,7.12306461 80.2385037,8.15015173 L80.2385037,8.15015173 Z M92.4754629,19.1464748 L103.244688,19.1464748 L103.244688,16.7257564 L95.2011766,16.7257564 L95.2011766,10.9537777 L102.98181,10.9537777 L102.98181,8.52924124 L95.2011766,8.52924124 L95.2011766,2.6508993 L103.501541,2.6508993 L103.501541,0.247089997 L92.4754629,0.247089997 L92.4754629,19.1464748 Z M123.970408,12.7052258 C125.880653,12.7052258 127.468325,12.0959553 128.724114,10.8665053 C129.975521,9.64796438 130.615191,8.10542462 130.615191,6.26234052 C130.615191,4.46398352 129.975521,2.97053449 128.693992,1.77926616 C127.416845,0.59236145 125.810004,7.99360578e-15 123.865257,7.99360578e-15 C121.987324,7.99360578e-15 120.41882,0.59672507 119.163031,1.80708424 C117.901218,3.02126157 117.274145,4.52561966 117.274145,6.32615846 C117.274145,8.15015173 117.911623,9.66923703 119.182747,10.8834144 C120.459895,12.0959553 122.053591,12.7052258 123.970408,12.7052258 Z M123.840064,10.4830522 C122.656567,10.4830522 121.67899,10.0995991 120.919931,9.32396558 C120.155942,8.54833208 119.775317,7.55560847 119.775317,6.34306749 C119.775317,5.16270821 120.162514,4.18689363 120.941289,3.43471459 C121.723898,2.68689917 122.721191,2.30126423 123.95124,2.30126423 C125.15993,2.30126423 126.158865,2.68689917 126.931068,3.44562364 C127.712034,4.21689352 128.099231,5.19052629 128.099231,6.38343098 C128.099231,7.56597207 127.697248,8.54833208 126.888351,9.32396558 C126.083835,10.0995991 125.06135,10.4830522 123.840064,10.4830522 Z M137.835018,12.6795896 L137.835018,13.4235868 C137.835018,15.4303067 138.267124,16.9243012 139.118738,17.9082975 C139.980758,18.8928393 141.007624,19.3788375 142.205909,19.3788375 C142.719068,19.3788375 143.328616,19.3019287 144.036743,19.1464748 L144.036743,16.7257564 C143.641331,16.8817559 143.256324,16.9515738 142.894867,16.9515738 C141.925506,16.9515738 141.257906,16.6875748 140.872899,16.1764857 C140.50268,15.6648513 140.312641,14.7463092 140.312641,13.4235868 L140.312641,12.6795896 L142.541625,12.6795896 L142.541625,10.4595977 L140.312641,10.4595977 L140.312641,0.21981737 L137.835018,0.21981737 L137.835018,10.4595977 L136.046902,10.4595977 L136.046902,12.6795896 L137.835018,12.6795896 Z M156.635159,0.21981737 L156.635159,19.1677474 L162.661631,19.1677474 C164.471654,19.1677474 165.926244,18.6757492 166.993637,17.701571 C168.076365,16.7257564 168.617455,15.4199431 168.617455,13.7748582 C168.617455,12.6757714 168.3376,11.6999568 167.787747,10.8474145 C167.233513,9.997054 166.476097,9.38996533 165.513307,8.99778496 C164.552708,8.61869545 163.175338,8.422878 161.378459,8.422878 L159.373469,8.422878 L159.373469,0.21981737 L156.635159,0.21981737 Z M162.184617,16.7579381 L159.373469,16.7579381 L159.373469,10.8365054 L162.347273,10.8365054 C163.459575,10.8365054 164.306808,11.0988681 164.901569,11.6099571 C165.507283,12.1406825 165.802472,12.8737707 165.802472,13.840858 C165.802472,15.788669 164.595973,16.7579381 162.184617,16.7579381 L162.184617,16.7579381 Z M188.39572,19.1464748 L191.127458,19.1464748 L191.127458,8.40378716 C191.127458,6.94633799 191.028878,5.8488875 190.81529,5.10925387 C190.601154,4.36798387 190.333895,3.74780435 190.02118,3.26235159 C189.713394,2.76598979 189.328388,2.3269005 188.870543,1.93472013 C187.362281,0.650179418 185.400556,0 182.972223,0 C180.492957,0 178.505492,0.645815798 177.016399,1.92653834 C176.558554,2.32253688 176.186691,2.76598979 175.856999,3.26235159 C175.547022,3.74780435 175.29674,4.35762028 175.082605,5.07107219 C174.883803,5.77852412 174.787415,6.89942907 174.787415,8.422878 L174.787415,19.1464748 L177.514771,19.1464748 L177.514771,8.40378716 C177.514771,6.62233919 177.720145,5.37816196 178.120486,4.69198268 C178.539447,3.99107618 179.162139,3.43471459 179.988013,3.02126157 C180.824293,2.59744496 181.810632,2.38853664 182.938268,2.38853664 C184.562086,2.38853664 185.873189,2.8107169 186.891292,3.64580472 C187.421977,4.09743942 187.809174,4.63034654 188.042478,5.24179883 C188.26921,5.85543293 188.39572,6.90761086 188.39572,8.40378716 L188.39572,19.1464748 Z M199.167135,0.21981737 L199.167135,19.1464748 L203.926866,19.1464748 C205.850254,19.1464748 207.383708,18.6626584 208.506963,17.7168437 C209.632408,16.7666654 210.201429,15.4963064 210.201429,13.8708579 C210.201429,12.7690438 209.918835,11.8188655 209.368983,11.0115957 C208.821321,10.2059623 208.017353,9.60323727 206.983915,9.20669328 C207.600034,8.81287656 208.188223,8.273424 208.766007,7.58724472 C209.347624,6.89942907 210.165283,5.70597894 211.215699,3.9954398 C211.882751,2.92144376 212.409054,2.11799218 212.811586,1.56817603 L213.817093,0.21981737 L210.586435,0.21981737 L209.752346,1.46181279 C209.722225,1.50435808 209.670744,1.58944868 209.583118,1.69417556 L209.054625,2.43326374 L208.207392,3.82034953 L207.298273,5.29252592 C206.744039,6.07252304 206.224308,6.69052075 205.751675,7.15688267 C205.289449,7.61288099 204.87213,7.94124341 204.493696,8.14796992 C204.115261,8.34596919 203.477783,8.44851426 202.591666,8.44851426 L201.883539,8.44851426 L201.883539,0.21981737 L199.167135,0.21981737 Z M202.699007,16.8408469 L201.883539,16.8408469 L201.883539,10.8665053 L202.919168,10.8665053 C204.299276,10.8665053 205.240159,10.9772322 205.751675,11.2161404 C206.273597,11.4545032 206.667366,11.8041382 206.955984,12.2770456 C207.242959,12.7521347 207.383708,13.2894055 207.383708,13.9030396 C207.383708,14.495401 207.219409,15.0299445 206.911076,15.5115791 C206.590146,16.0013955 206.141063,16.3379397 205.572042,16.540848 C204.992068,16.7366655 204.040232,16.8408469 202.699007,16.8408469 L202.699007,16.8408469 Z M220.132183,19.1464748 L222.849135,19.1464748 L222.849135,0.21981737 L220.132183,0.21981737 L220.132183,19.1464748 Z M229.634666,19.1677474 L245.504267,19.1677474 L245.504267,16.7579381 L238.880844,16.7579381 L238.880844,0.21981737 L236.153487,0.21981737 L236.153487,16.7579381 L229.634666,16.7579381 L229.634666,19.1677474 Z M263.700884,19.1464748 L267,19.1464748 L259.978973,10.2228714 L259.978973,0.21981737 L257.195755,0.21981737 L257.195755,10.2228714 L250.17199,19.1464748 L253.464534,19.1464748 L258.551766,12.6135898 L263.700884,19.1464748"/><polyline fill="#CCEFFC" points="11.698 197 253.216 197 253.216 38.583 11.698 38.583 11.698 197"/><path fill="#214395" d="M11.6975121 196.994 253.216443 196.994 253.216443 131.620423C203.39399 134.434958 154.989982 124.045724 105.679045 122.899728L11.6975121 122.899728 11.6975121 196.994M11.6975121 38.5951302 253.216443 38.5951302 253.216443 73.2973658C237.674344 73.9857269 223.109822 73.8362729 209.302716 73.8875454 133.073097 74.1668171 79.774634 66.7202991 11.6975121 67.0802978L11.6975121 38.5951302"/><path fill="#FFF" d="M93.2881933,190.403843 L122.714619,190.403843 L122.714619,182.615871 L101.978493,182.615871 L101.978493,166.222295 L122.714619,166.222295 L122.714619,158.430506 L101.978493,158.430506 L101.978493,142.035294 L122.714619,142.035294 L122.714619,134.247323 L101.978493,134.247323 L93.2881933,134.247323 L93.2881933,142.035294 L93.2881933,158.430506 L93.2881933,166.222295 L93.2881933,182.615871 L93.2881933,190.403843 Z M198.696146,190.403843 L217.746568,190.403843 L217.746568,182.615871 L207.383708,182.615871 L207.383708,134.247323 L198.696146,134.247323 L198.696146,182.615871 L188.322881,182.615871 L188.322881,190.403843 L198.696146,190.403843 Z M136.269253,134.40714 L144.287024,134.40714 L144.287024,177.374618 L171.499252,134.302959 L179.934342,134.302959 L179.934342,190.194934 L171.918761,190.194934 L171.918761,147.856363 L144.595358,190.403843 L136.269253,190.403843 L136.269253,134.40714 Z M76.5204266,190.032935 L86.6970814,190.032935 L64.9253272,162.217038 L86.2222585,133.816961 L75.4508427,133.816961 L55.8439963,161.486131 L55.8439963,134.247323 L47.1608157,134.247323 L47.1608157,190.403843 L55.8439963,190.403843 L55.8439963,162.225219 L76.5204266,190.032935"/><path fill="#FFF" fill-rule="nonzero" d="M60.8824865,64.9557602 L64.3009926,51.8136269 L72.2760462,64.5575799 L74.9864254,64.5575799 L63.2440049,46.0356482 L59.8873847,59.0965091 L51.8071799,45.9909211 L46.7029703,64.5575799 L49.4412802,64.5575799 L52.7957098,51.8136269 L60.8824865,64.9557602 Z M83.4795673,57.8136047 L85.8865417,57.8136047 L83.9587715,46.7234639 L81.4899113,46.7234639 L81.804817,48.5218209 C80.5145253,47.0730989 78.9421878,46.3509198 77.0746605,46.3509198 C75.5538032,46.3509198 74.33416,46.7878273 73.431613,47.669824 C72.5115409,48.5496389 72.0389086,49.6874529 72.0065966,51.0745387 C72.077245,51.5987186 72.1221532,52.0012626 72.1692522,52.3083523 C72.5027783,54.1192548 73.358774,55.546704 74.7470971,56.5950638 C76.1206333,57.6412417 77.5943917,58.1545126 79.1733012,58.1250581 C79.9455046,58.1250581 80.7051117,57.9330589 81.4707432,57.5665148 C82.2303503,57.1999707 82.8015618,56.6316091 83.1799962,55.8794301 L83.4795673,57.8136047 Z M82.6389062,52.3508976 C82.6558837,52.4763517 82.6712182,52.5958058 82.6794331,52.7021691 C82.6947677,52.8150777 82.6947677,52.9558045 82.6947677,53.1090767 C82.6947677,54.0276187 82.4231273,54.7688887 81.8667028,55.357432 C81.3058969,55.9388844 80.443877,56.2307015 79.2779046,56.2307015 C78.2981373,56.2585196 77.3227514,55.9241572 76.3555803,55.2014326 C75.3801943,54.4792534 74.794196,53.5203479 74.5461051,52.3083523 C74.5417238,52.174171 74.5181744,52.0547169 74.5137931,51.9352628 C74.5033875,51.8179905 74.4836717,51.6478093 74.4431447,51.4301738 C74.4666942,50.4521774 74.794196,49.6727257 75.4272933,49.0929097 C76.0581999,48.5049118 76.8156164,48.2130947 77.671612,48.2130947 C78.9635466,48.2452764 80.0566799,48.6325477 80.9575839,49.3634541 C81.8667028,50.0965423 82.426961,51.0914477 82.6389062,52.3508976 L82.6389062,52.3508976 Z M90.1566621,57.8136047 L90.911888,62.0495891 L93.3314586,62.0495891 L92.5718514,57.8136047 L94.9421324,57.8136047 L94.563698,55.8281575 L92.2295627,55.8281575 L90.5887674,46.7234639 L88.1713874,46.7234639 L89.8099921,55.8281575 L88.4939603,55.8281575 L88.8192715,57.8136047 L90.1566621,57.8136047 Z M104.60508,50.4139957 L106.432081,49.3487269 C104.573316,47.2820073 102.421004,46.28492 99.9888375,46.3509198 C98.3951412,46.3743743 97.1497579,46.8134635 96.2554259,47.6567332 C95.3594509,48.50273 94.8928429,49.6258168 94.8545065,51.0276298 C94.9289885,51.7988997 94.991422,52.3508976 95.0429022,52.6808964 C95.385191,54.2277998 96.1847775,55.5276132 97.449329,56.5590639 C98.7116898,57.6008783 100.260478,58.1250581 102.080906,58.1250581 C103.84164,58.1250581 105.112215,57.6968779 105.899753,56.8486992 C106.684553,55.9901569 107.080512,54.9117973 107.080512,53.5994385 C107.080512,52.9110774 107.012055,52.3378068 106.868567,51.9074447 L97.3551311,51.9074447 C97.3551311,51.7628998 97.3167948,51.5114462 97.2461464,51.1661747 C97.2784584,50.3076325 97.595007,49.5914533 98.1875773,49.0460008 C98.7823382,48.4923664 99.5715191,48.2130947 100.553477,48.2130947 C101.280772,48.2130947 102.023402,48.4220031 102.755078,48.8310925 C103.492779,49.238 104.106708,49.7665435 104.60508,50.4139957 L104.60508,50.4139957 Z M104.765545,53.5143479 C104.765545,54.3363449 104.526217,54.9968879 104.040441,55.5085223 C103.563427,56.0283386 102.848728,56.2754286 101.924823,56.2754286 C101.112092,56.2754286 100.311958,56.0643385 99.5074427,55.6383401 C98.6941646,55.2101598 98.103785,54.5070715 97.7357562,53.5143479 L104.765545,53.5143479 Z M113.254306,57.8136047 L112.910374,55.9241572 C113.425724,56.6485181 114.030891,57.1999707 114.715468,57.5665148 C115.406617,57.9330589 116.093386,58.1250581 116.777963,58.1250581 C117.582479,58.1250581 118.258293,57.9565133 118.788978,57.6243327 L117.306457,55.6383401 C116.931856,55.9241572 116.405553,56.0643385 115.725357,56.0643385 C114.702872,56.0643385 113.926287,55.702158 113.378625,54.9865243 C112.828773,54.2725269 112.454172,53.392712 112.257561,52.3508976 L111.267388,46.7234639 L108.851651,46.7234639 L110.860475,57.8136047 L113.254306,57.8136047 Z M130.120652,64.5575799 L133.346928,64.5575799 C135.481715,64.5575799 137.276951,64.2461265 138.746328,63.630856 C140.211871,63.0210401 140.721197,61.5935908 140.252398,59.3883262 C140.002117,58.1185127 139.465408,57.097971 138.650487,56.3332466 C137.843781,55.5723403 136.915494,55.024706 135.873293,54.6925254 C134.836021,54.358163 133.811346,54.1983454 132.809672,54.1983454 L130.818373,54.1983454 L129.451409,46.7234639 L126.877398,46.7234639 L130.120652,64.5575799 Z M133.421958,62.5634054 L132.324444,62.5634054 L131.168877,56.1859744 C133.233562,56.1074292 134.812472,56.3332466 135.926964,56.8699719 C137.037075,57.4066972 137.704675,58.3039666 137.940169,59.5634165 C138.098444,60.2555957 137.993293,60.8223209 137.62143,61.2870465 C137.246829,61.7255903 136.694786,62.0561345 135.967491,62.2606792 C135.242387,62.4652239 134.392963,62.5634054 133.421958,62.5634054 L133.421958,62.5634054 Z M150.730815,57.8136047 L153.171744,57.8136047 L152.016725,51.4301738 C151.764253,49.9814518 151.115821,48.7454564 150.067596,47.7167329 C149.021562,46.6896458 147.607499,46.176375 145.83636,46.176375 C144.512113,46.176375 143.414599,46.5489191 142.541625,47.2945527 C141.681796,48.0363681 141.232166,49.0143645 141.217379,50.2285418 C141.257906,50.4799955 141.27105,50.6741766 141.279265,50.7974488 C141.288027,50.944721 141.302814,51.0789023 141.324173,51.2387199 L142.48193,57.8136047 L144.946409,57.8136047 L143.788652,51.5261734 C143.788652,51.4454464 143.754697,51.2174473 143.681858,50.8421759 C143.754697,49.0929097 144.595358,48.2130947 146.210413,48.2130947 C148.058772,48.2130947 149.186408,49.3143634 149.603727,51.5261734 L150.730815,57.8136047 Z M159.587604,57.8136047 L159.243125,55.9241572 C159.758475,56.6485181 160.359808,57.1999707 161.046576,57.5665148 C161.742107,57.9330589 162.426684,58.1250581 163.10469,58.1250581 C163.915229,58.1250581 164.591592,57.9565133 165.121729,57.6243327 L163.64578,55.6383401 C163.271726,55.9241572 162.732279,56.0643385 162.058655,56.0643385 C161.042195,56.0643385 160.253014,55.702158 159.707542,54.9865243 C159.168095,54.2725269 158.78747,53.392712 158.59305,52.3508976 L157.60233,46.7234639 L155.180568,46.7234639 L157.200346,57.8136047 L159.587604,57.8136047 Z M170.108739,64.3633988 C170.549606,64.3633988 170.885323,64.2483083 171.152582,64.0246727 C171.402864,63.803219 171.54197,63.4748566 171.54197,63.0635854 C171.54197,62.6228597 171.334406,62.2394066 170.919278,61.9044987 C170.515104,61.5745 170.052877,61.4103187 169.550123,61.4103187 C169.118018,61.4103187 168.784492,61.5341365 168.544616,61.7768628 C168.303097,62.0135892 168.1618,62.2944973 168.123464,62.6141325 C168.3376,63.1808577 168.589524,63.6155833 168.850759,63.9226731 C169.118018,64.2210356 169.539718,64.3633988 170.108739,64.3633988 L170.108739,64.3633988 Z M167.746672,57.8136047 L170.166243,57.8136047 L168.177135,46.7234639 L165.761398,46.7234639 L167.746672,57.8136047 Z M174.866278,55.8281575 L173.762739,55.8281575 L174.06231,57.8136047 L175.210758,57.8136047 L176.152188,63.3003118 C176.389874,64.5575799 176.907414,65.5672125 177.716311,66.3641186 C178.518088,67.158843 179.594244,67.5657506 180.933825,67.5657506 C181.620046,67.5657506 182.20002,67.4637509 182.677033,67.2679335 L182.255881,65.096487 C181.714244,65.4073949 181.190131,65.5693943 180.679162,65.5693943 C179.547145,65.5693943 178.81985,64.6808521 178.518088,62.8999496 L177.634709,57.8136047 L180.933825,57.8136047 L180.587155,55.8281575 L177.256275,55.8281575 L175.640672,46.7234639 L173.227674,46.7234639 L174.866278,55.8281575 Z M185.712724,64.3633988 C186.140448,64.3633988 186.489308,64.2483083 186.750543,64.0246727 C187.004658,63.803219 187.139931,63.4748566 187.139931,63.0635854 C187.139931,62.6228597 186.934557,62.2394066 186.517239,61.9044987 C186.106493,61.5745 185.650838,61.4103187 185.150275,61.4103187 C184.72036,61.4103187 184.381905,61.5341365 184.144767,61.7768628 C183.902701,62.0135892 183.767976,62.2944973 183.725258,62.6141325 C183.943775,63.1808577 184.194057,63.6155833 184.44872,63.9226731 C184.72036,64.2210356 185.139322,64.3633988 185.712724,64.3633988 L185.712724,64.3633988 Z M183.351205,57.8136047 L185.766394,57.8136047 L183.78112,46.7234639 L181.359359,46.7234639 L183.351205,57.8136047 Z M198.01595,50.4139957 L199.84076,49.3487269 C197.983638,47.2820073 195.827493,46.28492 193.399159,46.3509198 C191.7967,46.3743743 190.560627,46.8134635 189.653152,47.6567332 C188.763201,48.50273 188.29495,49.6258168 188.264828,51.0276298 C188.335477,51.7988997 188.39572,52.3508976 188.453224,52.6808964 C188.791132,54.2277998 189.591266,55.5276132 190.853627,56.5590639 C192.11763,57.6008783 193.660394,58.1250581 195.487395,58.1250581 C197.243747,58.1250581 198.514322,57.6968779 199.307884,56.8486992 C200.095422,55.9901569 200.490834,54.9117973 200.490834,53.5994385 C200.490834,52.9110774 200.414162,52.3378068 200.266293,51.9074447 L190.76381,51.9074447 C190.76381,51.7628998 190.729307,51.5114462 190.652635,51.1661747 C190.68878,50.3076325 191.00971,49.5914533 191.591327,49.0460008 C192.184445,48.4923664 192.975817,48.2130947 193.957775,48.2130947 C194.68726,48.2130947 195.427152,48.4220031 196.1654,48.8310925 C196.894886,49.238 197.513196,49.7665435 198.01595,50.4139957 L198.01595,50.4139957 Z M198.176415,53.5143479 C198.176415,54.3363449 197.93873,54.9968879 197.446929,55.5085223 C196.965534,56.0283386 196.257407,56.2754286 195.32693,56.2754286 C194.526795,56.2754286 193.72228,56.0643385 192.915574,55.6383401 C192.100653,55.2101598 191.514655,54.5070715 191.135672,53.5143479 L198.176415,53.5143479 Z M206.660794,57.8136047 L206.309743,55.9241572 C206.840427,56.6485181 207.432998,57.1999707 208.124147,57.5665148 C208.821321,57.9330589 209.504255,58.1250581 210.177879,58.1250581 C210.986776,58.1250581 211.651638,57.9565133 212.197109,57.6243327 L210.723351,55.6383401 C210.342726,55.9241572 209.812041,56.0643385 209.131845,56.0643385 C208.113194,56.0643385 207.332775,55.702158 206.785113,54.9865243 C206.235261,54.2725269 205.862851,53.392712 205.664049,52.3508976 L204.67552,46.7234639 L202.25814,46.7234639 L204.273536,57.8136047 L206.660794,57.8136047 Z M218.940471,55.2679778 C218.722502,55.9067027 218.243297,56.2307015 217.515455,56.2307015 C217.117852,56.2307015 216.760776,56.1177928 216.433274,55.9088845 C216.116726,55.696158 215.943117,55.4256136 215.92833,55.0972511 C215.911353,54.696889 216.206542,54.3428903 216.818281,54.0150733 C217.423447,53.6976199 218.026971,53.409621 218.630494,53.1603492 C219.229089,52.9007138 219.753201,52.5619878 220.200641,52.1272621 C220.645343,51.6947182 220.869884,51.1192658 220.869884,50.4139957 C220.869884,49.6727257 220.634937,48.99091 220.17271,48.3641851 C219.706102,47.7401874 219.103127,47.2520074 218.36926,46.8832815 C217.637583,46.5276464 216.877976,46.3509198 216.086604,46.3509198 C214.865318,46.3509198 213.926078,46.5936462 213.247525,47.1052806 C212.584854,47.6060061 212.165345,48.1770949 211.998308,48.807638 L214.208124,49.6830893 C214.349421,49.2249092 214.604083,48.8714559 214.955135,48.6325477 C215.318782,48.3832759 215.725148,48.2452764 216.19778,48.2130947 C216.754204,48.2452764 217.259149,48.4301848 217.736162,48.7650927 C218.213176,49.1098187 218.452504,49.5063627 218.452504,49.962361 C218.452504,50.2563599 218.315589,50.5334498 218.046139,50.7805398 C217.783261,51.0232662 217.45795,51.2387199 217.08554,51.4132647 C216.704915,51.6030822 216.336886,51.7798088 215.982001,51.9521718 C214.42226,52.7021691 213.613363,53.5312569 213.566264,54.4388899 C213.795187,55.4703407 214.29794,56.3436102 215.076716,57.0657893 C215.862063,57.7732413 216.822662,58.1250581 217.967276,58.1250581 C219.45363,58.1250581 220.500212,57.483606 221.090592,56.1859744 L218.940471,55.2679778"/><path fill="#186FA8" fill-rule="nonzero" d="M55.0887705 87.1169511 50.1494071 87.1169511 49.2402882 108.161601 45.2270213 87.1169511 40.5308198 87.1169511 45.8130196 112.303767 53.2168618 112.303767 53.9978278 94.6594687 62.6213133 112.303767 70.128116 112.303767 64.83332 87.1169511 60.0823524 87.1169511 65.0753866 108.01051 55.0887705 87.1169511ZM75.2115144 112.303767 80.1722366 112.303767 79.2247814 107.833784 74.2892517 107.833784 75.2115144 112.303767ZM73.7695205 105.368338 78.7132651 105.368338 74.8927752 87.1169511 69.9380773 87.1169511 73.7695205 105.368338ZM83.6531761 105.368338 88.342258 105.368338 87.8608631 102.995074C89.0290261 104.002525 90.1221594 104.714341 91.1468349 105.142521 92.1611049 105.577247 93.2372607 105.794337 94.3621584 105.794337 95.8748008 105.794337 97.0621319 105.368338 97.9219612 104.505432 98.7927438 103.640345 99.2292304 102.506894 99.2292304 101.08599 99.2292304 100.440175 99.0430253 99.2232701 98.6645909 97.4423675L96.507898 87.1169511 91.5553908 87.1169511 93.7290612 97.4805492C94.0456098 99.017089 94.2082654 99.9481765 94.2082654 100.239994 94.2082654 100.872719 94.024251 101.362535 93.6501978 101.733443 93.282169 102.091259 92.7536752 102.267986 92.0860752 102.267986 91.3631614 102.267986 90.5608366 101.967987 89.6796485 101.354353 88.7831259 100.751083 88.0854045 99.9481765 87.5848415 98.959271 87.2211939 98.2436373 86.8060661 96.7905518 86.3465777 94.6021962L84.7720495 87.1169511 79.8195423 87.1169511 83.6531761 105.368338ZM119.173984 94.7085595 106.75082 94.7085595C106.738224 94.518742 106.731652 94.3589244 106.731652 94.265652 106.731652 93.053111 107.080512 92.070751 107.771662 91.3272992 108.475408 90.577302 109.327022 90.2107579 110.325957 90.2107579 111.964562 90.2107579 113.246091 91.0633002 114.167806 92.7460212L118.600582 92.0156603C117.734181 90.2342123 116.587377 88.9043991 115.137168 88.0202205 113.699555 87.1278602 112.075737 86.6953163 110.28543 86.6953163 107.826976 86.6953163 105.824724 87.4600408 104.282507 89.0178532 102.746316 90.5625748 101.969731 92.6162035 101.969731 95.1771032 101.969731 97.6747303 102.671286 99.8925403 104.057418 101.837624 105.957258 104.475432 108.659422 105.794337 112.182531 105.794337 114.431232 105.794337 116.211133 105.099976 117.524426 103.721617 118.855245 102.338349 119.514082 100.414538 119.514082 97.9240021 119.514082 96.730552 119.405098 95.6587378 119.173984 94.7085595L119.173984 94.7085595ZM115.002443 97.7194574C115.006824 97.9300021 115.006824 98.1029106 115.006824 98.2092738 115.006824 99.5685415 114.702872 100.576538 114.095515 101.260535 113.491991 101.927078 112.668308 102.267986 111.650204 102.267986 110.627719 102.267986 109.715862 101.888897 108.894369 101.117627 108.083829 100.348539 107.533977 99.2129065 107.253574 97.7194574L115.002443 97.7194574ZM124.539429 105.368338 129.156219 105.368338 128.41578 101.820715C130.144201 104.471614 132.005704 105.794337 134.018362 105.794337 134.73087 105.794337 135.49924 105.608883 136.322924 105.261975L134.414322 101.21799C133.965239 101.390353 133.49425 101.460716 132.987662 101.460716 132.14262 101.460716 131.271837 101.145445 130.388458 100.497447 129.515485 99.8603586 128.819955 99.0018163 128.325963 97.9278203 127.835806 96.8625515 127.344006 95.1645578 126.866992 92.8398391L125.656111 87.1169511 120.699223 87.1169511 124.539429 105.368338ZM141.720132 100.195266 136.885373 100.604356C137.437416 102.229804 138.40623 103.5018 139.779766 104.420342 141.151112 105.330157 142.969349 105.794337 145.230646 105.794337 147.590521 105.794337 149.33592 105.319248 150.459175 104.373433 151.592835 103.427073 152.147069 102.274532 152.147069 100.915264 152.147069 100.365448 152.10216 99.7774498 152.005772 99.1616339 151.90774 98.5414544 151.569285 96.9116422 150.981096 94.2803792 150.493677 92.1111145 150.251611 90.577302 150.251611 89.7122143 150.251611 88.9322171 150.392907 88.0633113 150.67112 87.1169511L145.859909 87.1169511C145.667132 87.7774941 145.54117 88.4636734 145.48969 89.1771253 144.762395 88.3742192 143.93652 87.7562215 142.992899 87.3324049 142.049825 86.9042246 141.101822 86.6953163 140.145604 86.6953163 138.622556 86.6953163 137.374982 87.1851327 136.387 88.1696745 135.400661 89.1645799 134.897907 90.4365752 134.897907 91.996024 134.897907 93.7261994 135.44776 95.1241943 136.534321 96.1681904 137.62143 97.2121866 139.559606 97.8383661 142.35542 98.0625471 144.710914 98.2496373 146.283252 98.4863637 147.081196 98.7656354 147.29095 99.4599965 147.391172 100.001085 147.391172 100.414538 147.391172 100.938718 147.177584 101.390353 146.755884 101.733443 146.32597 102.091259 145.697254 102.267986 144.854402 102.267986 143.966642 102.267986 143.275492 102.091259 142.757952 101.733443 142.244245 101.362535 141.897575 100.853628 141.720132 100.195266L141.720132 100.195266ZM146.422358 95.6227379C146.124978 95.5436473 145.724637 95.4672839 145.230646 95.3969205 142.75138 95.098558 141.134134 94.6638323 140.374527 94.0905617 139.826865 93.6814723 139.559606 93.1191108 139.559606 92.4269315 139.559606 91.8558427 139.768813 91.3676627 140.18175 90.9776641 140.590306 90.577302 141.136325 90.3853027 141.816521 90.3853027 142.565175 90.3853027 143.275492 90.5603929 143.929948 90.9225734 144.595358 91.2825721 145.089349 91.7451158 145.416851 92.3134774 145.746543 92.8785662 146.028589 93.7649266 146.283252 94.9709221L146.422358 95.6227379ZM154.337717 87.1169511 159.639085 112.303767 164.576257 112.303767 159.290224 87.1169511 154.337717 87.1169511ZM179.354916 87.1169511 174.149936 87.1169511 179.442542 112.303767 190.671803 112.303767C192.603407 112.303767 194.102905 112.105768 195.183442 111.711406 196.257407 111.311044 197.13038 110.597046 197.789218 109.538323 198.448055 108.489963 198.781581 107.204877 198.781581 105.702701 198.781581 103.565618 198.140269 101.799442 196.852168 100.407993 195.555852 99.0149072 193.611105 98.1541831 191.005329 97.8214571 191.664166 97.2225502 192.286858 96.4430985 192.879428 95.4672839 194.047591 93.4960185 195.333502 90.7114833 196.766733 87.1169511L191.170175 87.1169511C190.724926 88.5384004 189.845929 90.7518468 188.530444 93.7649266 187.820127 95.3903751 187.06271 96.4878256 186.253814 97.0480054 185.755441 97.374186 184.899993 97.5383672 183.667754 97.5383672L181.547754 97.5383672 179.354916 87.1169511ZM182.339126 101.31999 185.103176 101.31999C187.894609 101.31999 189.756112 101.484171 190.667421 101.820715 191.572159 102.151259 192.286858 102.671076 192.81097 103.384527 193.328511 104.096343 193.580983 104.841977 193.580983 105.615428 193.580983 106.538334 193.215145 107.232695 192.466491 107.682148 192.006455 107.959238 191.00971 108.099965 189.482281 108.099965L183.761952 108.099965 182.339126 101.31999ZM201.192937 96.9967328C201.192937 98.4820001 201.42405 100.052358 201.866561 101.697443 202.450917 103.917435 203.343058 105.8287 204.542985 107.458512 205.742913 109.084506 207.268151 110.371229 209.093509 111.311044 210.922152 112.271586 213.003815 112.736311 215.342332 112.736311 218.463457 112.736311 220.992013 111.767042 222.917592 109.825776 224.849196 107.891056 225.816367 105.325793 225.816367 102.133805 225.816367 99.4687237 225.182722 96.8990968 223.926933 94.421106 222.675526 91.9300243 220.977226 90.0149404 218.827105 88.6829453 216.670412 87.336223 214.236055 86.6800436 211.525676 86.6800436 209.170181 86.6800436 207.191479 87.1998599 205.58902 88.2634923 203.990942 89.3353066 202.861663 90.6476654 202.191872 92.2305686 201.526463 93.8009264 201.192937 95.3903751 201.192937 96.9967328L201.192937 96.9967328ZM206.337674 97.0992779C206.337674 95.3691025 206.859595 93.9203805 207.920964 92.7460212 208.977952 91.5852983 210.370656 90.996755 212.096887 90.996755 213.496163 90.996755 214.847793 91.4614805 216.138085 92.3800226 217.438782 93.3023828 218.503984 94.6916504 219.346836 96.5729162 220.19626 98.4563638 220.615769 100.267812 220.615769 102.046532 220.615769 104.02598 220.082894 105.58161 219.017691 106.710697 217.941536 107.839784 216.584977 108.404327 214.927204 108.404327 212.383314 108.404327 210.319176 107.232695 208.723289 104.855067 207.135617 102.506894 206.337674 99.924722 206.337674 97.0992779M226.526685 110.639592 226.526685 117.297931 224.023322 117.297931 224.023322 118.188655 230.037198 118.188655 230.037198 117.297931 227.530001 117.297931 227.530001 110.639592 226.526685 110.639592ZM231.040515 110.639592 231.040515 118.188655 232.552609 118.188655 234.347845 112.840493C234.512692 112.337585 234.634273 111.971587 234.704921 111.715769 234.796928 111.992859 234.927272 112.40413 235.111286 112.932129L236.927881 118.188655 238.275677 118.188655 238.275677 110.639592 237.308506 110.639592 237.308506 116.957023 235.107453 110.639592 234.202167 110.639592 232.004947 117.063386 232.004947 110.639592 231.040515 110.639592"/></g></svg>