<svg xmlns="http://www.w3.org/2000/svg" width="300" height="300" viewBox="0 0 300 300"><g fill="none" transform="translate(13 90)"><path fill="#A50034" d="M60,120 C93.1094437,120 120,93.1674413 120,60.0132058 C120,26.8574166 93.1094437,0 60,0 C26.8393273,0 0,26.8574166 0,60.0132058 C0,93.1674413 26.8393273,120 60,120"/><path fill="#FFF" d="M75,86 L75,81.2375181 L62.9954179,81.2375181 L62.9954179,33.0343862 L58.1344076,33.0343862 L58.1344076,86 L75,86 Z M41.2468976,47.4859477 C45.2593837,47.4859477 48.4937951,44.2286414 48.4937951,40.2507889 C48.4937951,36.2698104 45.2593837,33 41.2468976,33 C37.2344114,33 34,36.2698104 34,40.2507889 C34,44.2317674 37.2344114,47.4859477 41.2468976,47.4859477"/><path fill="#FFF" d="M62.9140534,9.07025924 C62.2834181,9.03903291 61.0845865,9 60.5117073,9 C32.6638487,9 10,31.6765602 10,59.5132712 C10,73.0342717 15.2526931,85.7074773 24.7668578,95.2377529 C34.320047,104.74617 46.9967544,110 60.5117073,110 C73.975148,110 86.6487334,104.74617 96.1847519,95.2377529 C105.722331,85.7074773 111,73.0342717 111,59.5132712 L111,57.2665368 L74.9320279,57.2665368 L74.9320279,61.9161372 L106.189064,61.9161372 C106.189064,62.0176228 106.189064,62.5109988 106.16721,62.6390267 C104.578134,86.4366121 84.706876,105.284824 60.5117073,105.284824 C48.264269,105.284824 36.7801493,100.521248 28.1370106,91.8699934 C19.4657744,83.2546492 14.6876188,71.7774119 14.6876188,59.5117099 C14.6876188,47.3162671 19.4657744,35.7796998 28.1370106,27.1378132 C36.7801493,18.5037332 48.264269,13.7401567 60.5117073,13.7401567 C61.0393181,13.7401567 62.3224425,13.7401567 62.9140534,13.7713831 L62.9140534,9.07025924 Z"/><path fill="#6B6B6B" d="M165.124799,20.1421285 L147,20.1421285 L147,97.8470529 L202.669694,97.8470529 L202.669694,82.7211908 L165.124799,82.7211908 L165.124799,20.1421285 Z M242.541442,68.235168 L257.303149,68.235168 L257.303149,81.8217066 C254.581465,82.8479223 249.273867,83.8710469 244.223768,83.8710469 C227.910825,83.8710469 222.476818,75.6659583 222.476818,59.0007728 C222.476818,43.1083399 227.651765,33.7379402 243.964708,33.7379402 C253.030229,33.7379402 258.208297,36.5600332 262.474975,41.9461198 L273.744062,31.685509 C266.880547,21.9488244 254.837403,19 243.57768,19 C218.196095,19 204.863896,32.7179066 204.863896,58.8709503 C204.863896,84.8972625 216.903919,99 243.449711,99 C255.617702,99 267.529756,95.9244441 274,91.4378417 L274,53.7429631 L242.541442,53.7429631 L242.541442,68.235168 Z"/></g></svg>