<svg xmlns="http://www.w3.org/2000/svg" width="300" height="300" viewBox="0 0 300 300"><g fill="none" transform="translate(30 115)"><polygon fill="#ED1B23" points="26.775 69.52 0 69.52 13.389 46.346 40.164 46.346"/><path fill="#ED1B23" d="M53.5507651,69.5199245 L80.3304966,69.5199245 L66.9431678,46.3464017 L40.1634362,46.3464017 L53.5507651,69.5199245 Z M53.5507651,23.1734423 L40.1634362,0 L26.7744966,23.1734423 L40.1634362,46.345114 L53.5507651,23.1734423 Z"/><path fill="#221E1F" d="M92.3516779,59.6545135 L103.075732,59.6545135 L103.075732,55.768437 L92.3515973,55.768437 L92.3515973,50.9877219 L104.416671,50.9877219 L104.416671,47.0997138 L87.8066577,47.0997138 L87.8066577,69.5192001 L104.733664,69.5192001 L104.733664,65.6329627 L92.3516779,65.6329627 L92.3516779,59.6545135 Z M92.0385503,26.6987982 L96.8021477,43.3618048 L101.167409,43.3618048 L105.932779,26.6987982 L105.932779,43.3618048 L110.165799,43.3618048 L110.165799,20.9456988 L103.683141,20.9456988 L98.9872752,36.6803448 L94.2897987,20.9456988 L87.8054497,20.9456988 L87.8054497,43.3618048 L92.0384698,43.3618048 L92.0385503,26.6987982 Z M195.306685,20.9458597 L190.787195,20.9458597 L190.787195,43.3621268 L195.306685,43.3621268 L195.306685,20.9458597 Z M198.990443,47.0991505 L194.472644,47.0991505 L194.472644,69.5204074 L198.990443,69.5204074 L198.990443,47.0991505 Z M240,20.9458597 L235.482201,20.9458597 L235.482201,43.3621268 L240,43.3621268 L240,20.9458597 Z M116.486416,20.9458597 L111.966926,20.9458597 L111.966926,43.3621268 L116.486416,43.3621268 L116.486416,20.9458597 Z M229.16706,29.690236 L220.185664,29.690236 L220.185664,20.9470669 L215.73906,20.9470669 L215.73906,43.3614829 L220.185664,43.3614829 L220.185664,33.5764735 L229.167141,33.5764735 L229.167141,43.3614829 L233.613664,43.3614829 L233.613664,20.9470669 L229.16706,20.9470669 L229.16706,29.690236 Z M123.169128,43.3621268 L127.785181,43.3621268 L127.785181,24.8289584 L133.26596,24.8289584 L133.26596,20.9461012 L117.688349,20.9461012 L117.688349,24.8289584 L123.169047,24.8289584 L123.169128,43.3621268 Z M164.388322,69.5199245 L168.997691,69.5199245 L168.997691,50.9882853 L174.480161,50.9882853 L174.480161,47.0985871 L158.904161,47.0985871 L158.904161,50.9882853 L164.388242,50.9882853 L164.388322,69.5199245 Z M161.301342,43.9861042 C167.056671,43.9861042 170.250523,41.3688275 170.250523,36.3644527 L170.250523,20.9465036 L165.732644,20.9465036 L165.732644,36.7727382 C165.732644,38.6989154 164.108617,40.3099249 161.301342,40.3099249 C157.904054,40.3099249 156.903866,38.40918 156.903866,36.7727382 L156.903866,20.9465036 L152.460644,20.9465036 L152.460644,36.3644527 C152.460644,41.7516002 155.807034,43.9861042 161.301342,43.9861042 M127.14902,59.6545135 L137.878148,59.6545135 L137.878148,55.768437 L127.14902,55.768437 L127.14902,50.9877219 L139.217477,50.9877219 L139.217477,47.0997138 L122.605772,47.0997138 L122.605772,69.5192001 L139.532698,69.5192001 L139.532698,65.6329627 L127.14902,65.6329627 L127.14902,59.6545135 Z M181.970416,24.5063058 C183.204483,24.5063058 184.584403,25.6531752 184.584403,27.1609262 C184.584403,28.5043328 183.619812,29.9832712 181.717772,29.9832712 L176.337101,29.9832712 L176.337101,24.5063058 L181.970416,24.5063058 Z M181.63643,39.9733489 L176.337101,39.9733489 L176.337101,33.4731345 L181.583839,33.4731345 C183.47243,33.4731345 185.069315,34.5573084 185.069315,36.7308875 C185.069315,38.570627 183.619812,39.9733489 181.63643,39.9733489 M176.511705,43.3614829 L182.987517,43.3614829 C187.207007,43.3614829 189.72443,40.839014 189.72443,37.3101974 C189.72443,34.4573497 187.652859,32.0094072 185.398148,31.4469985 C187.369691,30.9455953 188.953047,28.9346704 188.953047,26.4596055 C188.953047,23.1544485 186.50851,20.9470669 181.961879,20.9470669 L171.846443,20.9470669 L171.846443,43.3614829 L171.86851,43.3614829 L176.511705,43.3614829 Z M180.133691,57.05615 L180.133691,50.9557705 L185.604322,50.9557705 C187.450389,50.9557705 188.681154,52.2500026 188.681154,54.0203666 C188.681154,55.2655046 187.587705,57.05615 185.738174,57.05615 L180.133691,57.05615 Z M189.138846,58.757058 C191.062953,58.1775871 193.12945,56.4530979 193.12945,53.3410175 C193.12945,49.3548213 190.427275,47.0678429 185.829745,47.0678429 L175.587141,47.0678429 L175.587141,69.4873292 L180.133772,69.4873292 L180.133772,60.6527325 L183.990443,60.6527325 C186.324805,60.6527325 187.592859,61.8622975 187.975893,63.459786 C188.394685,65.2216189 188.287893,67.8475072 188.738819,69.4873292 L193.305745,69.4873292 C192.861584,67.7712907 192.600564,65.4368279 192.502228,63.5936277 C192.337772,60.5594538 190.740886,59.3499694 189.138846,58.757058 M110.735034,47.0993114 L106.191785,47.0993114 L106.191785,69.5205683 L121.309933,69.5205683 L121.309933,65.6326408 L110.735034,65.6326408 L110.735034,47.0993114 Z M140.850765,33.8885829 C144.492161,34.5238279 146.56204,35.1946459 146.56204,37.3664544 C146.56204,38.8368617 145.104161,40.231133 142.084913,40.231133 C139.063973,40.231133 137.516215,38.5150944 137.516215,36.4787372 L133.161181,36.4787372 C133.161181,40.376886 135.688752,43.9411952 142.281584,43.9411952 C148.557342,43.9411952 151.278201,40.6225173 151.278201,36.8328583 C151.278201,33.3006614 148.960832,31.0593969 144.815919,30.2462061 C140.835544,29.4652887 138.102765,29.2958739 138.102765,26.7750147 C138.102765,25.0436845 139.687812,24.0204355 142.122201,24.0204355 C144.714201,24.0204355 146.200993,25.292696 146.200993,27.4425329 L150.589933,27.4425329 C150.589933,23.9052657 147.908054,20.2646595 141.942523,20.2646595 C137.828134,20.2646595 133.559517,22.6330052 133.559517,27.0629795 C133.559517,30.7866432 136.295678,33.0922934 140.850765,33.8885024 M204.097852,33.8885829 C207.735866,34.5238279 209.804054,35.1946459 209.804054,37.3664544 C209.804054,38.8368617 208.351168,40.231133 205.330228,40.231133 C202.31106,40.231133 200.758228,38.5150944 200.758228,36.4787372 L196.406577,36.4787372 C196.406577,40.376886 198.932456,43.9411952 205.523597,43.9411952 C211.799356,43.9411952 214.521906,40.6225173 214.521906,36.8328583 C214.521906,33.3006614 212.206228,31.0593969 208.063007,30.2462061 C204.079248,29.4652887 201.349852,29.2958739 201.349852,26.7750147 C201.349852,25.0436845 202.931597,24.0204355 205.369289,24.0204355 C207.954523,24.0204355 209.444617,25.292696 209.444617,27.4425329 L213.835329,27.4425329 C213.835329,23.9052657 211.151758,20.2646595 205.187919,20.2646595 C201.070148,20.2646595 196.801611,22.6330052 196.801611,27.0629795 C196.801611,30.7866432 199.542765,33.0922934 204.097852,33.8885024"/><path fill="#221E1F" d="M149.758631,66.0561374 C146.103624,66.0561374 143.971007,62.4782267 143.971007,58.2175867 C143.971007,53.9552566 146.029047,50.3722755 149.758631,50.3722755 C152.532,50.3722755 153.956054,52.0986158 154.573128,54.2060387 L159.27906,54.2060387 C158.507758,49.8183175 155.073181,46.5572647 149.629772,46.5572647 C142.767463,46.5572647 139.297289,51.8055001 139.297289,58.2802822 C139.297289,64.7550643 142.909852,70 149.629772,70 C155.008832,70 158.64,66.8760887 159.306201,62.0869229 L154.573047,62.0869229 C153.956054,64.3400183 152.482872,66.0561374 149.75855,66.0561374 M210.551275,66.0561374 C206.898121,66.0561374 204.765503,62.4782267 204.765503,58.2175867 C204.765503,53.9552566 206.82,50.3722755 210.551275,50.3722755 C213.328107,50.3722755 214.752081,52.0986158 215.365772,54.2060387 L220.071785,54.2060387 C219.298711,49.8183175 215.865906,46.5572647 210.420805,46.5572647 C203.556725,46.5572647 200.088242,51.8055001 200.088242,58.2802822 C200.088242,64.7550643 203.700805,70 210.420805,70 C215.801477,70 219.430953,66.8760887 220.098926,62.0869229 L215.365772,62.0869229 C214.752081,64.3400183 213.272134,66.0561374 210.551275,66.0561374"/></g></svg>