<svg xmlns="http://www.w3.org/2000/svg" width="300" height="300" viewBox="0 0 300 300"><g fill="#EF3120" fill-rule="evenodd" transform="matrix(1 0 0 -1 26 165)"><path d="M15.2105667 30C23.6139189 30 30.4268862 23.2835233 30.4268862 15.0015757 30.4268862 6.71844635 23.6139189 0 15.2105667 0 6.81324696 0-1.04789612e-13 6.71844635-1.04789612e-13 15.0015757-1.04789612e-13 23.2835233 6.81324696 30 15.2105667 30ZM20.7707215 26.3778297 18.5483375 17.0574873 13.9385785 17.0574873C12.5965589 17.0574873 12.8150022 14.7675823 14.127539 14.7892484L20.996835 14.8999422 14.5877559 2.31275277 14.3584465 5.97667945 11.494795 6.03970797C9.81412455 6.07043437 9.12907258 7.77102264 9.54570467 9.54054835 10.7161017 14.4260465 12.2969386 19.2103052 13.6686405 24.0465623 14.0180777 25.2807395 14.9872497 26.3518305 16.5304943 26.3608908L20.7707215 26.3778297M179.468037 11.491675 186.972528 2.24814854 178.750146 2.24814854 171.373493 11.1871684 164.393138 11.1871684 164.393138 2.36829665 157.734375 2.36829665 157.734375 26.8781186 162.366106 26.8781186 164.393138 26.8781186 174.443204 26.8781186 176.988379 26.8135144C181.622906 26.8781186 184.954685 24.4467934 185.276277 18.1793949 184.691019 15.0185146 182.793423 12.7073376 179.468037 11.491675L179.468037 11.491675ZM164.321629 21.7015074 176.34839 21.7015074C179.572305 21.6353275 179.093311 16.8774621 176.34839 16.5434109L164.321629 16.5434109 164.321629 21.7015074M196.10935 2.553049 196.10935 15.505016C196.567969 18.4283576 198.263022 20.3735753 200.421087 21.3398813 201.659917 21.8878355 203.026985 22.1324649 204.464364 22.1324649 205.900145 22.0710121 207.335925 21.7676874 208.577952 21.2213089 210.798338 20.1856715 212.562103 18.239272 212.950411 15.505016L212.950411 2.7314985 219.085038 2.7314985 219.085038 15.6877987 219.085038 15.9926992C218.432665 20.9782552 215.297437 24.5066705 211.31808 26.3285887 209.164808 27.3011975 206.873711 27.8460003 204.529881 27.8460003 202.181257 27.9121803 199.832633 27.4225274 197.741682 26.4503125 193.826243 24.6882714 190.689818 21.2213089 189.974724 16.0510006L189.908008 15.6877987 189.908008 2.553049 196.10935 2.553049"/><path d="M204.595398,7.10922317 C206.750667,7.10922317 208.506043,8.75584327 208.506043,10.6990913 C208.506043,12.7073376 206.750667,14.3508062 204.595398,14.3508062 C202.508842,14.3508062 200.744278,12.7073376 200.744278,10.6990913 C200.744278,8.75584327 202.508842,7.10922317 204.595398,7.10922317"/><polyline points="223.783 8.451 223.783 2.368 248 2.368 248 8.451 230.308 8.451 230.308 27.243 223.783 27.243 223.783 8.451"/><polyline points="128.624 20.978 128.624 2.128 153.752 2.248 153.752 8.02 135.801 8.02 135.801 11.61 151.012 11.61 151.012 17.45 135.801 17.45 135.801 20.978 152.902 20.978 152.902 26.814 128.624 26.814 128.624 20.978"/><polyline points="117.33 2.128 124.186 2.128 124.186 26.878 117.134 26.878 117.134 13.497 104.539 26.878 98.01 26.878 98.01 2.128 105.061 2.128 105.061 16.233 117.33 2.128"/><polyline points="68.704 20.978 68.704 2.128 93.898 2.248 93.898 8.02 75.949 8.02 75.949 11.61 91.158 11.61 91.158 17.45 75.949 17.45 75.949 20.978 92.984 20.978 92.984 26.814 68.704 26.814 68.704 20.978"/><path d="M64.1984943,27.0581438 L47.5583789,27.0581438 L47.09976,26.9962971 C42.138846,26.3900415 38.6836241,23.8389621 36.7908225,20.5536005 C35.7453472,18.7253795 35.1568928,16.6556804 35.1568928,14.5891328 C35.0929738,12.5288881 35.6111173,10.4576133 36.6581905,8.56951521 C38.4838772,5.28730501 41.945491,2.6129261 47.037439,1.82506959 L47.5583789,1.76046536 L64.1341758,1.76046536 L64.1341758,14.3508062 L57.8049955,14.3508062 L57.8049955,7.78323441 L47.7549299,7.78323441 C45.0771229,8.27091759 43.3137573,9.60830401 42.3369949,11.3041651 C41.8188515,12.2811072 41.5551856,13.4368927 41.5551856,14.5292557 C41.5551856,15.6877987 41.8795745,16.77898 42.399316,17.7559221 C43.3776763,19.3993907 45.1426399,20.6753243 47.6882144,21.0369505 L64.1984943,21.0369505 L64.1984943,27.0581438"/></g></svg>