<svg xmlns="http://www.w3.org/2000/svg" width="300" height="300" viewBox="0 0 300 300"><g fill="#0056A8" transform="translate(22 131)"><path d="M26.116952,4.42181557 C24.0474454,2.26132551 21.7012753,0.973102266 18.7580118,0.384865389 C16.7713481,-0.0140181924 15.0316496,-0.0978303068 13.0121614,0.110147903 C10.3361831,0.383313313 8.12756325,1.23695522 5.97365087,2.83714577 C4.2120694,4.14088978 2.95067079,5.55172704 1.84870545,7.44215584 C0.998394613,8.90576369 0.50290098,10.2746949 0.227800415,11.9416247 C-0.15827822,14.2542182 -0.0566785795,16.2889901 0.556045408,18.5503652 C1.95655738,23.6939457 5.85329437,27.3397726 11.1052143,28.4246739 C14.1047483,29.0439523 16.7713481,28.9803172 19.7364945,28.2197998 C21.848204,27.6781252 23.5253796,26.7655044 25.1228385,25.28948 C26.1310196,24.3613384 26.8469063,23.4285406 27.4815133,22.2210253 C28.2333506,20.7931152 28.5365865,19.4055591 28.4506176,17.7976082 L19.0831307,17.7976082 C18.8799314,19.0439254 18.2781489,20.0372541 17.2668417,20.8008756 C15.9569879,21.7926523 14.2673077,21.8718082 12.8667957,21.011958 C11.910196,20.420617 11.2818413,19.6166415 10.9426548,18.5503652 C10.13611,16.0096164 10.1001594,13.6458044 10.8191722,11.0802224 C11.1255342,10.0015295 11.6397847,9.15564795 12.4619602,8.38581816 C13.39824,7.49803058 14.5658543,7.13329268 15.8475729,7.3210939 C16.6416132,7.43594753 17.2871616,7.78050845 17.8217321,8.37805778 C18.3828747,8.99423203 18.7033043,9.65541649 18.850233,10.4733606 C18.9533957,11.0491809 19.0112294,11.5365328 19.0424908,12.1201135 L28.9179759,12.1201135 C29.1149229,9.16340834 28.1708278,6.56678487 26.116952,4.42181557" transform="matrix(1 0 0 -1 228.056 38.978)"/><polygon points="216.418 7.189 226.662 7.189 226.662 .003 216.418 .003"/><polygon points="216.418 38.087 226.662 38.087 226.662 10.883 216.418 10.883"/><path d="M195.195904 13.7541716C196.54325 12.5838622 197.828093 11.7582148 199.453718 11.0116769 202.099992 9.79793393 204.746265 9.60082383 207.54571 10.4125377 210.54839 11.2863653 212.711658 13.3832248 213.658907 16.3461541 214.113796 17.7694095 214.310658 19.0328128 214.310658 20.5258887L214.310658 38.0829786 203.43017 38.0829786 203.43017 22.293704C203.43017 21.7659674 203.366074 21.3189736 203.206632 20.8130304 202.928404 19.9065893 202.325072 19.2392119 201.443512 18.8697963 199.514679 18.0565513 197.321701 18.7767024 196.26348 20.5709045 195.821132 21.3189736 195.61949 22.0562225 195.61949 22.9254056L195.61949 38.0829786 185.081326 38.0829786 185.081326 10.8781606 194.967739 10.8781606 195.195955 13.7541716M74.0270305 13.7541716C75.3743765 12.5838622 76.6592201 11.7582148 78.2817098 11.0116769 80.9295764 9.79793393 83.577443 9.60082383 86.3752945 10.4125377 89.3795167 11.2863653 91.5427849 13.3832248 92.490034 16.3461541 92.9449232 17.7694095 93.1417849 19.0328128 93.1417849 20.5258887L93.1417849 38.0829786 82.2612968 38.0829786 82.2612968 22.293704C82.2612968 21.7659674 82.1940657 21.3189736 82.039352 20.8130304 81.7579888 19.9065893 81.1546566 19.2392119 80.2715033 18.8697963 78.3442121 18.0565513 76.1512862 18.7767024 75.0946067 20.5709045 74.6507171 21.3189736 74.4490238 22.0562225 74.4490238 22.9254056L74.4490238 38.0829786 63.9124011 38.0829786 63.9124011 10.8781606 73.7972729 10.8781606 74.0270305 13.7541716"/><path d="M14.0848364,10.9155105 C14.8694982,10.783584 15.5259882,10.620616 16.2793886,10.3707317 C16.9093064,10.1658577 17.3422771,9.68160991 17.4798274,9.04060245 C17.6298823,8.34061608 17.4313722,7.67632747 16.9249371,7.17190271 C16.4106866,6.65506134 15.8245348,6.35706271 15.1023958,6.24531322 C14.1364177,6.09165768 13.2798546,6.17081357 12.3592055,6.50295787 C11.9137302,6.66126964 11.560476,6.86148747 11.1947173,7.16103818 C10.7242329,7.55526553 10.420997,8.0069197 10.2381176,8.59050035 C10.0849367,9.08561266 10.0239769,9.52329814 10.0333553,10.0416916 L-2.72985103e-14,10.0416916 L-2.72985103e-14,9.46121509 C-2.72985103e-14,8.52376107 0.146928711,7.72909806 0.478299847,6.85217501 C0.981608837,5.53291025 1.67092332,4.51319619 2.71192887,3.55090895 C4.07023792,2.28907101 5.48794367,1.50216838 7.27453428,0.994639463 C10.9837027,-0.0545640435 14.3239863,-0.262542253 18.1363174,0.317934243 C19.9244711,0.589547577 21.4000105,1.06758704 23.008411,1.89484365 C23.7164823,2.25958156 24.2838772,2.63673607 24.8950381,3.14581707 C27.6054039,5.40564 28.6104588,8.8543533 27.5272504,12.1990775 C27.1177257,13.4593634 26.4706141,14.4309631 25.4624331,15.3001257 C24.0806779,16.4890161 22.681729,17.2464293 20.9248368,17.7555103 C20.5403212,17.8657077 20.2120762,17.9588323 19.8244345,18.0643734 C17.6752114,18.6572665 15.829224,19.0483897 13.6221672,19.3743257 C13.0313262,19.461242 12.5342695,19.5559187 11.9512439,19.6909493 C11.6823956,19.7545844 11.4588764,19.8290841 11.208785,19.9423856 C10.5913718,20.2186552 10.3178343,20.9403706 10.596061,21.5518886 C10.6116917,21.5844822 10.6257594,21.6139717 10.6429531,21.6450132 C10.9743243,22.2332501 11.4651287,22.6166129 12.1122403,22.8044141 C13.2579716,23.1334543 14.3130448,23.1055169 15.4368931,22.7252582 C16.5154124,22.3605203 17.1922223,21.3780561 17.1453301,20.2465926 L26.8129267,20.2465926 C26.8035483,21.4261705 26.622232,22.4226034 26.2220857,23.5307858 C25.812561,24.6544889 25.1904586,25.5096829 24.2448004,26.2500233 C23.4226249,26.8987911 22.6426523,27.3395808 21.6626065,27.7167353 C20.7091329,28.0845773 19.8682005,28.3142846 18.8600195,28.4896692 C16.463831,28.8994173 14.4021398,29.0189272 11.976253,28.8761362 C10.5898087,28.7969803 9.42063131,28.6262519 8.06388533,28.3111805 C6.23821794,27.8843595 4.76736776,27.1843731 3.29182836,26.0358368 C2.0382451,25.0595808 1.21763262,23.9188048 0.692440629,22.4257075 C0.453290705,21.7490023 0.339186493,21.1483488 0.307925065,20.4359459 C0.253217566,19.2423993 0.426718491,18.2257894 0.872193839,17.1160549 C1.66936025,15.1293974 3.08550294,13.7216642 5.08936047,12.9285533 C6.1037938,12.5265656 6.99318143,12.2627126 8.06388533,12.045422 C10.1740317,11.6123927 11.9606223,11.2755922 14.0848364,10.9155105" transform="matrix(1 0 0 -1 124.515 39)"/><path d="M18.6693227 26.354264 11.6386368 26.354264 11.6386368 17.4282692 16.2074724 17.4282692C17.0750002 17.4282692 17.8096077 17.408109 18.6771355 17.3599799 19.8791225 17.2948039 20.8779256 16.7608917 21.5938236 15.8001459 21.973669 15.2895072 22.187801 14.774224 22.2784705 14.1441045 22.3535144 13.6133057 22.3644112 13.1600852 22.3112636 12.6292863 22.115944 10.6426186 20.4590163 9.15260505 18.4505133 9.15260505L11.6386368 9.15260505 11.6386368 38.0848671 0 38.0848671 0 0 19.0241363 0C19.7806917 0 20.4199524.0139334693 21.1749143.0558359538 26.2220775.324297669 30.379868 3.10721469 32.5181558 7.65478262 33.6310668 10.0217371 34.0092674 12.2970777 33.7232782 14.8952359 33.1198946 20.3647606 29.2669057 24.6190111 23.8540321 25.7970273 22.0596611 26.1881341 20.5059444 26.3542129 18.6693227 26.3542129M171.461993 10.3601213C170.378791 10.1893981 169.453439 10.1195266 168.357747 10.1195266 167.260461 10.1195266 166.336702 10.1893981 165.251907 10.3601213 162.107003 10.8490687 159.559212 12.1046121 157.263075 14.2930855 154.805902 16.6382976 153.460098 19.4134058 153.152162 22.7829576 152.964603 24.8518481 153.125588 26.635179 153.686721 28.6358313 154.546436 31.705788 156.161113 34.0773869 158.708903 36.0143944 160.386083 37.2948445 162.053856 38.0615425 164.120286 38.5085874 165.58796 38.8282916 166.855636 38.9602768 168.357695 38.9602768 169.858264 38.9602768 171.127483 38.8282916 172.596801 38.5085874 174.661586 38.0615936 176.329411 37.2948955 178.00659 36.0143433L172.120066 29.6446553C171.183765 31.7089523 168.745354 32.6293269 166.664942 31.6996123 165.706745 31.2712475 165.026827 30.5976433 164.593834 29.6446553 164.195279 28.7646521 163.962386 27.9762117 163.818569 27.0201103 163.527851 25.1094897 163.560644 23.450335 163.937354 21.5521678 164.12959 20.5666173 164.461016 19.7626102 165.014337 18.9229272 166.224136 17.089936 168.70007 16.5777151 170.549182 17.7774736 171.032136 18.0925843 171.385407 18.4433199 171.699564 18.9229272 172.254477 19.7626102 172.585852 20.5665662 172.778088 21.5521678 173.150121 23.450284 173.187643 25.1095407 172.896873 27.0201103 172.751514 27.9762117 172.518621 28.764601 172.120066 29.6446553L178.00659 36.0143944C180.555923 34.0773869 182.1706 31.705839 183.028722 28.6357802 183.589854 26.635179 183.749297 24.8518481 183.563281 22.7829576 183.255395 19.4134058 181.912675 16.6382466 179.45396 14.2930855 177.156281 12.1015498 174.610032 10.8490177 171.461993 10.3601213"/><path d="M90.4401896,2.98050237 C90.2870086,5.22170039 90.2010397,7.11988958 90.1557106,9.36884798 C90.0963139,12.3240011 90.0603632,14.8166354 90.0400433,17.7702364 C90.0275387,19.3642187 89.8509117,20.7098687 89.4492023,22.2526325 C88.9224473,24.2749877 87.7298238,25.8115432 85.8932149,26.8328093 C84.7834342,27.4489836 83.7658747,27.8276901 82.524796,28.0946472 C78.5733516,28.9343205 75.0861393,29.0041639 71.1049964,28.3181462 C69.9858373,28.1256888 69.060499,27.8587317 68.0101151,27.4272545 C65.5842282,26.4308216 63.9133049,24.6148924 63.1348954,22.1269143 C62.8363487,21.1754916 62.7566321,20.3125372 62.8707363,19.3207605 C62.890214,19.1460987 62.9410344,18.976312 63.0207912,18.8194399 L72.2397863,18.5959409 C72.2163402,19.1795216 72.2929307,19.6730818 72.4914408,20.2209647 C72.7931135,21.0559817 73.3870807,21.6488748 74.2280131,21.9530818 C75.4644025,22.4047359 76.655463,22.4218088 77.9090462,22.0151648 C78.7327848,21.7466556 79.3173735,21.1568667 79.5737172,20.3358184 C79.7347136,19.8220811 79.654997,19.3161043 79.3423827,18.8768667 C79.0704083,18.4888477 78.7343479,18.2280989 78.2888726,18.0589226 C78.0300824,17.959885 77.7660536,17.8749124 77.4979584,17.8043821 C76.2162399,17.4613733 75.1220899,17.2254577 73.8137992,17.0097191 C72.8317805,16.8503249 71.8530988,16.6712823 70.8783511,16.4727007 C69.4825283,16.1979832 68.3164771,15.8937763 66.9644203,15.459195 C65.7264677,15.0618635 64.7511112,14.4969077 63.7945115,13.6230888 C62.5503067,12.4931774 61.8391092,11.1537356 61.6015223,9.491462 C61.4452152,8.3832796 61.4811658,7.41788821 61.7281311,6.32677864 C62.3736796,3.48958336 64.3572172,1.39117635 67.1723088,0.577888426 C70.2921993,-0.32076369 73.219832,-0.173316451 76.2318706,1.03419883 C77.6980316,1.61933155 78.8140646,2.4310674 79.8222456,3.63858268 L79.1720079,8.31498825 C78.7077757,7.6010332 78.1310023,7.11368127 77.3510297,6.77222451 C76.6195123,6.45094474 75.9583331,6.28176843 75.1627298,6.20106047 C74.4999875,6.13587327 73.9247772,6.18398763 73.2823549,6.3624764 C72.760289,6.50526741 72.3523274,6.74739129 71.9818795,7.13851449 C71.6692652,7.47376295 71.4832597,7.83384463 71.3879123,8.28084257 C71.2425467,8.96686025 71.4691921,9.62649263 72.0084517,10.081251 C72.3695212,10.38701 72.7227753,10.591884 73.1651245,10.7532999 C74.2358284,11.1444231 75.1502252,11.4377655 76.2459382,11.7466287 C77.5714228,12.1175749 78.6686989,12.5195627 79.919156,13.0907267 C80.0426387,12.0958459 80.0363864,11.243756 79.897273,10.2535314 C79.7956734,9.52715975 79.5737172,8.92961042 79.1720079,8.31498825 L79.8222456,3.63858268 C80.0238818,2.97429407 80.2098873,2.41865079 80.4380957,1.76833087 C80.5678307,1.40359296 80.7366424,1.12111509 80.9929861,0.83708515 L91.1482609,0.83708515 C90.7152902,1.51223829 90.4948971,2.17963106 90.4401896,2.98050237 M28.9333301,2.98050237 C28.7801491,5.22170039 28.6941802,7.11988958 28.6488511,9.36884798 C28.5878914,12.3240011 28.5535038,14.8166354 28.5331839,17.7702364 C28.5222424,19.3642187 28.3456153,20.7098687 27.9423429,22.2526325 C27.4155878,24.2749877 26.2245274,25.8115432 24.3863554,26.8328093 C23.2765748,27.4489836 22.2590153,27.8276901 21.0179366,28.0946472 C17.0664921,28.9343205 13.5792798,29.0041639 9.5965739,28.3181462 C8.48054092,28.1256888 7.55207651,27.8587317 6.5032556,27.4272545 C4.07736879,26.4308216 2.40644547,24.6148924 1.62803592,22.1269143 C1.33105235,21.1754916 1.24977264,20.3125372 1.36543992,19.3207605 C1.38363188,19.1460401 1.43396286,18.9761185 1.5139317,18.8194399 L10.7329268,18.5959409 C10.7110438,19.1795216 10.7860712,19.6730818 10.9845813,20.2209647 C11.2862541,21.0559817 11.8802212,21.6488748 12.7211536,21.9530818 C13.9591062,22.4047359 15.1486035,22.4218088 16.4006237,22.0151648 C17.2259254,21.7466556 17.8120772,21.1568667 18.0699839,20.3358184 C18.2278541,19.8220811 18.1481375,19.3161043 17.8355232,18.8768667 C17.5619857,18.4888477 17.2259254,18.2280989 16.7820131,18.0589226 C16.5227738,17.9596562 16.258212,17.87468 15.9895359,17.8043821 C14.7093804,17.4613733 13.6136674,17.2254577 12.3069397,17.0097191 C11.2721864,16.8405428 10.3984295,16.6806789 9.36992854,16.4727007 C7.97566886,16.1979832 6.81118067,15.8937763 5.45599777,15.459195 C4.22117136,15.0618635 3.24581481,14.4969077 2.28765204,13.6230888 C1.04344721,12.4931774 0.333812799,11.1537356 0.0946628755,9.491462 C-0.0632073355,8.3832796 -0.025693622,7.41788821 0.22283473,6.32677864 C0.865257074,3.48958336 2.85192082,1.39117635 5.66388626,0.577888426 C8.78690291,-0.32076369 11.7114095,-0.173316451 14.7250111,1.03419883 C16.189609,1.61933155 17.3087682,2.4310674 18.3169492,3.63858268 L17.6667115,8.31498825 C17.2024793,7.6010332 16.6241429,7.11368127 15.8426072,6.77222451 C15.1126529,6.45094474 14.4499106,6.28176843 13.6574334,6.20106047 C12.991565,6.13587327 12.4194808,6.18398763 11.7754954,6.3624764 C11.2534296,6.50526741 10.8454679,6.74739129 10.4765831,7.13851449 C10.1624057,7.47376295 9.97640024,7.83384463 9.88105289,8.28084257 C9.73725032,8.96686025 9.9623326,9.62649263 10.5015922,10.081251 C10.8610987,10.38701 11.2143528,10.591884 11.6582651,10.7532999 C12.728969,11.1444231 13.6449288,11.4377655 14.7406419,11.7466287 C16.0661264,12.1175749 17.1618395,12.5195627 18.4138596,13.0907267 C18.5357792,12.0958459 18.5295269,11.243756 18.3904136,10.2535314 C18.2888139,9.52715975 18.0652947,8.92961042 17.6667115,8.31498825 L18.3169492,3.63858268 C18.5170224,2.97429407 18.7030279,2.41865079 18.9327993,1.76833087 C19.0609712,1.40359296 19.2297829,1.12111509 19.4861266,0.83708515 L29.6414015,0.83708515 C29.2084307,1.51223829 28.9896007,2.17963106 28.9333301,2.98050237" transform="matrix(1 0 0 -1 32.951 38.934)"/></g></svg>