<svg xmlns="http://www.w3.org/2000/svg" width="300" height="300" viewBox="0 0 300 300"><g fill="#034EA2" transform="translate(30 131)"><path d="M15.9302013 25.9218647C16.2604027 26.7559641 16.1557047 27.824907 15.9946309 28.4727511 15.7127517 29.6226745 14.9395973 30.7968921 12.652349 30.7968921 10.5100671 30.7968921 9.20536913 29.5497921 9.20536913 27.671044L9.20536913 24.3265485 0 24.3265485 0 26.9827096C0 34.6758591 6.01610738 37 12.4671141 37 18.6684564 37 23.7744966 34.8783104 24.5879195 29.1205953 25.0067114 26.1405121 24.7006711 24.1888816 24.5557047 23.468155 23.1060403 16.2446925 10.0912752 14.0906106 9.11677852 10.0496826 8.9814575 9.45376727 8.97048837 8.83611239 9.08456376 8.23571898 9.3261745 7.12628584 10.0751678 5.91967608 12.2174497 5.91967608 14.2308725 5.91967608 15.3986577 7.1667761 15.3986577 9.04552418L15.3986577 11.1834099 23.9597315 11.1834099 23.9597315 8.75399431C23.9597315 1.23900197 17.2510067.0647844167 12.4026846.0647844167 6.29798658.0647844167 1.31275168 2.09739549.402684564 7.72554169.161073826 9.26417159.120805369 10.6408404.483221477 12.3738236 1.97315436 19.4191289 14.1583893 21.459838 15.9302013 25.9218647M36.7248322 1.1661195 30.3624161 35.6557234 39.6322148 35.6557234 44.3275168 4.35675202 44.5208054 4.35675202 49.0872483 35.6557234 58.3087248 35.6557234 51.9865772 1.15802145 36.7248322 1.1661195ZM88.5503356 1.1661195 84.3221477 27.5333771 84.1208054 27.5333771 79.9006711 1.1661195 65.9114094 1.1661195 65.1543624 35.6557234 73.7395973 35.6557234 73.9489933 4.6482819 74.1422819 4.6482819 79.8684564 35.6557234 88.5744966 35.6557234 94.3087248 4.65637995 94.4939597 4.65637995 94.7114094 35.6557234 103.288591 35.6557234 102.531544 1.15802145 88.5503356 1.1661195Z"/><path d="M15.9302013,25.8570803 C16.2604027,26.6911797 16.1557047,27.7601226 15.9946309,28.4079667 C15.7127517,29.5578901 14.9395973,30.7321077 12.652349,30.7321077 C10.5100671,30.7321077 9.20536913,29.4850077 9.20536913,27.6062596 L9.20536913,24.2617641 L0,24.2617641 L0,26.9179251 C0,34.6110746 6.01610738,36.9352156 12.4671141,36.9352156 C18.6684564,36.9352156 23.7744966,34.8135259 24.5879195,29.0558109 C25.0067114,26.0757277 24.7006711,24.1240972 24.5557047,23.4033705 C23.1060403,16.1799081 10.0912752,14.0258262 9.11677852,9.98489823 C8.9814575,9.38898285 8.97048837,8.77132797 9.08456376,8.17093456 C9.3261745,7.06150142 10.0751678,5.85489166 12.2174497,5.85489166 C14.2308725,5.85489166 15.3986577,7.10199168 15.3986577,8.98073977 L15.3986577,11.1186255 L23.9597315,11.1186255 L23.9597315,8.68920989 C23.9597315,1.17421755 17.2510067,0 12.4026846,0 C6.29798658,0 1.31275168,2.03261107 0.402684564,7.66075728 C0.161073826,9.19938717 0.120805369,10.576056 0.483221477,12.3090392 C1.97315436,19.3543445 14.1583893,21.3950536 15.9302013,25.8570803" transform="translate(111.52)"/><path d="M156.241611,30.4891661 C158.625503,30.4891661 159.358389,28.8371635 159.527517,27.9949661 C159.6,27.6224557 159.608054,27.1203764 159.608054,26.6749836 L159.608054,1.1661195 L168.290003,1.1661195 L168.290003,25.8894725 C168.291567,26.6460421 168.264702,27.4024024 168.209396,28.1569271 C167.605369,34.5948785 162.547651,36.684176 156.241611,36.684176 C149.927517,36.684176 144.869799,34.5948785 144.265772,28.1569271 C144.241611,27.8168089 144.177181,26.5211206 144.185235,25.8894725 L144.185235,1.15802145 L152.867114,1.15802145 L152.867114,26.6668855 C152.85906,27.1203764 152.875168,27.6224557 152.947651,27.9949661 C153.108725,28.8371635 153.849664,30.4891661 156.241611,30.4891661 M198.185235,1.1661195 L198.652349,28.2379076 L198.467114,28.2379076 L190.574497,1.1661195 L177.849664,1.1661195 L177.849664,35.291311 L186.281879,35.291311 L185.814765,7.28014883 L186,7.28014883 L194.46443,35.291311 L206.681879,35.291311 L206.681879,1.1661195 L198.185235,1.1661195 Z M227.78255,30.1328518 C230.263087,30.1328518 231.132886,28.5537317 231.285906,27.6224557 C231.358389,27.2418472 231.366443,26.7559641 231.366443,26.3267673 L231.366443,21.305975 L227.84698,21.305975 L227.84698,16.2851828 L240,16.2851828 L240,25.5331582 C240,26.1810024 239.983893,26.6506894 239.879195,27.8006128 C239.315436,34.0847012 233.895302,36.3278617 227.814765,36.3278617 C221.734228,36.3278617 216.322148,34.0847012 215.750336,27.8006128 C215.653691,26.6506894 215.62953,26.1810024 215.62953,25.5331582 L215.62953,11.0214489 C215.62953,10.4059969 215.710067,9.32085796 215.774497,8.75399431 C216.539597,2.29984679 221.734228,0.226745459 227.814765,0.226745459 C233.895302,0.226745459 239.226846,2.28365069 239.855034,8.74589626 C239.967785,9.84723134 239.93557,11.0133508 239.93557,11.0133508 L239.93557,12.1713723 L231.285906,12.1713723 L231.285906,10.2359378 C231.285906,10.2359378 231.285906,9.42613263 231.181208,8.9240534 C231.020134,8.16283651 230.375839,6.41365726 227.750336,6.41365726 C225.253691,6.41365726 224.520805,8.07375793 224.33557,8.9240534 C224.230872,9.37754432 224.190604,9.99299628 224.190604,10.5517619 L224.190604,26.3186693 C224.190604,26.7559641 224.206711,27.2418472 224.271141,27.6305537 C224.432215,28.5537317 225.302013,30.1328518 227.78255,30.1328518"/></g></svg>