<svg xmlns="http://www.w3.org/2000/svg" width="300" height="300" viewBox="0 0 300 300"><path fill="#3D85C6" d="M17.0274269 1.34036657 15.3288272 28.9651582 31.6519566 1.34036657 45.8207644 1.34036657 16.0745539 49.4016531 0 49.4016531 3.14862396 1.34036657 17.0274269 1.34036657ZM196.167558 49.3180682 196.291846 1.2149893 182.868765 1.2149893 148.275331 49.3180682 162.36128 49.3180682 183.448775 17.7229964 182.288755 49.3180682 196.167558 49.3180682ZM101.335976 1.34036657 84.7642713 49.4016531 119.357706 49.4016531 123.500632 36.9893034 104.153166 36.9893034 116.209082 1.34036657 101.335976 1.34036657ZM130.33646 1.34036657 126.317822 13.6691314 139.368039 13.6691314 126.649256 49.4016531 141.273785 49.4016531 153.702564 13.6691314 166.131343 13.6691314 170.77142 1.34036657 130.33646 1.34036657ZM39.3577995 39.2043019C40.1449555 42.2133563 41.9264137 44.7626941 44.6193158 46.7687304 47.3536471 48.8165592 50.9165637 49.8613697 55.3909241 49.8613697 60.5281526 49.9031622 65.3753764 48.6493895 69.8497367 46.1418441 74.2826678 43.5925063 78.0527307 39.9983579 81.2013547 35.2758141 84.3085494 30.5950627 86.2557247 25.6635568 87.0014514 20.6066736 87.9128952 14.5049798 86.8357344 9.65705876 83.769969 5.93753311 80.6627743 2.21800746 76.1884139.379140841 70.2226001.337348417 65.789669.295555994 61.7296013 1.17319688 57.9595384 2.97027107 54.2309047 4.72555284 50.957993 7.14951338 48.2650909 10.2421527 45.4893303 13.2929996 43.2107209 16.9289404 41.4706919 21.1917675 40.1035262 24.2844068 39.2749409 27.2934613 38.8192191 30.1353461 38.3634972 33.1861929 38.5706435 36.2370398 39.3577995 39.2043019M57.7938213 17.3468646C60.4038649 13.8780935 63.428201 12.1646041 66.8668298 12.2063966 69.10401 12.2063966 70.8026098 13.0840375 72.0040584 14.713942 73.205507 16.4274313 73.5783704 18.6842221 73.205507 21.5678993 72.8326436 24.200822 71.8797706 26.8755371 70.3883171 29.633837 68.8140052 32.3503445 67.1154054 34.3981732 65.2096593 35.7355308 63.262484 37.0728883 61.3567379 37.7415671 59.4924211 37.7415671 57.1309531 37.7415671 55.4323534 36.8221338 54.2309047 35.1504368 53.0294561 33.4369475 52.6151635 31.2637415 52.9465976 28.7561961 53.5680365 24.5769538 55.1423485 20.8156357 57.7938213 17.3468646M216.095034 27.9203476C216.095034 27.9203476 224.339457 30.8040248 226.120915 31.5562884 227.943803 32.3085521 229.849549 34.6907202 228.316666 36.9893034 226.452349 39.7058109 221.025116 41.5028851 217.752204 38.9535473 217.752204 38.9535473 215.970746 37.7415671 215.970746 33.0608157L202.464806 33.0608157C202.464806 33.0608157 200.724777 49.5270304 217.752204 49.986747 234.82106 50.4464637 242.444045 38.8281701 243.024054 33.5205323 243.604064 27.9203476 240.952591 21.2753524 229.890978 19.3529009 229.890978 19.3529009 221.397979 18.2662979 224.629462 12.0810193 229.186681 6.81517399 235.193924 11.7466799 234.613914 15.2572435L247.829849 15.2572435C247.829849 15.2572435 250.937044-.247745505 230.595276.00300903295 210.212078.211971148 209.714927 16.0930919 209.714927 16.0930919 209.714927 16.0930919 209.507781 25.6217644 216.095034 27.9203476M82.708 76.0223642 77.128 76.0223642 77.128 90.3514377 69.0266667 90.3514377 69.0266667 76.0223642 63.364 76.0223642 63.364 70.0830671 82.708 70.0830671 82.708 76.0223642ZM48.9386667 70.0830671 41.3333333 90.3099042 49.104 90.3099042 53.196 78.2236422 57.288 90.3099042 65.1413333 90.3099042 57.3706667 70.0830671 48.9386667 70.0830671ZM43.4 70.0830671 23.8906667 70.0830671 23.8906667 76.0223642 29.7186667 76.0223642 29.7186667 90.3514377 37.7373333 90.3514377 37.7373333 76.0223642 43.4 76.0223642 43.4 70.0830671ZM88.3706667 70.0830671 80.7653333 90.3099042 88.536 90.3099042 92.628 78.2236422 96.72 90.3099042 104.656 90.3099042 96.8026667 70.0830671 88.3706667 70.0830671ZM10.8293333 70.0830671 17.1946667 90.3099042 13.3506667 90.3099042 11.5733333 84.6198083 5.37333333 84.6198083 3.67866667 90.3514377 0 90.3514377 6.28266667 70.0830671 10.8293333 70.0830671ZM10.9946667 81.8370607 9.46533333 76.8530351C9.09333333 75.6070288 8.76266667 74.2364217 8.47333333 73.0734824L8.432 73.0734824C8.14266667 74.2364217 7.85333333 75.6485623 7.48133333 76.8530351L5.952 81.8370607 10.9946667 81.8370607ZM118.792 81.2555911 126.232 81.2555911 126.232 78.514377 118.792 78.514377 118.792 73.115016 126.686667 73.115016 126.686667 70.3322684 115.650667 70.3322684 115.650667 90.3099042 127.141333 90.3099042 127.141333 87.5271565 118.833333 87.5271565 118.833333 81.2555911 118.792 81.2555911ZM141.732 76.7284345C141.236 76.2715655 140.657333 75.9392971 140.037333 75.7316294 138.714667 75.3578275 137.64 75.399361 136.689333 75.6900958 136.193333 75.85623 135.738667 76.0638978 135.325333 76.313099 134.912 76.5623003 134.581333 76.8530351 134.250667 77.1853035L134.044 77.4345048 133.961333 75.7731629 131.068 75.7731629 131.109333 76.1469649C131.150667 76.686901 131.192 77.2683706 131.192 77.8913738 131.192 78.4313099 131.233333 79.0543131 131.233333 79.884984L131.233333 90.3099042 134.416 90.3099042 134.416 81.629393C134.416 81.2140575 134.457333 80.8402556 134.581333 80.5495208 134.788 79.9265176 135.16 79.3450479 135.697333 78.8881789 136.234667 78.4313099 136.896 78.2236422 137.64 78.2236422 138.177333 78.2236422 138.632 78.3067093 138.962667 78.514377 139.334667 78.7220447 139.624 78.971246 139.830667 79.3035144 140.037333 79.6357827 140.202667 80.0511182 140.326667 80.5079872 140.450667 81.0063898 140.492 81.5047923 140.492 82.0031949L140.492 90.3099042 143.674667 90.3099042 143.674667 81.7124601C143.674667 80.5079872 143.509333 79.4696486 143.137333 78.6389776 142.682667 77.8498403 142.228 77.1853035 141.732 76.7284345M152.230667 72.3258786 149.089333 73.3226837 149.089333 75.7731629 146.94 75.7731629 146.94 78.3897764 149.089333 78.3897764 149.089333 85.5750799C149.089333 86.4472843 149.172 87.1533546 149.296 87.7763578 149.461333 88.4408946 149.750667 88.9808307 150.122667 89.3961661 150.825333 90.1853035 151.817333 90.600639 153.098667 90.600639 153.636 90.600639 154.090667 90.5591054 154.462667 90.4760383 154.793333 90.3929712 155.165333 90.3099042 155.454667 90.1853035L155.661333 90.1022364 155.496 87.5271565 155.082667 87.6517572 154.545333 87.7763578C154.38 87.7763578 154.090667 87.8178914 153.76 87.8178914 153.181333 87.8178914 152.809333 87.6517572 152.602667 87.2779553 152.354667 86.8626198 152.230667 86.2811502 152.230667 85.4504792L152.230667 78.3897764 155.826667 78.3897764 155.826667 75.7731629 152.230667 75.7731629 152.230667 72.3258786ZM171.12 80.1757188C171.285333 80.9648562 171.368 81.6709265 171.368 82.3354633 171.368 82.6261981 171.368 82.8338658 171.326667 83.0415335L171.285333 83.5399361 171.244 83.8306709 161.654667 83.8306709C161.696 84.4952077 161.82 85.0351438 162.026667 85.5335463 162.274667 86.115016 162.564 86.5303514 162.977333 86.9041534 163.349333 87.2364217 163.804 87.5271565 164.341333 87.6932907 164.878667 87.8594249 165.457333 87.942492 166.036 87.942492 166.904 87.942492 167.648 87.8594249 168.185333 87.7348243 168.722667 87.6102236 169.218667 87.4440895 169.714667 87.2364217L170.086667 87.0702875 170.665333 89.5623003 170.417333 89.686901C169.962667 89.8945687 169.384 90.1022364 168.557333 90.3099042 167.772 90.5175719 166.821333 90.600639 165.664 90.600639 164.548 90.600639 163.556 90.4345048 162.688 90.0607029 161.82 89.7284345 161.034667 89.1884984 160.414667 88.5654952 159.794667 87.9009585 159.298667 87.1118211 159.009333 86.2396166 158.678667 85.3674121 158.554667 84.370607 158.554667 83.2492013 158.554667 82.1693291 158.72 81.1309904 159.009333 80.2172524 159.34 79.2619808 159.794667 78.4313099 160.373333 77.7252396 160.952 77.0191693 161.696 76.4792332 162.522667 76.0638978 163.390667 75.6485623 164.3 75.4408946 165.374667 75.4408946 166.573333 75.4408946 167.565333 75.6900958 168.350667 76.1469649 169.136 76.6038339 169.756 77.1853035 170.210667 77.8913738 170.665333 78.6389776 170.954667 79.3450479 171.12 80.1757188M168.309333 81.3386581C168.309333 81.0479233 168.226667 80.7571885 168.185333 80.4249201 168.102667 80.0095847 167.937333 79.5942492 167.689333 79.2204473 167.482667 78.8466454 167.152 78.5559105 166.738667 78.3067093 166.325333 78.057508 165.829333 77.9329073 165.168 77.9329073 164.589333 77.9329073 164.093333 78.057508 163.721333 78.3067093 163.308 78.5559105 162.936 78.8466454 162.646667 79.2204473 162.357333 79.5942492 162.150667 80.0095847 161.985333 80.4249201 161.861333 80.715655 161.778667 81.0479233 161.737333 81.3386581L168.309333 81.3386581ZM181.866667 75.4824281C180.916 75.4824281 180.089333 75.7731629 179.345333 76.3546326 178.890667 76.686901 178.56 77.14377 178.229333 77.6421725L178.188 75.8146965 175.294667 75.8146965 175.336 76.1884984C175.377333 76.8115016 175.418667 77.5175719 175.418667 78.2236422 175.418667 78.9297125 175.46 79.6773163 175.46 80.5079872L175.46 90.3929712 178.642667 90.3929712 178.642667 82.6677316 178.684 82.086262 178.766667 81.5463259C178.932 80.6741214 179.262667 79.9265176 179.8 79.3865815 180.337333 78.8466454 180.998667 78.5974441 181.784 78.5974441 182.073333 78.5974441 182.321333 78.6389776 182.569333 78.6805112L182.982667 78.7635783 182.982667 75.6900958 182.734667 75.6070288 181.866667 75.4824281ZM199.598667 79.8434505C199.929333 80.7571885 200.053333 81.7539936 200.053333 82.8338658 200.053333 84.1214058 199.846667 85.2428115 199.516 86.2396166 199.144 87.2364217 198.648 88.0255591 198.069333 88.6900958 197.449333 89.3546326 196.746667 89.8530351 195.961333 90.14377 195.176 90.4760383 194.349333 90.6421725 193.481333 90.6421725 192.530667 90.6421725 191.621333 90.4345048 190.836 90.0191693 190.34 89.7699681 189.885333 89.4376997 189.513333 89.0638978L189.513333 96 186.372 96 186.372 80.6741214C186.372 79.884984 186.372 79.0958466 186.330667 78.2651757 186.330667 77.4760383 186.289333 76.8115016 186.248 76.1884984L186.248 75.8146965 189.182667 75.8146965 189.265333 77.600639C189.72 77.0607029 190.216 76.6038339 190.836 76.2715655 191.704 75.7731629 192.737333 75.5239617 193.936 75.5239617 194.804 75.5239617 195.630667 75.6900958 196.416 76.0638978 197.16 76.4376997 197.821333 76.9361022 198.358667 77.600639 198.854667 78.1821086 199.268 78.971246 199.598667 79.8434505M196.870667 82.9584665C196.870667 82.2939297 196.788 81.6709265 196.622667 81.0894569 196.457333 80.5079872 196.209333 80.0095847 195.878667 79.5527157 195.548 79.1373802 195.176 78.8051118 194.721333 78.5559105 194.266667 78.3067093 193.729333 78.1821086 193.109333 78.1821086 192.324 78.1821086 191.621333 78.4313099 190.96 78.971246 190.298667 79.4696486 189.885333 80.1757188 189.637333 81.0479233L189.637333 81.1309904 189.554667 81.5463259 189.513333 82.0031949 189.513333 84.370607 189.554667 84.8690096 189.637333 85.284345C189.844 86.115016 190.257333 86.7380192 190.877333 87.2364217 191.497333 87.7348243 192.241333 87.9840256 193.068 87.9840256 193.688 87.9840256 194.225333 87.8594249 194.68 87.6517572 195.176 87.4025559 195.548 87.0702875 195.878667 86.6549521 196.209333 86.1980831 196.457333 85.6996805 196.622667 85.0766773 196.788 84.4121406 196.870667 83.7060703 196.870667 82.9584665M210.552 75.4824281C209.642667 75.4824281 208.774667 75.7731629 208.030667 76.3546326 207.617333 76.686901 207.245333 77.14377 206.914667 77.600639L206.873333 75.7731629 203.98 75.7731629 203.98 76.1469649C204.021333 76.8945687 204.062667 77.5591054 204.062667 78.1821086 204.062667 78.8051118 204.104 79.5111821 204.104 80.4664537L204.104 90.3514377 207.286667 90.3514377 207.286667 82.6261981 207.328 82.0447284 207.410667 81.5047923C207.576 80.5910543 207.906667 79.9265176 208.444 79.3450479 208.981333 78.8051118 209.642667 78.5559105 210.428 78.5559105L211.213333 78.6389776 211.626667 78.7220447 211.626667 75.6485623 211.378667 75.5654952C211.089333 75.4824281 210.841333 75.4824281 210.552 75.4824281M216.628 70C216.049333 70 215.594667 70.2076677 215.222667 70.5814696 214.850667 70.9552716 214.685333 71.4121406 214.685333 71.9520767 214.685333 72.4920128 214.850667 72.9488818 215.222667 73.3226837 215.594667 73.7380192 216.049333 73.9041534 216.628 73.9041534 217.248 73.9041534 217.702667 73.6964856 218.074667 73.3226837 218.405333 72.9488818 218.570667 72.4920128 218.570667 71.9520767 218.570667 71.4121406 218.405333 70.9552716 218.074667 70.5814696 217.702667 70.2076677 217.206667 70 216.628 70M215.016 90.3099042 218.198667 90.3099042 218.198667 75.7731629 215.016 75.7731629 215.016 90.3099042ZM228.201333 81.5878594 228.201333 81.5878594C227.333333 81.2555911 226.672 80.9233227 226.3 80.6325879 225.969333 80.3833866 225.804 80.0095847 225.804 79.5527157 225.804 79.1373802 225.969333 78.8051118 226.3 78.4728435 226.630667 78.1405751 227.126667 78.0159744 227.788 78.0159744 228.408 78.0159744 228.904 78.0990415 229.358667 78.2651757 229.854667 78.4313099 230.185333 78.5974441 230.433333 78.7635783L230.805333 79.0127796 231.673333 76.4792332 231.425333 76.3546326C231.012 76.1054313 230.474667 75.8977636 229.896 75.7316294 229.276 75.5654952 228.614667 75.4824281 227.870667 75.4824281 227.085333 75.4824281 226.382667 75.6070288 225.762667 75.8146965 225.142667 76.0223642 224.605333 76.3546326 224.150667 76.7699681 223.696 77.1853035 223.365333 77.6421725 223.117333 78.1821086 222.869333 78.7220447 222.745333 79.3035144 222.745333 79.884984 222.745333 80.798722 223.076 81.629393 223.737333 82.3769968 224.357333 83.0830671 225.349333 83.6645367 226.630667 84.1214058 227.498667 84.4536741 228.118667 84.7859425 228.490667 85.1182109 228.821333 85.4089457 228.986667 85.8242812 228.986667 86.3226837 228.986667 86.7795527 228.78 87.1948882 228.449333 87.5271565 228.077333 87.8594249 227.457333 88.0255591 226.672 88.0255591 226.093333 88.0255591 225.514667 87.942492 224.936 87.7348243 224.357333 87.5271565 223.902667 87.3194888 223.530667 87.0702875L223.158667 86.8210863 222.290667 89.4376997 222.538667 89.5623003C223.076 89.8530351 223.654667 90.1022364 224.357333 90.3099042 225.06 90.5175719 225.804 90.600639 226.589333 90.600639 228.325333 90.600639 229.689333 90.1853035 230.64 89.3546326 231.590667 88.5239617 232.086667 87.4025559 232.086667 86.0734824 232.086667 84.9520767 231.756 84.0383387 231.094667 83.3322684 230.392 82.6677316 229.441333 82.086262 228.201333 81.5878594M248 82.3354633C248 82.6261981 248 82.8753994 247.958667 83.0415335L247.917333 83.2076677 247.876 83.5399361 247.834667 83.8306709 238.204 83.8306709C238.245333 84.4952077 238.369333 85.0766773 238.576 85.5335463 238.824 86.0734824 239.113333 86.5303514 239.526667 86.9041534 239.898667 87.2364217 240.353333 87.5271565 240.890667 87.6932907 241.428 87.8594249 241.965333 87.942492 242.585333 87.942492 243.494667 87.942492 244.197333 87.8594249 244.734667 87.7348243 245.272 87.6102236 245.768 87.4440895 246.264 87.2364217L246.636 87.0702875 247.214667 89.5623003 246.966667 89.686901C246.512 89.8945687 245.892 90.1022364 245.106667 90.3099042 244.321333 90.5175719 243.370667 90.600639 242.213333 90.600639 241.097333 90.600639 240.105333 90.4345048 239.237333 90.0607029 238.369333 89.7284345 237.584 89.1884984 236.964 88.5654952 236.344 87.9009585 235.889333 87.1533546 235.558667 86.2396166 235.228 85.3258786 235.104 84.3290735 235.104 83.2492013 235.104 82.1693291 235.269333 81.1309904 235.558667 80.2172524 235.889333 79.2619808 236.344 78.4313099 236.922667 77.7252396 237.501333 77.0191693 238.245333 76.4792332 239.072 76.0638978 239.898667 75.6485623 240.849333 75.4408946 241.924 75.4408946 243.122667 75.4408946 244.114667 75.6900958 244.9 76.1469649 245.685333 76.6038339 246.305333 77.2268371 246.76 77.8913738 247.214667 78.6389776 247.545333 79.3450479 247.710667 80.1341853 247.917333 80.9648562 248 81.6709265 248 82.3354633M244.858667 81.3386581C244.858667 81.0479233 244.817333 80.7571885 244.734667 80.4249201 244.652 80.0095847 244.486667 79.5942492 244.238667 79.2204473 244.032 78.8466454 243.701333 78.5559105 243.288 78.3067093 242.874667 78.057508 242.378667 77.9329073 241.717333 77.9329073 241.138667 77.9329073 240.642667 78.057508 240.270667 78.3067093 239.857333 78.5559105 239.485333 78.8466454 239.196 79.2204473 238.906667 79.5942492 238.7 80.0095847 238.534667 80.4249201 238.410667 80.7571885 238.328 81.0479233 238.286667 81.3386581L244.858667 81.3386581Z" transform="translate(26 102)"/></svg>