<svg xmlns="http://www.w3.org/2000/svg" width="300" height="300" viewBox="0 0 300 300"><g fill="none" fill-rule="evenodd"><path fill="#000" fill-rule="nonzero" d="M226.229534,136.518708 C218.62977,136.518708 212.930337,141.857063 212.930337,150.088713 C212.930337,158.234763 218.450788,163.843927 226.229534,163.843927 C234.103219,163.843927 239.078939,158.415302 239.078939,150.180539 C239.078939,142.039158 234.103219,136.518708 226.229534,136.518708 L226.229534,136.518708 Z M230.573367,156.785781 C230.573367,159.184814 228.628567,161.129615 226.229534,161.129615 C223.879412,161.129615 221.977523,159.229285 221.977523,156.785781 L221.977523,143.03368 C221.976286,141.905455 222.423816,140.823059 223.221446,140.025137 C224.019077,139.227215 225.101308,138.779289 226.229534,138.780115 C228.582768,138.780115 230.573367,140.680446 230.573367,143.03368 L230.573367,156.785781 Z M198.182158,136.970055 C196.281828,136.970055 193.656229,137.33269 192.300629,139.23302 L192.300629,136.789516 C188.862603,137.42296 188.317873,137.603499 180.357032,137.603499 L180.357032,140.319367 C182.981075,140.319367 184.609039,140.499907 184.609039,143.396315 L184.609039,168.91303 C184.517213,172.16896 185.061944,174.522194 180.265206,174.522194 L180.265206,177.418602 L197.276349,177.418602 L197.276349,174.522194 L196.734732,174.522194 C193.475689,174.522194 192.299072,172.803959 192.299072,170.902073 L192.299072,161.40198 C193.836768,163.484405 195.919193,163.937309 197.81641,163.937309 C205.148478,163.845483 209.128121,158.958476 209.128121,150.182095 C209.128121,142.218141 205.872191,136.970055 198.182158,136.970055 L198.182158,136.970055 Z M200.082488,157.509494 C200.082488,159.500093 198.544792,161.129615 196.552636,161.129615 C194.560481,161.129615 192.932516,159.500093 192.932516,157.509494 L192.932516,143.757393 C192.932516,141.766793 194.562037,140.227542 196.552636,140.227542 C198.543236,140.227542 200.082488,141.766793 200.082488,143.757393 L200.082488,157.509494 Z"/><path fill="#EBB53B" fill-rule="nonzero" d="M140.453215,147.466227 C139.00579,148.913652 137.648634,150.362635 136.291477,151.718234 L136.291477,146.652244 L139.911598,143.03368 C140.182407,143.394758 140.453215,143.576854 140.453215,144.661645 L140.453215,147.466227 L140.453215,147.466227 Z M161.355289,128.013136 C158.608991,130.325083 155.923844,132.708709 153.302621,135.161551 L153.302621,132.988856 C152.488638,133.6223 149.6825,134.255743 148.597709,134.346013 C152.084661,130.857626 155.707045,127.507297 159.456515,124.302745 L159.456515,127.92131 L161.355289,128.013136 L161.355289,128.013136 Z"/><path fill="#EBB53B" fill-rule="nonzero" d="M171.30673,119.597834 C188.317873,105.844176 206.777999,93.6297703 225.687916,85.3047376 C238.534209,80.0566519 245.953433,77.8855133 251.204632,83.6752163 C256.451161,89.3762062 245.142564,107.926602 242.787773,110.276723 C239.894478,109.372471 238.80813,110.819897 238.80813,110.819897 C239.892922,110.457262 241.793252,111.272801 240.526365,114.167652 C239.984748,115.254 237.815165,116.791695 236.909357,114.257922 C235.824566,116.972234 233.200523,121.586877 230.033306,125.838884 C219.35504,140.406524 204.516591,154.43099 182.892361,173.703542 C147.512918,205.192056 129.234888,212.251759 116.928656,217.406462 C108.060449,220.752661 85.5304115,225.641225 100.280147,198.407832 C103.355538,191.349686 111.590301,179.585071 123.351802,166.013509 L119.733238,166.013509 L119.733238,164.749735 C111.047127,174.884828 102.541555,186.012887 96.9323912,197.050675 C92.4080184,205.103343 83.6316379,230.528233 116.204943,220.667061 C126.881653,217.320862 155.565586,203.476935 187.142813,175.152524 C220.531657,145.295088 237.450974,124.122206 243.242234,117.155886 C244.418851,115.797174 245.595468,113.626035 244.692772,111.99807 C250.392206,103.492498 258.262778,85.7591982 252.563344,80.329017 C246.232024,74.2669489 233.743697,78.2481479 228.946959,80.0582083 C221.435909,83.0433294 192.66482,96.8872564 164.976966,119.59939 L171.30673,119.59939 L171.30673,119.597834 L171.30673,119.597834 Z"/><path fill="#000" fill-rule="nonzero" d="M113.761439,104.125942 C113.489074,105.301002 112.765361,107.020793 108.423084,109.644836 C97.383739,116.069539 79.1072651,116.702982 64.8104339,116.340347 C42.8235697,115.797174 33.6845546,110.731183 31.4231464,108.740584 C30.1562597,107.563967 30.3367989,106.477619 31.7842246,105.392828 C35.8556932,102.315881 50.242794,101.23109 59.7428874,101.23109 C69.2429808,101.23109 80.1017867,103.403785 80.0099608,105.936002 C80.0099608,108.560045 74.7618751,108.921123 73.585258,109.012949 C72.7712756,109.103219 71.8670236,108.74214 71.8670236,108.289236 C72.0491191,107.565523 73.3144494,107.565523 73.9478927,107.383428 C74.4910664,107.293158 74.7618751,106.840254 74.7618751,106.206811 C74.7618751,105.392828 72.408641,104.578846 70.5098674,104.306481 C64.990973,102.859055 57.7507315,103.310403 53.951628,103.582768 C47.165847,104.035672 42.4593787,106.114985 42.4593787,107.746062 C42.4593787,109.282201 46.4405777,113.8984 66.2563033,114.530287 C91.7730187,115.344269 103.716616,111.001992 109.507875,106.840254 C113.489074,103.763307 110.503953,101.683994 106.703293,99.7821079 C96.2989479,94.8966569 76.5734919,94.4437527 66.7107639,94.3534832 C55.5827056,94.172944 37.0323103,95.5301002 29.1601818,96.977526 C27.4419473,97.4304302 27.8030256,98.8778559 30.2465293,98.3346822 C33.1413808,97.881778 53.4100106,96.4343522 63.2727386,96.977526 C73.1354666,97.4304302 85.1693333,97.1580651 96.2989479,102.678516 C98.1977215,103.853577 98.8311648,105.936002 95.9363133,107.563967 C93.1317313,109.101662 85.8930461,112.629957 68.9721721,112.720227 C53.4084542,112.902322 51.4178547,110.276723 50.0622549,109.191932 C49.5190811,108.739028 49.4288116,107.381871 51.5096806,106.295524 C52.9593021,105.638339 54.5326906,105.298721 56.124323,105.299446 C57.3912096,105.299446 57.8425574,106.658159 56.4854012,106.748428 C55.128245,107.10795 53.6808193,107.290045 53.6808193,108.286123 C53.6808193,109.100106 54.5866277,109.191932 55.5811492,109.55301 C56.4854012,109.915645 61.2805827,111.000436 67.3442072,111.000436 C76.2108572,111.000436 82.9981946,109.735106 86.9793936,107.380315 C88.6073585,106.566333 89.0587063,103.94229 86.2556808,103.038038 C81.9118471,101.590612 74.1299882,99.0552823 57.9343834,99.0552823 C46.8063251,99.0552823 26.0863475,100.775073 20.1129926,102.403038 C18.0321235,103.036481 13.236942,104.393638 13.236942,106.927411 C13.236942,109.459628 16.4944282,110.636245 18.0336799,111.179419 C26.8116168,114.256366 51.6015066,117.9652 61.3755214,118.055469 C88.6104713,118.326278 103.901824,116.06487 113.311648,108.012202 C114.035361,107.106394 115.302247,105.750794 115.482787,104.392081 C115.661769,102.588246 114.124074,102.49642 113.761439,104.125942 L113.761439,104.125942 Z M87.6112806,122.582955 C94.3970616,122.582955 96.207122,122.403972 99.0117039,121.678703 L99.0117039,140.680446 C101.455208,136.607421 104.620868,136.607421 108.240989,136.607421 C111.316379,136.607421 115.299135,139.413559 115.299135,145.656166 L115.299135,153.621677 C115.299135,158.686111 115.5715,160.67671 118.917699,160.67671 L119.007969,160.67671 L119.007969,163.029945 L104.802963,163.029945 L104.802963,160.67671 C107.33518,160.67671 107.517276,157.783415 107.517276,155.430181 L107.607545,153.621677 L107.607545,145.930088 C107.607545,142.672602 106.521198,140.772272 104.440329,140.772272 C100.186765,140.772272 99.0117039,144.210297 99.0117039,148.73467 L99.0117039,154.43566 C99.192243,158.237876 99.0117039,160.679823 102.177364,160.679823 L102.177364,163.033057 L87.3389155,163.033057 L87.3389155,160.679823 C90.5061321,160.679823 91.3201145,158.871319 91.3201145,155.341468 L91.3201145,128.37577 C91.3201145,125.750171 91.4103841,125.118284 89.5100542,125.479363 C87.0665505,126.203075 86.3428376,127.469962 85.2564901,130.817718 L74.6700492,164.296831 L72.316815,164.296831 L64.2672602,141.676524 L56.032497,164.296831 L53.6792629,164.296831 L38.9326402,128.55631 C38.0268318,125.659902 35.7654236,125.389093 32.8690158,125.208554 L32.8690158,122.582955 L51.5096806,122.582955 L51.5096806,125.208554 L50.7844114,125.208554 C48.7953682,125.208554 48.8856378,125.840441 48.8856378,127.107327 C48.8856378,127.83104 48.9759074,128.464484 49.5190811,130.364814 L57.4814792,152.079313 L62.910104,136.879786 L60.6486958,131.269066 C59.2915396,126.925232 58.9289049,125.206997 54.7671668,125.206997 L54.7671668,122.581398 L71.5962149,122.581398 L71.5962149,125.206997 L70.6919629,125.297267 C69.3348067,125.477806 69.1542676,126.111249 69.1542676,127.378136 C69.1542676,128.011579 69.2445371,128.374214 69.7877109,130.002179 L76.1221441,150.541617 L83.1802901,128.193675 C83.6331943,126.022536 81.4604993,125.208554 80.2854386,125.116728 L80.2854386,122.582955 L87.6112806,122.582955 L87.6112806,122.582955 Z M133.938243,129.099483 C133.938243,131.451161 131.947644,133.443317 129.50414,133.443317 C127.152462,133.443317 125.252132,131.452717 125.252132,129.099483 C125.252132,126.65598 127.242732,124.75565 129.50414,124.75565 C131.947644,124.75565 133.938243,126.65598 133.938243,129.099483 Z M122.086472,163.029945 L137.01519,163.029945 L137.01519,160.497728 C133.757704,160.497728 133.485339,158.868206 133.485339,153.71039 L133.485339,136.428438 C131.043392,137.24242 127.966445,137.33269 121.451472,137.33269 L121.451472,139.956733 L122.536263,139.956733 C125.432671,139.956733 125.884019,143.035236 125.884019,143.123949 L125.884019,153.71039 C125.884019,158.777937 125.431115,160.497728 122.084916,160.497728 L122.084916,163.029945 L122.086472,163.029945 Z M151.402291,139.050924 C153.845795,136.065803 157.917263,136.970055 158.278342,136.970055 C160.902384,136.970055 162.257984,139.776194 162.257984,141.676524 C162.257984,144.300567 160.53975,146.28961 158.188072,146.28961 C155.926664,146.28961 154.208429,144.842184 154.208429,142.579219 C154.208429,141.857063 154.297143,141.404159 154.566395,141.041524 C154.840316,140.770715 154.840316,140.680446 154.840316,140.58862 C154.840316,140.49835 154.932142,139.866463 154.74849,139.866463 C154.387412,139.866463 153.753969,139.503829 152.939986,140.58862 C151.492561,142.308411 151.402291,143.755836 151.402291,146.017245 L151.402291,156.876051 C151.581274,158.052668 151.855195,159.408267 153.031812,160.135093 C153.663699,160.496171 153.755525,160.67671 155.111125,160.67671 L155.111125,163.029945 L140.182407,163.029945 L140.182407,160.497728 C143.439893,160.497728 143.712258,158.95692 143.712258,153.889373 L143.712258,143.03368 C143.712258,139.776194 142.174563,139.955176 139.368424,139.955176 L139.368424,137.42296 C145.702857,137.42296 148.325344,137.331134 151.402291,136.699247 L151.402291,139.050924 L151.402291,139.050924 Z M282.420781,154.253564 C282.420781,159.317998 283.505572,160.135093 286.764614,160.584885 L286.764614,162.846293 L270.295088,162.846293 L270.295088,160.496171 C273.554131,160.135093 274.638922,159.316442 274.638922,154.252008 L274.638922,128.827118 C274.638922,126.293345 273.101226,125.116728 271.200896,125.026458 L270.295088,125.116728 L270.295088,122.492685 C276.721347,122.492685 279.161738,122.582955 282.420781,121.768972 L282.420781,154.253564 L282.420781,154.253564 Z M255.998257,136.518708 C248.398493,136.518708 242.69906,141.857063 242.69906,150.088713 C242.69906,158.234763 248.127685,163.843927 255.909544,163.843927 C263.780116,163.843927 268.846106,158.415302 268.846106,150.180539 C268.847662,142.039158 263.780116,136.518708 255.998257,136.518708 L255.998257,136.518708 Z M260.251821,156.785781 C260.251821,159.229285 258.351491,161.129615 255.999813,161.129615 C253.648135,161.129615 251.659092,159.229285 251.659092,156.785781 L251.659092,143.03368 C251.659092,140.680446 253.646579,138.780116 255.999813,138.780116 C258.353047,138.780116 260.251821,140.680446 260.251821,143.03368 L260.251821,156.785781 Z M174.744755,154.253564 C174.744755,159.317998 175.832659,160.135093 179.088589,160.584885 L179.088589,162.846293 L162.622175,162.846293 L162.622175,160.496171 C165.878105,160.135093 167.054722,159.316442 167.054722,154.252008 L167.054722,128.827118 C166.966009,126.293345 165.425201,125.116728 163.527984,125.026458 L162.622175,125.116728 L162.622175,122.492685 C169.137147,122.492685 171.488825,122.582955 174.744755,121.768972 L174.744755,154.253564 Z"/></g></svg>